<?xml version="1.0" encoding="UTF-8"?>
<svg width="20px" height="20px" viewBox="0 0 20 20" version="1.1" xmlns="http://www.w3.org/2000/svg" xmlns:xlink="http://www.w3.org/1999/xlink">
    <!-- Generator: Sketch 55.2 (78181) - https://sketchapp.com -->
    <title>icon/20x20/newsletter</title>
    <desc>Created with Sketch.</desc>
    <g id="icon/20x20/newsletter" stroke="none" stroke-width="1" fill="none" fill-rule="evenodd">
        <path d="M10,20 C4.4771525,20 0,15.5228475 0,10 C0,4.4771525 4.4771525,0 10,0 C15.5228475,0 20,4.4771525 20,10 C20,15.5228475 15.5228475,20 10,20 Z M14.8105469,8.4765625 C14.3730469,8.81640625 13.7949219,9.25 11.8027344,10.6972656 C11.40625,10.9863281 10.6972656,11.6328125 10,11.6269531 C9.30664062,11.6308594 8.61132812,10.9980469 8.19921875,10.6972656 C6.20703125,9.25 5.62695312,8.81835938 5.18945312,8.47851563 C5.11132812,8.41796875 5,8.47265625 5,8.5703125 L5,12.5625 C5,13.0800781 5.41992188,13.5 5.9375,13.5 L14.0625,13.5 C14.5800781,13.5 15,13.0800781 15,12.5625 L15,8.56835938 C15,8.47265625 14.8867188,8.41601563 14.8105469,8.4765625 Z M10,11 C10.453125,11.0078125 11.1054688,10.4296875 11.4335938,10.1914063 C14.0253906,8.31054688 14.2226562,8.14648438 14.8203125,7.67773438 C14.9335938,7.58984375 15,7.453125 15,7.30859375 L15,6.9375 C15,6.41992188 14.5800781,6 14.0625,6 L5.9375,6 C5.41992188,6 5,6.41992188 5,6.9375 L5,7.30859375 C5,7.453125 5.06640625,7.58789063 5.1796875,7.67773438 C5.77734375,8.14453125 5.97460938,8.31054688 8.56640625,10.1914063 C8.89453125,10.4296875 9.546875,11.0078125 10,11 Z" id="Combined-Shape" fill="#3B3B3B" fill-rule="nonzero"></path>
    </g>
</svg>