<?xml version="1.0" encoding="UTF-8"?>
<svg width="20px" height="20px" viewBox="0 0 20 20" version="1.1" xmlns="http://www.w3.org/2000/svg" xmlns:xlink="http://www.w3.org/1999/xlink">
    <!-- Generator: Sketch 55.2 (78181) - https://sketchapp.com -->
    <title>icon/20x20/web</title>
    <desc>Created with Sketch.</desc>
    <g id="icon/20x20/web" stroke="none" stroke-width="1" fill="none" fill-rule="evenodd">
        <path d="M10,20 C4.4771525,20 0,15.5228475 0,10 C0,4.4771525 4.4771525,0 10,0 C15.5228475,0 20,4.4771525 20,10 C20,15.5228475 15.5228475,20 10,20 Z M11.0907018,8.8908577 C10.9724561,8.77191033 10.841345,8.66647173 10.6998051,8.57647173 C10.3249123,8.33641326 9.88908382,8.20884588 9.44391813,8.20884588 C8.82604288,8.20769981 8.23327485,8.45319688 7.7971345,8.8908577 L5.68126706,11.0083821 C5.24586745,11.4446199 5.0011501,12.0356725 5.00075975,12.6520078 C4.99994152,13.9381676 6.04189084,14.981462 7.32805068,14.9822947 C7.94497076,14.984425 8.53719298,14.7400975 8.97317739,14.3036062 L10.7197661,12.5570175 C10.751501,12.5255556 10.7692203,12.4826316 10.7689669,12.4379532 C10.7684405,12.3460819 10.6935283,12.2720468 10.6016569,12.2725731 L10.5351267,12.2725731 C10.1702144,12.2738596 9.8085575,12.2037817 9.47054581,12.0663158 C9.40826511,12.0406823 9.33668616,12.0551462 9.28923977,12.1029045 L8.03335283,13.3604483 C7.64337232,13.7504288 7.01109162,13.7504288 6.62111111,13.3604483 C6.2311306,12.9704678 6.2311306,12.3381871 6.62111111,11.9482066 L8.74530214,9.82569201 C9.13497076,9.43651072 9.76621832,9.43651072 10.1558869,9.82569201 C10.418499,10.072846 10.8281287,10.072846 11.0907212,9.82569201 C11.2037037,9.71261209 11.2722027,9.56263158 11.2836842,9.40317739 C11.2958285,9.21263158 11.2255556,9.02602339 11.0907018,8.8908577 Z M14.2994347,5.68212476 C13.3899415,4.77263158 11.9153606,4.77263158 11.0058674,5.68212476 L9.26093567,7.42538012 C9.21302144,7.47352827 9.19920078,7.54594542 9.2260039,7.60836257 C9.25249513,7.67095517 9.31440546,7.7111306 9.38235867,7.70982456 L9.44389864,7.70982456 C9.80838207,7.70916179 10.1694542,7.77978558 10.5068226,7.91775828 C10.5691033,7.94339181 10.6406823,7.92892788 10.6881287,7.88116959 L11.9406823,6.6302729 C12.3306628,6.2402924 12.9629435,6.2402924 13.352924,6.6302729 C13.7429045,7.02025341 13.7429045,7.65253411 13.352924,8.04251462 L11.7926316,9.6011306 L11.7793177,9.61610136 L11.2337232,10.1583821 C10.8440546,10.5475634 10.212807,10.5475634 9.8231384,10.1583821 C9.56052632,9.91122807 9.15089669,9.91122807 8.88830409,10.1583821 C8.77460039,10.2723197 8.70604288,10.4236062 8.69534113,10.5842105 C8.68317739,10.7747563 8.75345029,10.9613645 8.88830409,11.0965497 C9.08083821,11.2899025 9.30610136,11.4475828 9.55366472,11.5623002 C9.58859649,11.5789279 9.62352827,11.5922417 9.65846004,11.6072125 C9.69339181,11.6221832 9.72998051,11.6338207 9.76491228,11.6471345 C9.79984405,11.6604483 9.83643275,11.6720858 9.87136452,11.6820663 L9.96951267,11.7086745 C10.0360429,11.7253021 10.1025926,11.738616 10.1707797,11.7502534 C10.252924,11.7624561 10.335653,11.7702339 10.4186355,11.7735478 L10.5350682,11.7735478 L10.5450487,11.7735478 L10.6448538,11.7619103 C10.6814425,11.7602534 10.7197076,11.7519298 10.762963,11.7519298 L10.8195127,11.7519298 L10.9342885,11.7353021 L10.9875244,11.7253216 L11.0839961,11.7053606 L11.1023002,11.7053606 C11.5108967,11.602729 11.8839961,11.3911696 12.1818519,11.0932164 L14.2993762,8.97569201 C15.2089279,8.06619883 15.2089279,6.59161793 14.2994347,5.68212476 Z" id="Combined-Shape" fill="#3B3B3B" fill-rule="nonzero"></path>
    </g>
</svg>