<?xml version="1.0" encoding="UTF-8"?>
<svg width="20px" height="20px" viewBox="0 0 20 20" version="1.1" xmlns="http://www.w3.org/2000/svg" xmlns:xlink="http://www.w3.org/1999/xlink">
    <!-- Generator: Sketch 55.2 (78181) - https://sketchapp.com -->
    <title>icon/20x20/youtube</title>
    <desc>Created with Sketch.</desc>
    <g id="icon/20x20/youtube" stroke="none" stroke-width="1" fill="none" fill-rule="evenodd">
        <path d="M10,20 C4.4771525,20 0,15.5228475 0,10 C0,4.4771525 4.4771525,0 10,0 C15.5228475,0 20,4.4771525 20,10 C20,15.5228475 15.5228475,20 10,20 Z M14.7910403,7.13793561 C14.6760319,6.69001894 14.3371773,6.33725379 13.9069349,6.21753788 C13.1270897,6 10,6 10,6 C10,6 6.87292862,6 6.09306507,6.21753788 C5.66282268,6.33727273 5.32396811,6.69001894 5.20895971,7.13793561 C5,7.94981061 5,9.64371212 5,9.64371212 C5,9.64371212 5,11.3376136 5.20895971,12.1494886 C5.32396811,12.5974053 5.66282268,12.9354735 6.09306507,13.0551894 C6.87292862,13.2727273 10,13.2727273 10,13.2727273 C10,13.2727273 13.1270714,13.2727273 13.9069349,13.0551894 C14.3371773,12.9354735 14.6760319,12.5974053 14.7910403,12.1494886 C15,11.3376136 15,9.64371212 15,9.64371212 C15,9.64371212 15,7.94981061 14.7910403,7.13793561 Z M8.97726565,11.1816477 L8.97726565,8.10577652 L11.5908916,9.64375 L8.97726565,11.1816477 Z" id="Combined-Shape" fill="#3B3B3B" fill-rule="nonzero"></path>
    </g>
</svg>