<?xml version="1.0" encoding="UTF-8"?>
<svg width="60px" height="60px" viewBox="0 0 60 60" version="1.1" xmlns="http://www.w3.org/2000/svg" xmlns:xlink="http://www.w3.org/1999/xlink">
    <!-- Generator: Sketch 55.2 (78181) - https://sketchapp.com -->
    <title>icon/60x60/contact</title>
    <desc>Created with Sketch.</desc>
    <g id="icon/60x60/contact" stroke="none" stroke-width="1" fill="none" fill-rule="evenodd">
        <circle id="Combined-Shape" fill="#8DC63F" fill-rule="nonzero" cx="30" cy="30" r="30"></circle>
        <path d="M44.191875,18.834082 C43.6677539,18.3098437 43.0375195,18.0478711 42.301582,18.0478711 L17.6766797,18.0478711 C16.940625,18.0478711 16.3103906,18.3098437 15.7862109,18.834082 C15.2619727,19.3582031 15,19.9883789 15,20.7245508 L15,38.9257031 C15,39.6619922 15.2619727,40.2916406 15.7862109,40.8157617 C16.310332,41.3403516 16.9405664,41.602207 17.6766797,41.602207 L42.3016406,41.602207 C43.0375781,41.602207 43.6677539,41.3403516 44.1919336,40.8157617 C44.7162891,40.2916406 44.9781445,39.6616406 44.9781445,38.9257031 L44.9781445,20.7245508 C44.9781445,19.9883789 44.7162891,19.3582031 44.191875,18.834082 Z M42.8366016,38.925293 C42.8366016,39.0703125 42.7836914,39.1957617 42.6775781,39.3016992 C42.5715234,39.4077539 42.4461914,39.4602539 42.3014062,39.4602539 L17.6765039,39.4602539 C17.531543,39.4602539 17.4060352,39.4077539 17.3001563,39.3016992 C17.1941602,39.1957617 17.14125,39.0703125 17.14125,38.925293 L17.14125,26.0776172 C17.4980859,26.4791016 17.8828711,26.8471875 18.2955469,27.1816992 C21.2845313,29.4791016 23.6599805,31.3637695 25.4221289,32.8359961 C25.9908984,33.3156445 26.4537891,33.6891797 26.810625,33.9568945 C27.1674609,34.2247266 27.6498047,34.4950781 28.2575391,34.7681836 C28.865332,35.0416992 29.4369727,35.1778125 29.9722852,35.1778125 L29.9891016,35.1778125 L30.0057422,35.1778125 C30.5409375,35.1778125 31.1128125,35.0416992 31.7203711,34.7681836 C32.3283398,34.4950781 32.8109766,34.2247852 33.1676953,33.9568945 C33.5244727,33.6891797 33.9874219,33.3156445 34.55625,32.8359961 C36.3183984,31.3637695 38.6935547,29.4791016 41.6826563,27.1816992 C42.095332,26.8472461 42.480293,26.4791016 42.8366016,26.0776172 L42.8366016,38.925293 L42.8366016,38.925293 Z M42.8366602,21.159375 L42.8366602,21.3433594 C42.8366602,22.0013086 42.5775586,22.734668 42.0590039,23.5431445 C41.5403906,24.3516211 40.9797656,24.9958008 40.3778906,25.4752148 C38.2251562,27.1706836 35.9893945,28.9381641 33.6691992,30.7783008 C33.6024023,30.8340234 33.4070508,30.9984375 33.0834961,31.271543 C32.7604102,31.5450586 32.5037695,31.7544141 32.3141016,31.8991992 C32.1241992,32.0443945 31.8763477,32.22 31.5697852,32.4261328 C31.2629883,32.6322656 30.9814453,32.7858984 30.7249805,32.8861523 C30.4685156,32.9861719 30.2286914,33.0362695 30.0057422,33.0362695 L29.9891016,33.0362695 L29.9722852,33.0362695 C29.7492773,33.0362695 29.5096875,32.9861719 29.2530469,32.8861523 C28.996582,32.7858984 28.7148633,32.6322656 28.4083008,32.4261328 C28.1017969,32.2199414 27.8535938,32.0443359 27.6639844,31.8991992 C27.4744922,31.7544141 27.2178516,31.5450586 26.8945313,31.271543 C26.5710938,30.9984375 26.3757422,30.8340234 26.3088867,30.7783008 C23.9892188,28.9381055 21.7532227,27.1706836 19.6006641,25.4752148 C17.9611523,24.1816992 17.141543,22.5979102 17.141543,20.7242578 C17.141543,20.5794141 17.1944531,20.4538477 17.3004492,20.3480273 C17.4064453,20.2420312 17.5318359,20.1890039 17.6767969,20.1890039 L42.3017578,20.1890039 C42.3908203,20.2391016 42.4689844,20.2530469 42.535957,20.2308984 C42.6029297,20.2083398 42.6530273,20.250293 42.6863086,20.3561719 C42.7197656,20.462168 42.7504688,20.5122656 42.7783008,20.5067578 C42.80625,20.5011328 42.8230664,20.5708008 42.8286328,20.7159961 C42.8338477,20.8608984 42.8366602,20.9338477 42.8366602,20.9338477 L42.8366602,21.159375 L42.8366602,21.159375 Z" id="Shape" fill="#FFFFFF" fill-rule="nonzero"></path>
    </g>
</svg>