<?xml version="1.0" encoding="UTF-8"?>
<svg width="15px" height="15px" viewBox="0 0 15 15" version="1.1" xmlns="http://www.w3.org/2000/svg" xmlns:xlink="http://www.w3.org/1999/xlink">
    <!-- Generator: Sketch 55.2 (78181) - https://sketchapp.com -->
    <title>icon/15x15/mail</title>
    <desc>Created with Sketch.</desc>
    <g id="icon/15x15/mail" stroke="none" stroke-width="1" fill="none" fill-rule="evenodd">
        <g id="envelope" transform="translate(0.000000, 2.000000)" fill="#3B3B3B" fill-rule="nonzero">
            <path d="M14.7158203,3.71484375 C14.8300781,3.62402344 15,3.70898438 15,3.85253906 L15,9.84375 C15,10.6201172 14.3701172,11.25 13.59375,11.25 L1.40625,11.25 C0.629882812,11.25 0,10.6201172 0,9.84375 L0,3.85546875 C0,3.70898438 0.166992188,3.62695313 0.284179688,3.71777344 C0.940429687,4.22753906 1.81054688,4.875 4.79882812,7.04589844 C5.41699219,7.49707031 6.45996094,8.44628906 7.5,8.44042969 C8.54589844,8.44921875 9.609375,7.47949219 10.2041016,7.04589844 C13.1923828,4.875 14.0595703,4.22460938 14.7158203,3.71484375 Z M7.5,7.5 C8.1796875,7.51171875 9.15820313,6.64453125 9.65039063,6.28710938 C13.5380859,3.46582031 13.8339844,3.21972656 14.7304688,2.51660156 C14.9003906,2.38476563 15,2.1796875 15,1.96289063 L15,1.40625 C15,0.629882813 14.3701172,2.84217094e-14 13.59375,2.84217094e-14 L1.40625,2.84217094e-14 C0.629882813,2.84217094e-14 0,0.629882813 0,1.40625 L0,1.96289063 C0,2.1796875 0.099609375,2.38183594 0.26953125,2.51660156 C1.16601563,3.21679688 1.46191406,3.46582031 5.34960938,6.28710938 C5.84179688,6.64453125 6.8203125,7.51171875 7.5,7.5 Z" id="Shape"></path>
        </g>
    </g>
</svg>