<?xml version="1.0" encoding="UTF-8"?>
<svg width="15px" height="15px" viewBox="0 0 15 15" version="1.1" xmlns="http://www.w3.org/2000/svg" xmlns:xlink="http://www.w3.org/1999/xlink">
    <!-- Generator: Sketch 55.2 (78181) - https://sketchapp.com -->
    <title>icon/15x15/medal</title>
    <desc>Created with Sketch.</desc>
    <g id="icon/15x15/medal" stroke="none" stroke-width="1" fill="none" fill-rule="evenodd">
        <path d="M13.4597216,11.8342722 C13.6171668,12.1712894 13.2857942,12.5323398 12.9374127,12.4044971 L11.2012749,11.7724832 L11.0710238,11.8332186 L10.43901,13.5693312 C10.3120453,13.9187413 9.82415555,13.9413195 9.66650958,13.6029727 L8.4334391,10.9587902 C9.90345519,10.7030796 11.1733783,9.85978399 11.9867201,8.6755075 L13.4597216,11.8342722 Z M7.50003144,1 C10.0384979,1 12.1038759,3.06527765 12.1038759,5.60384444 C12.1038759,8.14241123 10.0384728,10.2076889 7.50003144,10.2076889 C4.96161517,10.2076889 2.896187,8.14241123 2.896187,5.60384444 C2.896187,3.06527765 4.96159008,1 7.50003144,1 Z M9.74013958,5.26557291 C9.98824885,5.0236601 9.85057204,4.60139768 9.50828661,4.55167548 L8.37995386,4.38778287 L7.87530612,3.36541712 C7.72242666,3.0546659 7.27758605,3.05494186 7.12488219,3.36541712 L6.62023445,4.38778287 L5.49190171,4.55167548 C5.1495661,4.60142277 5.0118642,5.0236601 5.25997347,5.26554782 L6.07632573,6.06135393 L5.8834076,7.18534664 C5.82475447,7.52660351 6.18424951,7.78745692 6.49078613,7.62649948 L7.50005653,7.09598716 L8.50932692,7.62652457 C8.81410746,7.7863531 9.17568471,7.5285352 9.11670545,7.18537173 L8.92378732,6.06137902 L9.74013958,5.26557291 Z M3.01336783,8.6755075 C3.82673475,9.85980908 5.09663277,10.7030796 6.56664887,10.9587651 L5.33357839,13.6029476 C5.17560628,13.9419969 4.68779184,13.9179636 4.56107799,13.5692811 L3.92906415,11.8331433 L3.79881305,11.772408 L2.06270039,12.4044218 C1.71655158,12.5319384 1.3821936,12.1728699 1.5403664,11.8342722 L3.01336783,8.6755075 Z" id="Combined-Shape" fill="#FBB040" fill-rule="nonzero"></path>
    </g>
</svg>