<?xml version="1.0" encoding="UTF-8"?>
<svg width="15px" height="15px" viewBox="0 0 15 15" version="1.1" xmlns="http://www.w3.org/2000/svg" xmlns:xlink="http://www.w3.org/1999/xlink">
    <!-- Generator: Sketch 55.2 (78181) - https://sketchapp.com -->
    <title>icon/15x15/phone</title>
    <desc>Created with Sketch.</desc>
    <g id="icon/15x15/phone" stroke="none" stroke-width="1" fill="none" fill-rule="evenodd">
        <g id="phone" fill="#3B3B3B" fill-rule="nonzero">
            <path d="M14.4561404,0.748538012 L11.4152047,0.0467836257 C11.0847953,-0.0292397661 10.745614,0.143274854 10.6111111,0.453216374 L9.20760234,3.72807018 C9.08479532,4.01461988 9.16666667,4.35087719 9.40935673,4.54678363 L11.1812865,5.99707602 C10.128655,8.23976608 8.28947368,10.1052632 6,11.1783626 L4.5497076,9.40643275 C4.35087719,9.16374269 4.01754386,9.08187135 3.73099415,9.20467836 L0.456140351,10.6081871 C0.143274854,10.745614 -0.0292397661,11.0847953 0.0467836257,11.4152047 L0.748538012,14.4561404 C0.821637427,14.7719298 1.10233918,15 1.43274854,15 C8.92105263,15 15,8.93274854 15,1.43274854 C15,1.10526316 14.7748538,0.821637427 14.4561404,0.748538012 Z" id="Path"></path>
        </g>
    </g>
</svg>