<?xml version="1.0" encoding="UTF-8"?>
<svg width="15px" height="15px" viewBox="0 0 15 15" version="1.1" xmlns="http://www.w3.org/2000/svg" xmlns:xlink="http://www.w3.org/1999/xlink">
    <!-- Generator: Sketch 55.2 (78181) - https://sketchapp.com -->
    <title>icon/15x15/search</title>
    <desc>Created with Sketch.</desc>
    <g id="icon/15x15/search" stroke="none" stroke-width="1" fill="none" fill-rule="evenodd">
        <path d="M14.7719348,13.6626233 C15.0847632,13.9767581 15.0743992,14.4775831 14.7492977,14.7796054 C14.5962928,14.9217955 14.3947407,15 14.1822793,15 C13.9578175,15 13.7483561,14.913896 13.5926238,14.7577502 L9.86677535,11.0165713 C8.80883186,11.7343679 7.57142799,12.1124882 6.27293123,12.1124882 C2.8140915,12.1124882 1.33226763e-14,9.3956044 1.33226763e-14,6.05624408 C1.33226763e-14,2.71688376 2.8140915,-2.57571742e-14 6.27293123,-2.57571742e-14 C9.73177096,-2.57571742e-14 12.5458625,2.71688376 12.5458625,6.05624408 C12.5458625,7.48551768 12.0249364,8.85844188 11.0741782,9.94961907 L14.7719348,13.6626233 Z M6.27293123,1.57988976 C3.71630265,1.57988976 1.63641684,3.58792964 1.63641684,6.05624408 C1.63641684,8.52455851 3.71630265,10.5325984 6.27293123,10.5325984 C8.82955981,10.5325984 10.9094456,8.52455851 10.9094456,6.05624408 C10.9094456,3.58792964 8.82955981,1.57988976 6.27293123,1.57988976 Z" id="Combined-Shape" fill="#3B3B3B" fill-rule="nonzero"></path>
    </g>
</svg>