<?xml version="1.0" encoding="UTF-8"?>
<svg width="110px" height="50px" viewBox="0 0 110 50" version="1.1" xmlns="http://www.w3.org/2000/svg" xmlns:xlink="http://www.w3.org/1999/xlink">
    <!-- Generator: Sketch 53.2 (72643) - https://sketchapp.com -->
    <title>siseministeerium_logo</title>
    <desc>Created with Sketch.</desc>
    <g id="Symbols" stroke="none" stroke-width="1" fill="none" fill-rule="evenodd">
        <g id="components/footer" transform="translate(-1119.000000, -50.000000)" fill-rule="nonzero">
            <g id="logod" transform="translate(883.000000, 50.000000)">
                <g id="siseministeerium_logo" transform="translate(236.000000, 0.000000)">
                    <path d="M10.912,40.7720588 C10.9138013,40.8674059 10.9389869,40.9608419 10.9853333,41.0441176 C11.1690627,40.8567737 11.3994955,40.7222067 11.6526667,40.6544118 C11.7615094,40.2659723 12.1156009,39.9981892 12.518,40 L12.6206667,40 C12.2826996,40.0998484 12.0111374,40.3530765 11.8873333,40.6838235 C11.7299678,40.7384536 11.6063317,40.8625059 11.551956,41.0203299 C11.4975804,41.1781539 11.5184866,41.3522726 11.6086667,41.4926471 C11.8066679,41.2791177 12.0609171,41.1261603 12.342,41.0514706 C12.4243363,40.6517175 12.7579015,40.3530951 13.1633333,40.3161765 C12.7948375,40.4682442 12.5544148,40.8283904 12.5546667,41.2279412 C12.5533518,41.370024 12.5834032,41.5106389 12.6426667,41.6397059 C12.7082201,41.4055552 12.9207821,41.2434561 13.1633333,41.2426471 C13.2217873,41.2355626 13.2808794,41.2355626 13.3393333,41.2426471 C13.4166224,41.2720972 13.498652,41.2870515 13.5813333,41.2867647 C13.9863421,41.2867647 14.3146667,40.9575623 14.3146667,40.5514706 C14.3137984,40.4740863 14.3014406,40.3972632 14.278,40.3235294 C14.474296,40.3796431 14.6092374,40.560046 14.608,40.7647059 C14.6096132,40.854719 14.5812252,40.9426983 14.5273333,41.0147059 C14.580867,41.0219721 14.635133,41.0219721 14.6886667,41.0147059 C15.1496463,41.0148103 15.5389946,40.6716454 15.598,40.2132353 C15.833046,40.0809519 16.0418469,39.906486 16.214,39.6985294 L16.3386667,40.3088235 C16.3460072,40.3476939 16.3460072,40.3876003 16.3386667,40.4264706 C16.3255204,40.4678814 16.3029217,40.5056466 16.2726667,40.5367647 L16.786,40.0073529 C16.816255,39.9762349 16.8388537,39.9384696 16.852,39.8970588 C16.8628874,39.8561072 16.8628874,39.8130105 16.852,39.7720588 L16.7053333,39.0367647 C16.6979928,38.9978944 16.6979928,38.957988 16.7053333,38.9191176 C16.7184796,38.8777069 16.7410783,38.8399416 16.7713333,38.8088235 L17.1746667,38.3970588 C17.1457989,38.4251218 17.125457,38.4608155 17.116,38.5 C17.1051126,38.5409516 17.1051126,38.5840484 17.116,38.625 L17.27,39.3602941 C17.2812401,39.4011987 17.2812401,39.4443895 17.27,39.4852941 C17.260543,39.5244787 17.2402011,39.5601723 17.2113333,39.5882353 L17.6733333,39.1102941 C17.6998272,39.0804527 17.7198098,39.0453897 17.732,39.0073529 C17.7428874,38.9664013 17.7428874,38.9233046 17.732,38.8823529 L17.578,38.1470588 C17.5667599,38.1061543 17.5667599,38.0629634 17.578,38.0220588 C17.587457,37.9828743 17.6077989,37.9471807 17.6366667,37.9191176 L18.04,37.5 C18.0105763,37.530565 17.9902566,37.5687663 17.9813333,37.6102941 C17.9739928,37.6491645 17.9739928,37.6890708 17.9813333,37.7279412 L18.1353333,38.4632353 C18.142597,38.5045837 18.142597,38.5468869 18.1353333,38.5882353 C18.1204021,38.6266199 18.0979616,38.6616207 18.0693333,38.6911765 L18.5313333,38.2132353 C18.5591614,38.1815345 18.5792471,38.1437731 18.59,38.1029412 C18.6012401,38.0620366 18.6012401,38.0188457 18.59,37.9779412 L18.5166667,37.6176471 C18.5220131,37.2292213 18.772222,36.8868467 19.14,36.7647059 C19.1783965,36.6869787 19.1984685,36.601445 19.1986667,36.5147059 C19.1986667,36.1029412 18.7073333,35.7794118 18.0913333,35.7794118 C17.8199336,35.7776868 17.5533793,35.8515034 17.3213333,35.9926471 C17.402,36.2279412 17.424,36.4705882 16.6393333,36.5808824 C16.0689576,36.6117324 15.5193081,36.8056447 15.0553333,37.1397059 C14.41,37.6838235 14.4613333,38.4191176 14.102,38.6911765 C14.2955599,38.7307924 14.4951068,38.7307924 14.6886667,38.6911765 C14.8212525,38.6648865 14.949578,38.6203474 15.07,38.5588235 C14.970924,38.7186194 14.8211096,38.8403453 14.6446667,38.9044118 C14.5471049,39.1930687 14.3226982,39.4207864 14.036,39.5220588 C13.8591216,39.5760712 13.6702118,39.5760712 13.4933333,39.5220588 L12.76,39.3088235 C12.6676558,39.278781 12.57108,39.2638835 12.474,39.2647059 C11.9204257,39.2722373 11.4586932,39.6911123 11.396,40.2426471 C11.1309181,40.2825996 10.9346444,40.5106359 10.934,40.7794118 L10.912,40.7720588 Z M18.3333333,11.0294118 C18.7606229,10.6016713 19.2563761,10.2487454 19.8,9.98529412 C19.7893235,9.91955058 19.7893235,9.85250825 19.8,9.78676471 L19.8,9.78676471 C17.5046667,10.1691176 15.444,11.3455882 13.5813333,11.3382353 C13.0606667,11.3382353 12.65,11.1323529 12.584,10.8014706 C12.5694545,10.7360977 12.5694545,10.6683141 12.584,10.6029412 C12.6090179,10.468987 12.7267672,10.3726715 12.8626667,10.375 C13.0189926,10.378872 13.144805,10.5050208 13.1486667,10.6617647 C13.148386,10.735909 13.1194748,10.8070625 13.068,10.8602941 L13.2,10.8602941 C13.3386271,10.8626861 13.4768922,10.8453567 13.6106667,10.8088235 C13.8323001,10.739408 13.9718043,10.5199669 13.9409979,10.2892098 C13.9101915,10.0584528 13.7180387,9.88352536 13.486,9.875 L13.442,9.875 C13.5090742,9.8456775 13.5814948,9.83065388 13.6546667,9.83088235 C13.8011376,9.82888394 13.9421933,9.88634319 14.0457735,9.99020035 C14.1493537,10.0940575 14.2066597,10.2354903 14.2046667,10.3823529 L14.2046667,10.4264706 C14.958719,10.3255333 15.6499151,9.9515509 16.148,9.375 C15.8783506,9.43496974 15.6028663,9.46456483 15.3266667,9.46323529 C15.012324,9.46678907 14.6989742,9.42720637 14.3953333,9.34558824 C14.0338784,9.24805904 13.6621828,9.19375992 13.288,9.18382353 C12.3856013,9.09777233 11.5804129,9.75149 11.4766667,10.6544118 C11.525429,11.3773734 12.0734812,11.9668001 12.7893333,12.0661765 C14.5273333,12.4264706 16.5733333,11.3897059 18.304,11.0294118 L18.3333333,11.0294118 Z M8.52866667,13.4044118 C8.57646159,13.1624418 8.5937081,12.9154043 8.58,12.6691176 L8.36733333,12.9264706 C8.33735689,12.8534145 8.30307416,12.7822104 8.26466667,12.7132353 C8.26466667,12.6691176 8.22066667,12.6397059 8.19133333,12.6397059 L8.12533333,12.6397059 L7.94933333,12.6397059 L7.89066667,12.6397059 C7.89066667,12.6397059 7.83933333,12.6397059 7.81733333,12.7132353 C7.77892584,12.7822104 7.74464311,12.8534145 7.71466667,12.9264706 L7.49466667,12.6691176 C7.48737025,12.9156287 7.50704327,13.1621991 7.55333333,13.4044118 C7.87580475,13.3456652 8.20619525,13.3456652 8.52866667,13.4044118 L8.52866667,13.4044118 Z M8.624,14.0661765 C8.624,13.7867647 8.338,13.6911765 8.03733333,13.6911765 C7.73666667,13.6911765 7.42866667,13.7867647 7.45066667,14.0661765 C7.47266667,14.3455882 7.80266667,14.2426471 8.03733333,14.25 C8.272,14.2573529 8.59466667,14.4044118 8.624,14.0661765 L8.624,14.0661765 Z M9.46733333,12.0588235 C9.41390308,12.0689927 9.37444496,12.1146431 9.372,12.1691176 C9.37969751,12.4136519 9.22367545,12.6332685 8.99066667,12.7058824 C8.99276989,13.0080738 8.94570776,13.3085866 8.85133333,13.5955882 C9.108,14.125 8.91,14.4926471 8.712,14.5735294 C8.514,14.6544118 8.26466667,14.5735294 8.04466667,14.5735294 C7.82466667,14.5735294 7.568,14.6764706 7.37,14.5735294 C7.172,14.4705882 6.974,14.125 7.22333333,13.5955882 C7.1360267,13.306919 7.08913416,13.0074892 7.084,12.7058824 C6.8523264,12.6327482 6.69878932,12.4123918 6.71,12.1691176 C6.70640256,12.1097621 6.65919724,12.0624306 6.6,12.0588235 C6.27334229,11.9810588 6.0115623,11.7367412 5.91082075,11.415617 C5.8100792,11.0944927 5.8852296,10.743909 6.10866667,10.4926471 C6.06466667,10.9632353 6.028,11.6176471 6.98133333,11.7058824 C6.98133333,12.25 7.20133333,12.3970588 7.44333333,12.3970588 C7.56929835,12.4052573 7.69473452,12.3744561 7.80266667,12.3088235 C7.97866667,12.2132353 7.86133333,12.0735294 7.80266667,12.0294118 C7.67820936,11.9224387 7.61960549,11.7573495 7.64866667,11.5955882 C7.64866667,11.5955882 7.64866667,11.5514706 7.64866667,11.5514706 L8.294,11.5514706 C8.294,11.5514706 8.294,11.5514706 8.338,11.5955882 C8.36706117,11.7573495 8.3084573,11.9224387 8.184,12.0294118 C8.14,12.0735294 8.01533333,12.2132353 8.184,12.3088235 C8.29135646,12.3758384 8.41724185,12.4067499 8.54333333,12.3970588 C8.78533333,12.3970588 9.02,12.25 9.00533333,11.7058824 C9.95866667,11.6176471 9.91466667,10.9705882 9.878,10.4926471 C10.1014371,10.743909 10.1765875,11.0944927 10.0758459,11.415617 C9.97510436,11.7367412 9.71332438,11.9810588 9.38666667,12.0588235 L9.46733333,12.0588235 Z M9.64333333,10.2426471 C9.64333333,10.4852941 9.46733333,10.75 9.26933333,10.75 L9.16666667,10.75 C9.2172654,10.8062259 9.24362779,10.880238 9.24,10.9558824 C9.24,11.1305018 9.09882046,11.2720588 8.92466667,11.2720588 C8.79967717,11.276097 8.6841178,11.205695 8.63010621,11.0926045 C8.57609461,10.979514 8.59383772,10.8451064 8.67533333,10.75 L8.48466667,10.75 C8.41685528,10.7484424 8.35531403,10.7895796 8.33066667,10.8529412 C8.30856966,10.7611216 8.30856966,10.665349 8.33066667,10.5735294 C8.34951333,10.4891069 8.42071264,10.4266409 8.50666667,10.4191176 L9.35,10.4191176 C9.49566966,10.4237976 9.63474754,10.3581742 9.724,10.2426471 L9.64333333,10.2426471 Z M9.614,9.84558824 L9.32066667,9.84558824 C9.19291153,9.84739219 9.07134946,9.79051154 8.99066667,9.69117647 L8.66066667,9.25 C8.61501626,9.1871555 8.55454813,9.13663066 8.48466667,9.10294118 L8.8,9.10294118 C8.90215248,9.10164784 8.99829731,9.15122597 9.05666667,9.23529412 L9.40866667,9.67647059 C9.482,9.77205882 9.51133333,9.83088235 9.59933333,9.84558824 L9.614,9.84558824 Z M8.074,9.11029412 L8.49933333,9.71323529 C8.55172147,9.79778157 8.62842254,9.86443356 8.71933333,9.90441176 L8.33066667,9.90441176 C8.20378203,9.90555065 8.08610644,9.83812766 8.02266667,9.72794118 L7.69266667,9.20588235 C7.62325767,9.06988518 7.50550337,8.96493483 7.36266667,8.91176471 L7.72933333,8.91176471 C7.86851548,8.92141437 7.99557416,8.99460069 8.074,9.11029412 L8.074,9.11029412 Z M7.106,9.22058824 L7.45066667,9.66176471 C7.53133333,9.75735294 7.55333333,9.81617647 7.64866667,9.83088235 L7.35533333,9.83088235 C7.2273422,9.83380137 7.10531538,9.77670326 7.02533333,9.67647059 L6.688,9.23529412 C6.64671739,9.17132138 6.58824983,9.12034408 6.51933333,9.08823529 L6.84933333,9.08823529 C6.95148581,9.08694196 7.04763065,9.13652009 7.106,9.22058824 L7.106,9.22058824 Z M6.89333333,10.7352941 L6.72466667,10.7352941 C6.52666667,10.7352941 6.35066667,10.4705882 6.35066667,10.2279412 C6.44297262,10.34369 6.58426652,10.409077 6.732,10.4044118 L7.568,10.4044118 C7.65674202,10.408808 7.73169708,10.4719386 7.75133333,10.5588235 C7.76613409,10.6513696 7.76613409,10.7456892 7.75133333,10.8382353 C7.72245917,10.7750656 7.65930078,10.7347664 7.59,10.7352941 L7.39933333,10.7352941 C7.44993206,10.7915201 7.47629446,10.8655321 7.47266667,10.9411765 C7.47266667,11.1157959 7.33148712,11.2573529 7.15733333,11.2573529 C7.03234384,11.2613911 6.91678447,11.1909891 6.86277287,11.0778987 C6.80876128,10.9648082 6.82650439,10.8304006 6.908,10.7352941 L6.89333333,10.7352941 Z M5.86666667,14.75 L5.962,14.5514706 C5.97193552,14.5128876 5.97193552,14.4724065 5.962,14.4338235 C5.97300274,14.3953837 5.97300274,14.3546163 5.962,14.3161765 L6.24066667,14.8161765 C6.24737281,14.8551039 6.24737281,14.8948961 6.24066667,14.9338235 C6.25166941,14.9722633 6.25166941,15.0130308 6.24066667,15.0514706 L6.24066667,15.1029412 C6.019241,15.5044615 5.96393804,15.9771138 6.08666667,16.4191176 C5.73948991,16.3105035 5.52415443,15.9631681 5.58066667,15.6029412 C4.80333333,14.8676471 4.61266667,14.1323529 5.16266667,13.4926471 L5.44866667,13.1617647 C5.47649476,13.1300639 5.49658043,13.0923025 5.50733333,13.0514706 C5.51822072,13.0105189 5.51822072,12.9674222 5.50733333,12.9264706 L5.66133333,13.4779412 C5.66875074,13.519276 5.66875074,13.5616064 5.66133333,13.6029412 C5.6536503,13.6449137 5.63314959,13.6834553 5.60266667,13.7132353 L5.522,13.8161765 C5.22866667,14.1544118 5.30933333,14.6102941 5.764,15.0220588 C5.78826173,14.9279016 5.82268726,14.8366765 5.86666667,14.75 L5.86666667,14.75 Z M24.9333333,16.8308824 C24.9658905,16.7540761 24.9833219,16.6716801 24.9846667,16.5882353 C24.9807045,16.2406553 24.7006531,15.9598551 24.354,15.9558824 L23.716,15.9558824 C23.6776627,15.9669145 23.637004,15.9669145 23.5986667,15.9558824 C23.5611553,15.9395206 23.530179,15.9110497 23.5106667,15.875 L23.188,15.4044118 C23.2106319,15.440643 23.2439512,15.4689116 23.2833333,15.4852941 C23.3215462,15.4971805 23.3624538,15.4971805 23.4006667,15.4852941 L24.2,15.4852941 C24.2386679,15.4769446 24.2786655,15.4769446 24.3173333,15.4852941 C24.3552677,15.503974 24.3880147,15.5317572 24.4126667,15.5661765 L24.024,15.0073529 C24.0025765,14.9709558 23.9723001,14.9405984 23.936,14.9191176 C23.8971764,14.9123936 23.8574903,14.9123936 23.8186667,14.9191176 L22.9826667,14.9191176 C22.9441865,14.9290797 22.9038135,14.9290797 22.8653333,14.9191176 C22.8278219,14.9027558 22.7968456,14.874285 22.7773333,14.8382353 L22.4106667,14.3088235 C22.4370206,14.3416225 22.4693777,14.3690747 22.506,14.3897059 C22.5443373,14.400738 22.584996,14.400738 22.6233333,14.3897059 L23.4666667,14.3897059 C23.505004,14.3786737 23.5456627,14.3786737 23.584,14.3897059 C23.6206223,14.4103371 23.6529794,14.4377893 23.6793333,14.4705882 L23.2833333,13.9705882 C23.2594038,13.9382553 23.2295353,13.9108026 23.1953333,13.8897059 C23.1541232,13.8821078 23.1118768,13.8821078 23.0706667,13.8897059 L22.4106667,13.8897059 C22.3723294,13.900738 22.3316706,13.900738 22.2933333,13.8897059 C22.2550454,13.8715723 22.2221731,13.8436828 22.198,13.8088235 L21.758,13.1544118 C22.5847512,13.1228611 23.2976975,12.5622505 23.5253333,11.7647059 C23.716,10.8897059 22.8433333,10.0441176 21.5893333,9.86029412 C21.3917305,9.83344399 21.2380216,9.67465845 21.2171465,9.47581482 C21.1962714,9.27697119 21.3136373,9.08957517 21.5013333,9.02205882 C21.363011,8.95950057 21.213075,8.92692757 21.0613333,8.92647059 C20.5399361,8.89707614 20.0919969,9.29375913 20.0566667,9.81617647 C20.0559036,9.90390581 20.0708052,9.99106404 20.1006667,10.0735294 C19.4726556,10.3678449 18.9187502,10.8000914 18.48,11.3382353 C18.9581963,11.2092028 19.4514619,11.1449068 19.9466667,11.1470588 C19.9430522,11.122683 19.9430522,11.0979052 19.9466667,11.0735294 C19.9466667,10.6958641 20.2520085,10.3897059 20.6286667,10.3897059 L20.6286667,10.3897059 C20.413479,10.4816198 20.2666983,10.685398 20.2473333,10.9191176 C20.2512288,11.1124007 20.4065657,11.2681529 20.5993333,11.2720588 C20.6727029,11.2702716 20.7439994,11.2472936 20.8046667,11.2058824 C20.7976229,11.1595815 20.7976229,11.1124773 20.8046667,11.0661765 C20.8046667,10.794095 21.0246441,10.5735294 21.296,10.5735294 L21.362,10.5735294 C21.1211591,10.6766105 20.9880872,10.9374376 21.0456555,11.1935798 C21.1032237,11.4497219 21.3350092,11.6281079 21.5966667,11.6176471 L21.6846667,11.6176471 C21.6810268,11.5834304 21.6810268,11.5489226 21.6846667,11.5147059 C21.6846667,11.2994773 21.8586787,11.125 22.0733333,11.125 C22.287988,11.125 22.462,11.2994773 22.462,11.5147059 C22.462,11.9852941 21.9413333,12.0294118 21.56,11.9191176 C20.5662076,11.6011963 19.517426,11.4935339 18.48,11.6029412 C17.2186667,11.7867647 15.158,12.6397059 12.9653333,12.5661765 C12.4370407,12.5463358 11.9128468,12.4649055 11.4033333,12.3235294 C11.4530625,12.3745163 11.499596,12.4285412 11.5426667,12.4852941 C11.7766687,12.8120439 11.813266,13.2410946 11.638,13.6029412 C11.5819478,13.1299669 11.3113374,12.7093992 10.9046667,12.4632353 C10.7653333,12.3676471 10.714,12.2720588 10.736,12.1470588 L10.8313333,11.5808824 C10.8207114,11.6193749 10.8207114,11.6600368 10.8313333,11.6985294 C10.8402566,11.7400572 10.8605763,11.7782585 10.89,11.8088235 L11.1026667,12.0147059 C11.1847418,11.4500999 11.0454348,10.8755696 10.714,10.4117647 C10.862814,10.016984 10.8883896,9.58616428 10.7873333,9.17647059 C10.7709216,9.39862091 10.6441436,9.59758661 10.45,9.70588235 C10.3371143,9.76258533 10.2539619,9.8651796 10.2216918,9.98757119 C10.1894217,10.1099628 10.2111438,10.2403567 10.2813333,10.3455882 C10.054,10.2352941 9.746,9.81617647 9.922,9.56617647 C10.098,9.31617647 10.6553333,9.42647059 10.714,8.97794118 C10.4499349,8.90571893 10.1713984,8.90571893 9.90733333,8.97794118 C9.70188406,8.74552475 9.40276688,8.61853288 9.09333333,8.63235294 C8.81266463,8.38411884 8.43654734,8.27367569 8.06666667,8.33088235 C7.69685498,8.27471282 7.32116859,8.38502943 7.04,8.63235294 C6.73289916,8.61971539 6.4365069,8.74669433 6.23333333,8.97794118 C5.96926825,8.90571893 5.69073175,8.90571893 5.42666667,8.97794118 C5.49266667,9.42647059 6.02066667,9.30882353 6.21866667,9.56617647 C6.41666667,9.82352941 6.05733333,10.2941176 5.86666667,10.3676471 C5.93635307,10.261473 5.95698407,10.130322 5.92327387,10.0077958 C5.88956367,9.88526962 5.80478791,9.78327411 5.69066667,9.72794118 C5.49934298,9.61785378 5.37551928,9.41920613 5.36066667,9.19852941 C5.25726673,9.60748179 5.2802841,10.0382881 5.42666667,10.4338235 C5.09780613,10.8986803 4.96114917,11.4731201 5.04533333,12.0367647 L5.25066667,11.8308824 C5.28188399,11.8005186 5.30463706,11.7624954 5.31666667,11.7205882 C5.32766941,11.6821484 5.32766941,11.641381 5.31666667,11.6029412 L5.41933333,12.1691176 C5.41933333,12.2941176 5.41933333,12.3897059 5.25066667,12.4852941 C4.84709443,12.7346444 4.57755805,13.1535429 4.51733333,13.625 C4.33378891,13.2658411 4.35905874,12.8351054 4.58333333,12.5 C4.1207304,12.2307382 3.7067072,11.8852107 3.35866667,11.4779412 C3.19488428,11.2603508 3.19488428,10.9602374 3.35866667,10.7426471 C3.70333333,10.2573529 3.784,9.74264706 3.35866667,9.38235294 C3.36228109,9.3579771 3.36228109,9.33319937 3.35866667,9.30882353 C3.36085744,8.98982448 3.13576342,8.71466101 2.82333333,8.65441176 C2.88417912,8.74322133 2.91735872,8.84814446 2.91866667,8.95588235 C2.91924354,9.08100057 2.87792669,9.20269333 2.80133333,9.30147059 C2.9537083,9.50202916 2.92137023,9.78736512 2.728,9.94852941 C2.73522223,9.89731353 2.73522223,9.84533353 2.728,9.79411765 C2.72899685,9.48641726 2.53880507,9.21063526 2.25133333,9.10294118 C2.21017853,8.92033033 2.07589482,8.7730921 1.89816731,8.71570478 C1.72043981,8.65831747 1.52569931,8.69931544 1.386,8.82352941 C1.58254346,8.8401226 1.73956274,8.99447467 1.76,9.19117647 C1.66494822,9.26483948 1.58940086,9.36078866 1.54,9.47058824 L1.54,9.47058824 C1.70781897,9.46057786 1.87255541,9.5189605 1.99682591,9.63248747 C2.1210964,9.74601443 2.19436321,9.905059 2.2,10.0735294 C2.2,10.1102941 2.2,10.1544118 2.2,10.1911765 C2.17589748,10.0518042 2.10928253,9.92335597 2.00933333,9.82352941 C1.81355813,9.63579217 1.52477689,9.58367256 1.276,9.69117647 C1.17774569,9.56808288 1.02988695,9.4953036 0.872666667,9.49264706 C0.69160834,9.48969637 0.523183873,9.58539209 0.432666667,9.74264706 C0.612846888,9.75106274 0.779743294,9.84013222 0.887333333,9.98529412 C0.618531225,10.2951839 0.618531225,10.7562866 0.887333333,11.0661765 C1.07951505,11.2601855 1.37091203,11.3156989 1.62066667,11.2058824 L1.672,11.2058824 C1.73923888,11.1915905 1.80840124,11.219638 1.84682592,11.2767796 C1.88525061,11.3339213 1.88525061,11.4087258 1.84682592,11.4658674 C1.80840124,11.5230091 1.73923888,11.5510566 1.672,11.5367647 C1.63331384,11.5362122 1.59641247,11.520355 1.56933333,11.4926471 C1.5057458,11.4391103 1.42502052,11.4103893 1.342,11.4117647 C1.14354568,11.4117647 0.982666667,11.5730739 0.982666667,11.7720588 L0.982666667,11.8161765 C0.948863939,11.8237746 0.913802727,11.8237746 0.88,11.8161765 C0.785887841,11.819996 0.694809527,11.7823929 0.630666667,11.7132353 C0.62355043,11.7545965 0.62355043,11.7968741 0.630666667,11.8382353 C0.629627409,12.0899314 0.820678875,12.3006499 1.07066667,12.3235294 C1.18574463,12.6246608 1.48308458,12.8154672 1.804,12.7941176 C1.9593394,12.7946723 2.11084194,12.7457529 2.23666667,12.6544118 C2.33764601,12.5827347 2.47012791,12.5737133 2.57984526,12.6310428 C2.6895626,12.6883723 2.75808074,12.8024203 2.75733333,12.9264706 C2.75776254,13.0812271 2.65115201,13.2156101 2.50066667,13.25 L2.244,13.3088235 C2.20320451,13.3200937 2.16012882,13.3200937 2.11933333,13.3088235 C2.03872159,13.3185526 1.95800086,13.2915737 1.89933333,13.2352941 L2.49333333,13.7941176 C2.52281032,13.8228224 2.5577178,13.845323 2.596,13.8602941 L2.72066667,13.8602941 L3.20466667,13.75 C3.24550911,13.7390835 3.28849089,13.7390835 3.32933333,13.75 C3.36841338,13.7594823 3.40401182,13.7798786 3.432,13.8088235 L3.83533333,14.1911765 C3.80557151,14.1646118 3.77060199,14.1445758 3.73266667,14.1323529 C3.69142852,14.1250698 3.64923814,14.1250698 3.608,14.1323529 L3.124,14.2352941 C3.08566271,14.2463263 3.04500395,14.2463263 3.00666667,14.2352941 C2.9804619,14.2269432 2.95571914,14.2145387 2.93333333,14.1985294 L3.476,14.7058824 C3.50547699,14.7345871 3.54038447,14.7570877 3.57866667,14.7720588 C3.61989123,14.7794961 3.66210877,14.7794961 3.70333333,14.7720588 L4.15066667,14.7058824 L4.268,14.7058824 C4.31129014,14.694675 4.35670986,14.694675 4.4,14.7058824 L4.80333333,15.0955882 C4.77534515,15.0666433 4.73974671,15.046247 4.70066667,15.0367647 C4.65982422,15.0258482 4.61684244,15.0258482 4.576,15.0367647 L4.092,15.1470588 C4.05115756,15.1579753 4.00817578,15.1579753 3.96733333,15.1470588 C3.92825329,15.1375766 3.89265485,15.1171802 3.86466667,15.0882353 L4.4,15.6029412 C4.43340459,15.6281467 4.47051444,15.6479915 4.51,15.6617647 C4.55084244,15.6726812 4.59382422,15.6726812 4.63466667,15.6617647 L5.214,15.5367647 C4.64933333,15.8602941 4.048,16.2205882 3.41,16.625 C3.03216643,16.8736353 2.55412348,16.9124242 2.14133333,16.7279412 C1.90875578,16.6346845 1.65523359,16.6067225 1.408,16.6470588 C1.18463703,16.6855022 0.989128819,16.81977 0.872666667,17.0147059 C0.963104336,16.9760761 1.06036484,16.9560719 1.15866667,16.9558824 C1.36335731,16.9525842 1.56010498,17.0352259 1.70133333,17.1838235 C1.46485493,17.0953321 1.2044784,17.0953321 0.968,17.1838235 C0.524922162,17.3148961 0.248349984,17.7560738 0.322666667,18.2132353 C0.140820147,18.28345 0.0211614606,18.4590285 0.022,18.6544118 C0.020178581,18.7815525 0.0705598155,18.9038543 0.161333333,18.9926471 C0.210929992,18.7789716 0.397329875,18.6252327 0.616,18.6176471 C0.715053457,18.678694 0.824408809,18.7210579 0.938666667,18.7426471 C0.974759942,18.6826983 1.01920889,18.6282265 1.07066667,18.5808824 C1.06679437,18.5417628 1.06679437,18.5023549 1.07066667,18.4632353 C1.06273987,18.2545331 1.13789896,18.0512347 1.2795818,17.8981391 C1.42126464,17.7450435 1.61784347,17.6547151 1.826,17.6470588 L1.936,17.6470588 C1.58948505,17.7240848 1.33901038,18.0266684 1.32733333,18.3823529 C1.32335105,18.428836 1.32335105,18.4755758 1.32733333,18.5220588 C1.17824742,18.5812509 1.06664477,18.7087152 1.02741275,18.864606 C0.988180717,19.0204968 1.02610611,19.1857934 1.12933333,19.3088235 C1.26305418,19.0390431 1.52677255,18.8581217 1.826,18.8308824 C1.94319015,18.8628917 2.06389206,18.880181 2.18533333,18.8823529 C2.26337303,18.8899302 2.3419603,18.8899302 2.42,18.8823529 C2.3105753,18.6954296 2.30823696,18.464338 2.4138567,18.275227 C2.51947644,18.0861161 2.7172059,17.967362 2.93333333,17.9632353 L3.014,17.9632353 C2.69133333,18.1029412 2.49333333,18.3823529 2.56666667,18.6397059 C2.63168687,18.8336386 2.80369584,18.9716137 3.00666667,18.9926471 C2.99951081,19.1235584 2.9645052,19.2514198 2.904,19.3676471 C3.1805093,19.3417737 3.42430262,19.1751066 3.54933333,18.9264706 C3.84908181,18.845499 4.04719554,18.5599491 4.01866667,18.25 C3.99521091,18.1545086 3.93785537,18.0708593 3.85733333,18.0147059 L3.85733333,18.0147059 C3.88161026,17.8527798 4.02035785,17.7330114 4.18366667,17.7330114 C4.34697548,17.7330114 4.48572308,17.8527798 4.51,18.0147059 C4.50891348,18.0966231 4.47755716,18.1752235 4.422,18.2352941 L5.13333333,18.2352941 C5.17181346,18.2452562 5.21218654,18.2452562 5.25066667,18.2352941 C5.28817807,18.2189323 5.31915437,18.1904615 5.33866667,18.1544118 L5.77866667,17.5073529 L5.83733333,17.4485294 C5.86412105,17.4452218 5.89121229,17.4452218 5.918,17.4485294 L6.45333333,17.4485294 C6.42661252,17.4442662 6.39938748,17.4442662 6.37266667,17.4485294 L6.314,17.5073529 L5.874,18.1544118 C5.85136808,18.190643 5.81804884,18.2189116 5.77866667,18.2352941 C5.74045385,18.2471805 5.69954615,18.2471805 5.66133333,18.2352941 L6.45333333,18.2352941 C6.49167062,18.2463263 6.53232938,18.2463263 6.57066667,18.2352941 C6.60895455,18.2171605 6.64182688,18.1892711 6.666,18.1544118 L7.15,17.4191176 C6.81900834,17.2207602 6.63300117,16.8477511 6.67333333,16.4632353 C6.71586424,16.1921447 6.77712276,15.9243434 6.85666667,15.6617647 L6.85666667,15.5808824 C6.86766941,15.5424426 6.86766941,15.5016751 6.85666667,15.4632353 C6.8415872,15.4242474 6.82189049,15.3872173 6.798,15.3529412 L7.216,15.7867647 C7.24444097,15.813635 7.26692767,15.8462027 7.282,15.8823529 C7.2889747,15.9237262 7.2889747,15.9659797 7.282,16.0073529 L7.282,16.1029412 C7.282,16.2794118 7.04733333,16.6470588 7.44333333,16.9779412 L7.56066667,17.0661765 L7.83933333,17.2426471 L7.83933333,16.1764706 L8.23533333,16.1764706 L8.23533333,17.3382353 C8.22471139,17.3767279 8.22471139,17.4173898 8.23533333,17.4558824 C8.25418677,17.4917747 8.28197481,17.5221699 8.316,17.5441176 L8.70466667,17.7941176 C8.74099364,17.8139718 8.7808622,17.826464 8.822,17.8308824 C8.8607971,17.83791 8.90053623,17.83791 8.93933333,17.8308824 L9.67266667,17.5220588 L9.548,17.5220588 C9.50585427,17.517299 9.46554173,17.5021413 9.43066667,17.4779412 L8.63866667,16.9117647 C9.03466667,16.5808824 8.81466667,16.2132353 8.8,16.0367647 L8.8,15.9411765 C8.79288376,15.8998153 8.79288376,15.8575377 8.8,15.8161765 C8.81777405,15.7796866 8.84271748,15.7471734 8.87333333,15.7205882 L9.29133333,15.2867647 C9.26190965,15.3173298 9.24158998,15.355531 9.23266667,15.3970588 C9.22166393,15.4354986 9.22166393,15.4762661 9.23266667,15.5147059 L9.23266667,15.5955882 C9.23266667,15.8897059 9.55533333,16.4117647 9.31333333,16.7058824 L10.0466667,17.1838235 C10.0814992,17.2070083 10.1221994,17.2197611 10.164,17.2205882 C10.2044715,17.2340477 10.2481952,17.2340477 10.2886667,17.2205882 L11.022,16.8970588 C10.9486667,16.9362745 10.8606667,16.9362745 10.7873333,16.8970588 L9.97333333,16.3823529 C10.1014991,15.9569922 10.0511829,15.497625 9.834,15.1102941 L9.834,15.0588235 C9.82629451,15.0199884 9.82629451,14.9800116 9.834,14.9411765 C9.82406448,14.9025935 9.82406448,14.8621124 9.834,14.8235294 L10.1126667,14.3235294 C10.1016639,14.3619692 10.1016639,14.4027367 10.1126667,14.4411765 C10.1056578,14.4800773 10.1056578,14.5199227 10.1126667,14.5588235 L10.2153333,14.7573529 C10.2694485,14.8427446 10.3137314,14.934014 10.3473333,15.0294118 C10.802,14.6176471 10.9046667,14.2205882 10.6113333,13.8897059 L10.5233333,13.7867647 C10.5003463,13.7530482 10.4830068,13.7157929 10.472,13.6764706 C10.4647363,13.6351222 10.4647363,13.592819 10.472,13.5514706 L10.626,13 C10.6149973,13.0384398 10.6149973,13.0792073 10.626,13.1176471 C10.633683,13.1596195 10.6541837,13.1981611 10.6846667,13.2279412 L10.9706667,13.5588235 C11.5206667,14.1911765 11.1833333,14.9926471 10.5233333,15.6102941 C10.5709125,15.7597655 10.5859175,15.91774 10.5673333,16.0735294 L11.4473333,16.625 C11.4815499,16.6504373 11.5222058,16.665724 11.5646667,16.6691176 C11.6034638,16.6761453 11.6432029,16.6761453 11.682,16.6691176 L12.32,16.3897059 C12.2787899,16.397304 12.2365434,16.397304 12.1953333,16.3897059 C12.0333298,16.3897059 11.902,16.2580249 11.902,16.0955882 C11.9016348,15.9656124 11.9843922,15.850035 12.1073333,15.8088235 C14.5273333,15.0735294 16.7566667,13.1691176 18.216,13.1691176 C18.9493333,13.1691176 19.5066667,13.6029412 19.5066667,14.1397059 C19.5065666,14.2249668 19.4916781,14.3095606 19.4626667,14.3897059 C19.1473333,15.2647059 19.602,16.1029412 20.8046667,16.4264706 C20.9998233,16.4796578 21.1351166,16.6575166 21.1346667,16.8602941 C21.1386887,16.8994061 21.1386887,16.9388292 21.1346667,16.9779412 L21.2153333,16.9779412 C21.5281509,16.9769686 21.8209066,16.8233409 22,16.5661765 C22.2053333,16.5661765 22.4326667,16.5661765 22.66,16.5294118 C22.6906799,16.5897838 22.7128901,16.654118 22.726,16.7205882 C22.7945313,16.9200585 22.7151566,17.1404531 22.5353333,17.25 C22.2461221,17.2943001 21.9518779,17.2943001 21.6626667,17.25 C21.1685559,17.25 20.768,17.6516269 20.768,18.1470588 C20.7641277,18.1861784 20.7641277,18.2255863 20.768,18.2647059 C20.6092109,18.3650836 20.5124439,18.53973 20.5113333,18.7279412 C20.5131346,18.8232883 20.5383202,18.9167243 20.5846667,19 C20.7364921,18.8187425 20.9340195,18.6816271 21.1566667,18.6029412 C21.1725427,18.1649001 21.5335261,17.8192554 21.9706667,17.8235294 C22.0339946,17.8159019 22.0980054,17.8159019 22.1613333,17.8235294 C21.7138614,17.8856164 21.3796887,18.2676546 21.3766667,18.7205882 C21.3730268,18.7548049 21.3730268,18.7893127 21.3766667,18.8235294 C21.3178216,18.8903647 21.2863826,18.977053 21.2886667,19.0661765 C21.2891849,19.1785254 21.3371481,19.2853952 21.4206667,19.3602941 C21.5387167,19.146193 21.7364311,18.9875985 21.9706667,18.9191176 C22.1278963,18.8621137 22.2971707,18.8469142 22.462,18.875 C22.4379166,18.8039538 22.4255323,18.7294494 22.4253333,18.6544118 C22.4253333,18.24832 22.7536579,17.9191176 23.1586667,17.9191176 L23.2613333,17.9191176 C23.0354669,17.950284 22.8513088,18.1162464 22.796392,18.3381206 C22.7414751,18.5599947 22.8268751,18.7930337 23.012,18.9264706 L23.012,18.9264706 C23.0124465,19.0751285 23.0798177,19.2156353 23.1953333,19.3088235 C23.2448065,19.0477378 23.4729547,18.8591669 23.738,18.8602941 C23.9288258,18.864151 24.1191537,18.839367 24.3026667,18.7867647 C24.5515647,18.7056023 24.7221368,18.4755991 24.728,18.2132353 C24.7281582,18.0334438 24.6473069,17.863202 24.508,17.75 C24.5742144,17.3488033 24.5567353,16.9381979 24.4566667,16.5441176 L24.5226667,16.5441176 C24.6855674,16.5449041 24.8371459,16.6278043 24.926,16.7647059 L24.9333333,16.8308824 Z M12.5986667,21.9117647 C12.5842052,21.8439032 12.5842052,21.7737439 12.5986667,21.7058824 C12.6267729,21.5748583 12.7437037,21.4822977 12.8773333,21.4852941 C13.0352868,21.4852941 13.1633333,21.613683 13.1633333,21.7720588 C13.1635255,21.8441386 13.1343936,21.9131799 13.0826667,21.9632353 L13.2513333,21.9632353 C13.3897426,21.9619968 13.5275455,21.9447254 13.662,21.9117647 C13.8675407,21.8508601 14.0099918,21.6633932 14.014,21.4485294 C14.0099936,21.1874457 13.7977516,20.9779103 13.5373333,20.9779412 L13.4933333,20.9779412 C13.5604076,20.9486187 13.6328281,20.9335951 13.706,20.9338235 C14.0097566,20.9338235 14.256,21.1807253 14.256,21.4852941 L14.256,21.5294118 C15.0111267,21.431807 15.7034368,21.0572219 16.1993333,20.4779412 C15.9299726,20.5404452 15.6544781,20.5725077 15.378,20.5735294 C15.0638744,20.5734545 14.7509949,20.5339312 14.4466667,20.4558824 C14.0862483,20.3524398 13.7141226,20.2956069 13.3393333,20.2867647 C12.4381504,20.2047399 11.6354212,20.856461 11.528,21.7573529 C11.5794927,22.4791249 12.1261891,23.0670936 12.8406667,23.1691176 C14.5786667,23.5220588 16.6246667,22.4852941 18.3553333,22.125 C18.7864018,21.7017711 19.2813782,21.3493982 19.822,21.0808824 C19.8108997,21.0176428 19.8108997,20.9529454 19.822,20.8897059 L19.822,20.8897059 C17.5266667,21.2647059 15.466,22.4485294 13.6033333,22.4338235 C13.0826667,22.4338235 12.672,22.2352941 12.606,21.9044118 L12.5986667,21.9117647 Z M12.5546667,17.6617647 L12.6573333,17.6617647 C12.3193662,17.7616131 12.0478041,18.0148412 11.924,18.3455882 C11.7666344,18.4002183 11.6429983,18.5242706 11.5886227,18.6820946 C11.5342471,18.8399186 11.5551533,19.0140373 11.6453333,19.1544118 C11.8416154,18.9402758 12.096816,18.7893049 12.3786667,18.7205882 C12.4631634,18.3220877 12.7955656,18.0245064 13.2,17.9852941 C12.8315042,18.1373619 12.5910815,18.4975081 12.5913333,18.8970588 C12.5900185,19.0391416 12.6200699,19.1797565 12.6793333,19.3088235 C12.7448867,19.0746729 12.9574488,18.9125737 13.2,18.9117647 C13.2582162,18.901456 13.3177838,18.901456 13.376,18.9117647 C13.4545648,18.9352629 13.5360191,18.9476375 13.618,18.9485294 C14.0230088,18.9485294 14.3513333,18.619327 14.3513333,18.2132353 C14.3504651,18.135851 14.3381073,18.0590279 14.3146667,17.9852941 C14.4559167,18.0254969 14.5691091,18.1316206 14.6185858,18.2702338 C14.6680624,18.408847 14.6477324,18.5628854 14.564,18.6838235 L14.6666667,18.6838235 C15.1288791,18.6872255 15.5200981,18.3424118 15.576,17.8823529 C15.811046,17.7500696 16.0198469,17.5756037 16.192,17.3676471 L16.3166667,17.9779412 C16.3240841,18.019276 16.3240841,18.0616064 16.3166667,18.1029412 C16.3017354,18.1413257 16.2792949,18.1763265 16.2506667,18.2058824 L16.764,17.6764706 C16.7743703,17.6672793 16.7841666,17.6574569 16.7933333,17.6470588 C16.8043361,17.608619 16.8043361,17.5678516 16.7933333,17.5294118 L16.6466667,16.7941176 C16.6393261,16.7552473 16.6393261,16.7153409 16.6466667,16.6764706 C16.6598129,16.6350598 16.6824117,16.5972946 16.7126667,16.5661765 L17.116,16.1544118 C17.0871323,16.1824748 17.0667903,16.2181684 17.0573333,16.2573529 C17.0464459,16.2983046 17.0464459,16.3414013 17.0573333,16.3823529 L17.2113333,17.1176471 C17.2225734,17.1585516 17.2225734,17.2017425 17.2113333,17.2426471 C17.2018764,17.2818316 17.1815344,17.3175252 17.1526667,17.3455882 L17.6146667,16.8676471 C17.6411605,16.8378057 17.6611431,16.8027426 17.6733333,16.7647059 C17.6842207,16.7237542 17.6842207,16.6806575 17.6733333,16.6397059 L17.5193333,15.9044118 C17.5080932,15.8635072 17.5080932,15.8203163 17.5193333,15.7794118 C17.5287903,15.7402272 17.5491323,15.7045336 17.578,15.6764706 L17.9813333,15.2573529 C17.9519097,15.287918 17.93159,15.3261192 17.9226667,15.3676471 C17.9150888,15.4089673 17.9150888,15.4513268 17.9226667,15.4926471 L18.0766667,16.2279412 C18.0840841,16.269276 18.0840841,16.3116064 18.0766667,16.3529412 C18.0617354,16.3913257 18.0392949,16.4263265 18.0106667,16.4558824 L18.4726667,15.9779412 C18.5031496,15.9481611 18.5236503,15.9096195 18.5313333,15.8676471 C18.5425734,15.8267425 18.5425734,15.7835516 18.5313333,15.7426471 L18.458,15.3823529 C18.4338852,14.9477566 18.7195045,14.5566744 19.14,14.4485294 C19.1783965,14.3708022 19.1984685,14.2852685 19.1986667,14.1985294 C19.1986667,13.7867647 18.7073333,13.4632353 18.0913333,13.4632353 C17.8199336,13.4615103 17.5533793,13.5353269 17.3213333,13.6764706 C17.402,13.9117647 17.424,14.1544118 16.6393333,14.2647059 C16.0689576,14.2955559 15.5193081,14.4894682 15.0553333,14.8235294 C14.41,15.375 14.4613333,16.1029412 14.102,16.375 C14.2946673,16.4226585 14.4959993,16.4226585 14.6886667,16.375 C14.8212525,16.34871 14.949578,16.3041709 15.07,16.2426471 C14.970924,16.4024429 14.8211096,16.5241688 14.6446667,16.5882353 C14.5471049,16.8768922 14.3226982,17.1046099 14.036,17.2058824 C13.8591216,17.2598947 13.6702118,17.2598947 13.4933333,17.2058824 L12.76,16.9926471 C12.6676558,16.9626046 12.57108,16.947707 12.474,16.9485294 C11.9204257,16.9560608 11.4586932,17.3749358 11.396,17.9264706 C11.1309181,17.9664231 10.9346444,18.1944595 10.934,18.4632353 C10.9358013,18.5585824 10.9609869,18.6520184 11.0073333,18.7352941 C11.1910627,18.5479502 11.4214955,18.4133832 11.6746667,18.3455882 C11.7856692,17.9586328 12.1384305,17.6918557 12.54,17.6911765 L12.5546667,17.6617647 Z M8.52866667,24.5588235 C8.57593093,24.3167829 8.59317279,24.069812 8.58,23.8235294 L8.36733333,24.0808824 C8.33705409,24.0055719 8.30278301,23.9319375 8.26466667,23.8602941 C8.26466667,23.8602941 8.22066667,23.7941176 8.19133333,23.7867647 C8.16965082,23.7920646 8.14701585,23.7920646 8.12533333,23.7867647 L7.94933333,23.7867647 C7.9299994,23.7909395 7.9100006,23.7909395 7.89066667,23.7867647 C7.89066667,23.7867647 7.83933333,23.7867647 7.81733333,23.8602941 C7.77921699,23.9319375 7.74494591,24.0055719 7.71466667,24.0808824 L7.49466667,23.8235294 C7.4880037,24.0700241 7.50767126,24.316526 7.55333333,24.5588235 C7.87483344,24.4901136 8.20716656,24.4901136 8.52866667,24.5588235 L8.52866667,24.5588235 Z M8.624,25.2205882 C8.624,24.9411765 8.338,24.8382353 8.03733333,24.8382353 C7.73666667,24.8382353 7.42866667,24.9411765 7.45066667,25.2205882 C7.47266667,25.5 7.80266667,25.3970588 8.03733333,25.3970588 C8.272,25.3970588 8.59466667,25.5588235 8.624,25.2205882 L8.624,25.2205882 Z M9.46733333,23.2132353 C9.41390308,23.2234045 9.37444496,23.2690548 9.372,23.3235294 C9.37482986,23.5665611 9.22066848,23.7835586 8.99066667,23.8602941 C8.99276989,24.1624856 8.94570776,24.4629984 8.85133333,24.75 C9.108,25.2720588 8.91,25.6470588 8.712,25.7205882 C8.514,25.7941176 8.26466667,25.7205882 8.04466667,25.7205882 C7.82466667,25.7205882 7.568,25.8161765 7.37,25.7205882 C7.172,25.625 6.974,25.2720588 7.22333333,24.75 C7.1360267,24.4613308 7.08913416,24.1619009 7.084,23.8602941 C6.85542293,23.7829732 6.70377533,23.5653286 6.71,23.3235294 C6.70640256,23.2641739 6.65919724,23.2168424 6.6,23.2132353 C6.27334229,23.1354706 6.0115623,22.891153 5.91082075,22.5700287 C5.8100792,22.2489045 5.8852296,21.8983207 6.10866667,21.6470588 C6.06466667,22.1102941 6.028,22.7720588 6.98133333,22.8602941 C6.98133333,23.4044118 7.20133333,23.5514706 7.44333333,23.5514706 C7.56866339,23.5533335 7.69237787,23.5229551 7.80266667,23.4632353 C7.97866667,23.3676471 7.86133333,23.2205882 7.80266667,23.1764706 C7.67820936,23.0694976 7.61960549,22.9044084 7.64866667,22.7426471 C7.64866667,22.7426471 7.64866667,22.6985294 7.64866667,22.6985294 L8.294,22.6985294 C8.294,22.6985294 8.294,22.6985294 8.338,22.7426471 C8.36706117,22.9044084 8.3084573,23.0694976 8.184,23.1764706 C8.14,23.2205882 8.01533333,23.3676471 8.184,23.4632353 C8.2942888,23.5229551 8.41800327,23.5533335 8.54333333,23.5514706 C8.78533333,23.5514706 9.02,23.4044118 9.00533333,22.8602941 C9.95866667,22.7720588 9.91466667,22.125 9.878,21.6470588 C10.1014371,21.8983207 10.1765875,22.2489045 10.0758459,22.5700287 C9.97510436,22.891153 9.71332438,23.1354706 9.38666667,23.2132353 L9.46733333,23.2132353 Z M9.64333333,21.3970588 C9.64333333,21.6323529 9.46733333,21.8970588 9.26933333,21.8970588 L9.16666667,21.8970588 C9.21533,21.954425 9.24140984,22.0276439 9.24,22.1029412 C9.2400453,22.278789 9.10000025,22.4224741 8.92466667,22.4264706 C8.74646279,22.4264706 8.602,22.2816215 8.602,22.1029412 C8.60409616,22.0282612 8.6297728,21.9561743 8.67533333,21.8970588 L8.48466667,21.8970588 C8.4149598,21.8966039 8.35284512,21.9410902 8.33066667,22.0073529 C8.30850049,21.9130566 8.30850049,21.8148845 8.33066667,21.7205882 C8.34951333,21.6361657 8.42071264,21.5736998 8.50666667,21.5661765 L9.35,21.5661765 C9.49394023,21.5703171 9.63180957,21.5079745 9.724,21.3970588 L9.64333333,21.3970588 Z M9.614,21 L9.32066667,21 C9.19114048,21.0023458 9.06837393,20.9421661 8.99066667,20.8382353 L8.66066667,20.4044118 C8.61503666,20.3396804 8.55471118,20.2867545 8.48466667,20.25 L8.8,20.25 C8.90215248,20.2487067 8.99829731,20.2982848 9.05666667,20.3823529 L9.40866667,20.8308824 C9.482,20.9191176 9.51133333,20.9852941 9.59933333,21 L9.614,21 Z M8.074,20.2647059 L8.49933333,20.8602941 C8.54935578,20.9468328 8.62679183,21.0141235 8.71933333,21.0514706 L8.33066667,21.0514706 C8.20295079,21.0558914 8.08370848,20.9875708 8.02266667,20.875 L7.69266667,20.3602941 C7.56066667,20.1691176 7.50933333,20.1176471 7.36266667,20.0661765 L7.72933333,20.0661765 C7.86851548,20.0758261 7.99557416,20.1490125 8.074,20.2647059 L8.074,20.2647059 Z M7.106,20.3676471 L7.45066667,20.8161765 C7.53133333,20.9044118 7.55333333,20.9705882 7.64866667,20.9852941 L7.35533333,20.9852941 C7.22553557,20.9888812 7.10223044,20.9284375 7.02533333,20.8235294 L6.688,20.3897059 C6.64686949,20.3237794 6.58854432,20.2703836 6.51933333,20.2352941 L6.84933333,20.2352941 C6.95148581,20.2340008 7.04763065,20.2835789 7.106,20.3676471 L7.106,20.3676471 Z M6.89333333,21.8823529 L6.72466667,21.8823529 C6.52666667,21.8823529 6.35066667,21.6176471 6.35066667,21.3823529 C6.44580194,21.49355 6.5859458,21.5557024 6.732,21.5514706 L7.568,21.5514706 C7.65674202,21.5558668 7.73169708,21.6189974 7.75133333,21.7058824 C7.76617672,21.8008913 7.76617672,21.8976381 7.75133333,21.9926471 C7.72469117,21.9265987 7.66105215,21.8830925 7.59,21.8823529 L7.39933333,21.8823529 C7.44799666,21.9397192 7.47407651,22.012938 7.47266667,22.0882353 C7.47271197,22.2640831 7.33266692,22.4077682 7.15733333,22.4117647 C6.97912945,22.4117647 6.83466667,22.2669157 6.83466667,22.0882353 C6.83676283,22.0135553 6.86243947,21.9414685 6.908,21.8823529 L6.89333333,21.8823529 Z M5.86666667,25.9044118 L5.97666667,25.7352941 C5.98691209,25.6942606 5.98691209,25.6513276 5.97666667,25.6102941 C5.98660219,25.5717111 5.98660219,25.5312301 5.97666667,25.4926471 L6.25533333,25.9926471 C6.26204132,26.0340423 6.26204132,26.0762518 6.25533333,26.1176471 C6.26526886,26.1562301 6.26526886,26.1967111 6.25533333,26.2352941 L6.25533333,26.2867647 C6.03390766,26.688285 5.97860471,27.1609373 6.10133333,27.6029412 C5.75415658,27.4943271 5.5388211,27.1469916 5.59533333,26.7867647 C4.818,26.0514706 4.62733333,25.3161765 5.17733333,24.6764706 L5.46333333,24.3382353 C5.49381625,24.3084553 5.51431696,24.2699137 5.522,24.2279412 C5.53300274,24.1895014 5.53300274,24.1487339 5.522,24.1102941 L5.676,24.6617647 C5.68326368,24.7031131 5.68326368,24.7454163 5.676,24.7867647 C5.6652471,24.8275967 5.64516143,24.865358 5.61733333,24.8970588 L5.50733333,25 C5.214,25.3308824 5.29466667,25.7941176 5.74933333,26.2058824 C5.77613793,26.1010031 5.81553704,25.9997729 5.86666667,25.9044118 L5.86666667,25.9044118 Z M24.9333333,27.9779412 C24.9649805,27.9034224 24.9823932,27.8236085 24.9846667,27.7426471 C24.9846667,27.3934082 24.7023076,27.1102941 24.354,27.1102941 L23.716,27.1102941 C23.6772502,27.1178328 23.6374164,27.1178328 23.5986667,27.1102941 C23.5644647,27.0891974 23.5345962,27.0617447 23.5106667,27.0294118 L23.188,26.5588235 C23.2146007,26.5913799 23.2469087,26.6187905 23.2833333,26.6397059 C23.3220012,26.6480554 23.3619988,26.6480554 23.4006667,26.6397059 L24.2,26.6397059 C24.2382128,26.6278195 24.2791205,26.6278195 24.3173333,26.6397059 C24.3567155,26.6560884 24.3900347,26.684357 24.4126667,26.7205882 L24.024,26.1544118 C23.9788655,26.0848635 23.9014169,26.0432622 23.8186667,26.0441176 L22.9826667,26.0441176 C22.9441865,26.0540797 22.9038135,26.0540797 22.8653333,26.0441176 C22.8278219,26.0277558 22.7968456,25.999285 22.7773333,25.9632353 L22.4106667,25.4264706 C22.4368419,25.4614385 22.4691461,25.4913375 22.506,25.5147059 C22.5447498,25.5222445 22.5845836,25.5222445 22.6233333,25.5147059 L23.4666667,25.5147059 C23.505004,25.5036737 23.5456627,25.5036737 23.584,25.5147059 C23.6222879,25.5328395 23.6551602,25.5607289 23.6793333,25.5955882 L23.2906667,25.0294118 C23.2711544,24.9933621 23.2401781,24.9648912 23.2026667,24.9485294 C23.1618242,24.9376129 23.1188424,24.9376129 23.078,24.9485294 L22.418,24.9485294 C22.3792502,24.9560681 22.3394164,24.9560681 22.3006667,24.9485294 C22.2638127,24.9251611 22.2315085,24.895262 22.2053333,24.8602941 L21.7653333,24.2058824 C22.5590014,24.1925559 23.2621022,23.6894161 23.5326667,22.9411765 C23.7233333,22.0661765 22.8506667,21.2205882 21.5966667,21.0367647 C21.3854017,21.0009597 21.2305743,20.8177749 21.23,20.6029412 C21.2273446,20.4206027 21.3386981,20.2560641 21.5086667,20.1911765 C21.3698622,20.130933 21.2199027,20.1008609 21.0686667,20.1029412 C20.8176541,20.086847 20.5705834,20.1716462 20.3820606,20.3385969 C20.1935378,20.5055476 20.0790858,20.7409033 20.064,20.9926471 C20.0632369,21.0803764 20.0781385,21.1675346 20.108,21.25 C19.4788513,21.539106 18.9243643,21.9692906 18.4873333,22.5073529 C18.9655296,22.3783204 19.4587952,22.3140244 19.954,22.3161765 C19.9504412,22.294262 19.9504412,22.2719145 19.954,22.25 C19.954,21.8723347 20.2593418,21.5661765 20.636,21.5661765 L20.636,21.5661765 C20.421943,21.6555373 20.2750449,21.856646 20.2546667,22.0882353 C20.2546667,22.2831593 20.4122624,22.4411765 20.6066667,22.4411765 C20.6805715,22.4427999 20.7528797,22.4194958 20.812,22.375 C20.804341,22.328748 20.804341,22.2815461 20.812,22.2352941 C20.8160077,21.9660885 21.0348157,21.74997 21.3033333,21.75 L21.3693333,21.75 C21.1776438,21.8426407 21.0552945,22.0366406 21.054,22.25 C21.0580122,22.5516934 21.3030843,22.7941445 21.604,22.7941176 L21.692,22.7941176 C21.6883644,22.7623592 21.6883644,22.7302879 21.692,22.6985294 C21.692,22.4833008 21.866012,22.3088235 22.0806667,22.3088235 C22.2953213,22.3088235 22.4693333,22.4833008 22.4693333,22.6985294 C22.4693333,23.1691176 21.9486667,23.2132353 21.5673333,23.1029412 C20.5748081,22.7789672 19.5247418,22.6711729 18.4873333,22.7867647 C17.226,22.9632353 15.1653333,23.8161765 12.9726667,23.7426471 C12.4283236,23.7364544 11.8866829,23.6648654 11.3593333,23.5294118 C11.4095071,23.582588 11.4560567,23.6390881 11.4986667,23.6985294 C11.7326687,24.0252792 11.769266,24.4543299 11.594,24.8161765 C11.5412098,24.342031 11.2697462,23.9201374 10.8606667,23.6764706 C10.7213333,23.5735294 10.67,23.4779412 10.692,23.3529412 L10.7873333,22.7867647 C10.7760932,22.8276693 10.7760932,22.8708601 10.7873333,22.9117647 C10.7967903,22.9509492 10.8171323,22.9866429 10.846,23.0147059 L11.0586667,23.2205882 C11.1387875,22.6583898 10.9995714,22.0868678 10.67,21.625 C10.8183575,21.2301217 10.8439248,20.7994422 10.7433333,20.3897059 C10.7269216,20.6118562 10.6001436,20.8108219 10.406,20.9191176 C10.2931143,20.9758206 10.2099619,21.0784149 10.1776918,21.2008065 C10.1454217,21.3231981 10.1671438,21.4535919 10.2373333,21.5588235 C10.01,21.4411765 9.702,21.0220588 9.878,20.7794118 C10.054,20.5367647 10.6113333,20.6397059 10.67,20.1838235 C10.4060818,20.1105102 10.1272516,20.1105102 9.86333333,20.1838235 C9.66051158,19.9477677 9.35954479,19.8199905 9.04933333,19.8382353 C8.76866463,19.5900012 8.39254734,19.479558 8.02266667,19.5367647 C7.65285498,19.4805952 7.27716859,19.5909118 6.996,19.8382353 C6.68830747,19.8223142 6.39054945,19.9498782 6.18933333,20.1838235 C5.9254151,20.1105102 5.6465849,20.1105102 5.38266667,20.1838235 C5.44866667,20.6397059 5.97666667,20.5147059 6.17466667,20.7794118 C6.37266667,21.0441176 6.04266667,21.4411765 5.81533333,21.5588235 C5.88501973,21.4526495 5.90565073,21.3214985 5.87194054,21.1989723 C5.83823034,21.0764461 5.75345458,20.9744506 5.63933333,20.9191176 C5.44800965,20.8090303 5.32418595,20.6103826 5.30933333,20.3897059 C5.2063976,20.7987036 5.22940748,21.2293698 5.37533333,21.625 C5.04833685,22.0879151 4.91176896,22.6593472 4.994,23.2205882 L5.19933333,23.0147059 C5.23028042,22.9870658 5.253103,22.9514691 5.26533333,22.9117647 C5.27657342,22.8708601 5.27657342,22.8276693 5.26533333,22.7867647 L5.368,23.3529412 C5.368,23.4779412 5.368,23.5735294 5.19933333,23.6764706 C4.79266256,23.9226345 4.52205218,24.3432021 4.466,24.8161765 C4.2944783,24.4527153 4.33381753,24.0244617 4.56866667,23.6985294 C4.10525129,23.4274044 3.6911382,23.0793155 3.344,22.6691176 C3.17509843,22.4532737 3.17509843,22.1496675 3.344,21.9338235 C3.68866667,21.4485294 3.76933333,20.9264706 3.344,20.5735294 C3.34762342,20.546691 3.34762342,20.5194854 3.344,20.4926471 C3.34329585,20.1746823 3.1195188,19.9011288 2.80866667,19.8382353 C2.86970261,19.9296989 2.90283106,20.0370154 2.904,20.1470588 C2.90465759,20.2699471 2.86324016,20.3893406 2.78666667,20.4852941 C2.84719056,20.568731 2.8804905,20.6688979 2.882,20.7720588 C2.88169028,20.9112584 2.81993383,21.0431783 2.71333333,21.1323529 C2.72055556,21.0811371 2.72055556,21.0291571 2.71333333,20.9779412 C2.72503284,20.6687095 2.5303128,20.3893651 2.23666667,20.2941176 C2.18800519,20.047929 1.9736316,19.8698303 1.72333333,19.8676471 C1.58157077,19.8666559 1.44589514,19.9253392 1.34933333,20.0294118 C1.54587679,20.046005 1.70289607,20.200357 1.72333333,20.3970588 C1.62538753,20.4677395 1.54916935,20.5645406 1.50333333,20.6764706 L1.50333333,20.6764706 C1.84354074,20.6764706 2.11933333,20.9530006 2.11933333,21.2941176 C2.11933333,21.3308824 2.11933333,21.3676471 2.11933333,21.4044118 C2.09224405,21.2660691 2.02605991,21.1384516 1.92866667,21.0367647 C1.73127821,20.851541 1.44267713,20.8023477 1.19533333,20.9117647 C1.09917068,20.7860842 0.949982194,20.7126504 0.792,20.7132353 C0.612829135,20.7102926 0.445468956,20.8025868 0.352,20.9558824 C0.534054033,20.9638904 0.702060017,21.0562691 0.806666667,21.2058824 C0.537864558,21.5157722 0.537864558,21.9768749 0.806666667,22.2867647 C1.00264062,22.4734891 1.28938198,22.5281156 1.54,22.4264706 L1.59133333,22.4264706 C1.65857221,22.4121787 1.72773457,22.4402262 1.76615926,22.4973679 C1.80458394,22.5545095 1.80458394,22.629314 1.76615926,22.6864557 C1.72773457,22.7435973 1.65857221,22.7716448 1.59133333,22.7573529 C1.5540929,22.7563021 1.5181456,22.7434294 1.48866667,22.7205882 C1.42507913,22.6670515 1.34435386,22.6383305 1.26133333,22.6397059 C1.06287901,22.6397059 0.902,22.8010151 0.902,23 L0.902,23.0441176 L0.799333333,23.0441176 C0.705221174,23.0479372 0.614142861,23.0103341 0.55,22.9411765 C0.542422156,22.9824968 0.542422156,23.0248562 0.55,23.0661765 C0.549260593,23.3164207 0.74116145,23.5248691 0.99,23.5441176 C1.10507797,23.8452491 1.40241791,24.0360554 1.72333333,24.0147059 C1.87732128,24.0137013 2.02767725,23.9677073 2.156,23.8823529 C2.20942716,23.8378017 2.27720361,23.8142779 2.34666667,23.8161765 C2.43418811,23.8161765 2.5181249,23.8510372 2.5800119,23.9130897 C2.64189891,23.9751421 2.67666667,24.0593034 2.67666667,24.1470588 C2.6778014,24.3036234 2.57162185,24.440505 2.42,24.4779412 L2.16333333,24.5294118 C2.12249089,24.5403283 2.07950911,24.5403283 2.03866667,24.5294118 C1.99918111,24.5156386 1.96207125,24.4957937 1.92866667,24.4705882 L2.49333333,25 C2.52132151,25.0289449 2.55691995,25.0493413 2.596,25.0588235 C2.63723814,25.0661066 2.67942852,25.0661066 2.72066667,25.0588235 L3.20466667,24.9485294 L3.32933333,24.9485294 C3.36761553,24.9635006 3.40252301,24.9860011 3.432,25.0147059 L3.83533333,25.3970588 C3.80734515,25.3681139 3.77174671,25.3477175 3.73266667,25.3382353 C3.69182422,25.3273188 3.64884244,25.3273188 3.608,25.3382353 L3.124,25.4485294 C3.08566271,25.4595616 3.04500395,25.4595616 3.00666667,25.4485294 C2.97205348,25.4227827 2.94639752,25.3867683 2.93333333,25.3455882 L3.476,25.8602941 C3.50398818,25.889239 3.53958662,25.9096354 3.57866667,25.9191176 C3.61946216,25.9303878 3.66253784,25.9303878 3.70333333,25.9191176 L4.18733333,25.8088235 C4.22567062,25.7977914 4.26632938,25.7977914 4.30466667,25.8088235 C4.34305184,25.8232428 4.37625433,25.8488514 4.4,25.8823529 L4.80333333,26.2647059 C4.77357151,26.2381412 4.73860199,26.2181052 4.70066667,26.2058824 C4.65982422,26.1949659 4.61684244,26.1949659 4.576,26.2058824 L4.092,26.3088235 L3.94533333,26.3088235 C3.90739801,26.2966007 3.87242849,26.2765647 3.84266667,26.25 L4.378,26.7573529 C4.4096163,26.7852554 4.44727693,26.8053948 4.488,26.8161765 C4.52879549,26.8274466 4.57187118,26.8274466 4.61266667,26.8161765 L5.192,26.6838235 C4.62733333,27.0073529 4.026,27.375 3.388,27.7794118 C3.00757077,28.0217168 2.5316051,28.0575787 2.11933333,27.875 C1.88575511,27.7858286 1.6333247,27.757987 1.386,27.7941176 C1.16263703,27.832561 0.967128819,27.9668288 0.850666667,28.1617647 C0.9416218,28.1256524 1.03886369,28.1081521 1.13666667,28.1102941 C1.34025658,28.1050793 1.53684032,28.1849885 1.67933333,28.3308824 C1.44285493,28.242391 1.1824784,28.242391 0.946,28.3308824 C0.5018769,28.4559788 0.223466827,28.896916 0.300666667,29.3529412 C0.119009463,29.4274896 0.000243668211,29.6046624 -4.66084961e-15,29.8014706 C-0.00297766744,29.9309859 0.0474266134,30.0560036 0.139333333,30.1470588 C0.188348163,29.9318715 0.37413064,29.7756373 0.594,29.7647059 C0.692680676,29.8280397 0.802008918,29.8728845 0.916666667,29.8970588 C0.950550162,29.8355784 0.99527399,29.7807698 1.04866667,29.7352941 C1.04525925,29.6961528 1.04525925,29.6567883 1.04866667,29.6176471 C1.04671263,29.4089814 1.1275144,29.2080847 1.27329463,29.0591568 C1.41907486,28.9102289 1.61789059,28.8254704 1.826,28.8235294 L1.936,28.8235294 C1.59228451,28.9051166 1.34399722,29.2050577 1.32733333,29.5588235 C1.32410885,29.605336 1.32410885,29.6520169 1.32733333,29.6985294 C1.17847109,29.7558049 1.066584,29.8819479 1.02722712,30.0368732 C0.987870252,30.1917985 1.025938,30.3562396 1.12933333,30.4779412 C1.26305418,30.2081607 1.52677255,30.0272394 1.826,30 C1.9424157,30.035626 2.06362559,30.052988 2.18533333,30.0514706 L2.42,30.0514706 C2.34987408,29.9470567 2.3116462,29.8244004 2.31,29.6985294 C2.32956702,29.3689897 2.6041212,29.1131335 2.93333333,29.1176471 L3.014,29.1176471 C2.71731286,29.1994641 2.52634487,29.4882515 2.56666667,29.7941176 C2.63551356,29.9840863 2.80623076,30.1181724 3.00666667,30.1397059 C3.00044107,30.2707673 2.96538151,30.3988258 2.904,30.5147059 C3.17944927,30.4916983 3.4234969,30.327638 3.54933333,30.0808824 C3.8473074,30.0007558 4.04704695,29.7203727 4.026,29.4117647 C4.0007839,29.3170759 3.94381102,29.2339846 3.86466667,29.1764706 L3.86466667,29.1764706 C3.88894359,29.0145445 4.02769118,28.8947761 4.191,28.8947761 C4.35430882,28.8947761 4.49305641,29.0145445 4.51733333,29.1764706 C4.51492103,29.2581169 4.48374416,29.3362675 4.42933333,29.3970588 L5.13333333,29.3970588 C5.17215698,29.4037829 5.21184302,29.4037829 5.25066667,29.3970588 C5.28486862,29.3759621 5.31473709,29.3485094 5.33866667,29.3161765 L5.77866667,28.6617647 C5.79260847,28.6390772 5.81305589,28.6211379 5.83733333,28.6102941 C5.86382642,28.6037521 5.89150691,28.6037521 5.918,28.6102941 L6.45333333,28.6102941 C6.42697299,28.6027342 6.39902701,28.6027342 6.37266667,28.6102941 C6.34838923,28.6211379 6.32794181,28.6390772 6.314,28.6617647 L5.874,29.3161765 C5.84739926,29.3487329 5.81509127,29.3761435 5.77866667,29.3970588 C5.7399988,29.4054083 5.7000012,29.4054083 5.66133333,29.3970588 L6.45333333,29.3970588 C6.49208311,29.4045975 6.53191689,29.4045975 6.57066667,29.3970588 C6.60565339,29.3741485 6.63767498,29.3469808 6.666,29.3161765 L7.15,28.5808824 C6.81617091,28.3851767 6.62918287,28.0102007 6.67333333,27.625 C6.71498025,27.3561523 6.77625605,27.090733 6.85666667,26.8308824 L6.85666667,26.75 C6.86790675,26.7090954 6.86790675,26.6659046 6.85666667,26.625 C6.84062232,26.5711702 6.81847782,26.5193616 6.79066667,26.4705882 L7.20866667,26.8970588 C7.2372949,26.9266146 7.25973542,26.9616154 7.27466667,27 C7.28224451,27.0413203 7.28224451,27.0836797 7.27466667,27.125 L7.27466667,27.2205882 C7.27466667,27.3897059 7.04,27.7573529 7.436,28.0955882 L7.55333333,28.1764706 L7.832,28.3529412 L7.832,27.3088235 L8.228,27.3088235 L8.228,28.4705882 C8.21658753,28.5089692 8.21658753,28.5498544 8.228,28.5882353 C8.24685344,28.6241276 8.27464148,28.6545229 8.30866667,28.6764706 L8.69733333,28.9264706 C8.73572326,28.9371209 8.77627674,28.9371209 8.81466667,28.9264706 C8.85305659,28.9371209 8.89361008,28.9371209 8.932,28.9264706 L9.66533333,28.6102941 C9.62486182,28.6237536 9.58113818,28.6237536 9.54066667,28.6102941 C9.50214772,28.6199449 9.46185228,28.6199449 9.42333333,28.6102941 L8.60933333,28.0882353 C9.00533333,27.75 8.78533333,27.3529412 8.77066667,27.2132353 L8.77066667,27.1176471 C8.76308882,27.0763268 8.76308882,27.0339673 8.77066667,26.9926471 C8.78828072,26.9539237 8.81318015,26.9189713 8.844,26.8897059 L9.262,26.4632353 C9.234495,26.4923358 9.21437363,26.5276424 9.20333333,26.5661765 C9.19209325,26.607081 9.19209325,26.6502719 9.20333333,26.6911765 L9.20333333,26.7720588 C9.20333333,27.0588235 9.526,27.5882353 9.284,27.8823529 L10.0173333,28.3529412 C10.0515499,28.3783784 10.0922058,28.3936652 10.1346667,28.3970588 L10.2593333,28.3970588 L10.9926667,28.0735294 C10.9538696,28.0805571 10.9141304,28.0805571 10.8753333,28.0735294 C10.8337227,28.066653 10.7938599,28.0516645 10.758,28.0294118 L9.944,27.5147059 C10.0709364,27.0916727 10.0206304,26.6350534 9.80466667,26.25 L9.80466667,26.1985294 C9.79765776,26.1596286 9.79765776,26.1197832 9.80466667,26.0808824 C9.79442124,26.0398489 9.79442124,25.9969158 9.80466667,25.9558824 L10.0833333,25.4558824 C10.0733978,25.4944654 10.0733978,25.5349464 10.0833333,25.5735294 C10.0763586,25.6149026 10.0763586,25.6571562 10.0833333,25.6985294 L10.186,25.8970588 C10.2401151,25.9824505 10.2843981,26.0737199 10.318,26.1691176 C10.7726667,25.7573529 10.8753333,25.3602941 10.582,25.0220588 L10.494,24.9191176 C10.4683397,24.8869972 10.4507363,24.8491748 10.4426667,24.8088235 C10.4352493,24.7674887 10.4352493,24.7251583 10.4426667,24.6838235 L10.5966667,24.1323529 C10.5857793,24.1733046 10.5857793,24.2164013 10.5966667,24.2573529 C10.6074196,24.2981849 10.6275052,24.3359462 10.6553333,24.3676471 L10.9413333,24.6985294 C11.4913333,25.3235294 11.154,26.1323529 10.494,26.75 C10.5412023,26.8970179 10.5562104,27.0525172 10.538,27.2058824 L11.418,27.7647059 C11.4563899,27.7753562 11.4969434,27.7753562 11.5353333,27.7647059 C11.573184,27.7787857 11.614816,27.7787857 11.6526667,27.7647059 L12.2906667,27.4926471 C12.2494566,27.5002452 12.2072101,27.5002452 12.166,27.4926471 C12.0039965,27.4926471 11.8726667,27.3609661 11.8726667,27.1985294 C11.8707489,27.0697206 11.9547325,26.955438 12.078,26.9191176 C14.498,26.1838235 16.7273333,24.2720588 18.1866667,24.2794118 C18.92,24.2794118 19.4773333,24.7132353 19.4773333,25.25 C19.4772333,25.3352609 19.4623448,25.4198548 19.4333333,25.5 C19.118,26.375 19.5726667,27.2132353 20.7753333,27.5367647 C20.97049,27.5899519 21.1057833,27.7678107 21.1053333,27.9705882 C21.1088963,28.0097226 21.1088963,28.049101 21.1053333,28.0882353 L21.186,28.0882353 C21.5006289,28.104702 21.8038137,27.9677671 22,27.7205882 C22.2053333,27.7205882 22.4326667,27.7205882 22.66,27.6838235 C22.6907554,27.741573 22.7129872,27.8034932 22.726,27.8676471 C22.7773333,28.125 22.6893333,28.3529412 22.5353333,28.3970588 C22.246414,28.4450579 21.951586,28.4450579 21.6626667,28.3970588 C21.167372,28.4010965 20.7679836,28.8048352 20.768,29.3014706 C20.7645926,29.3406119 20.7645926,29.3799764 20.768,29.4191176 C20.6081671,29.5185015 20.5110508,29.6937782 20.5113333,29.8823529 C20.5121211,29.9755212 20.5374173,30.066831 20.5846667,30.1470588 C20.7348655,29.9656703 20.9331625,29.8305697 21.1566667,29.7573529 C21.1725427,29.3193119 21.5335261,28.9736672 21.9706667,28.9779412 C22.0339946,28.9703137 22.0980054,28.9703137 22.1613333,28.9779412 C21.7122502,29.0370166 21.3765006,29.4208574 21.3766667,29.875 C21.373031,29.9067585 21.373031,29.9388298 21.3766667,29.9705882 C21.3190411,30.0381434 21.2877785,30.1243455 21.2886667,30.2132353 C21.2889401,30.3277585 21.3367692,30.4369938 21.4206667,30.5147059 C21.5461414,30.2949783 21.755224,30.1357569 22,30.0735294 C22.1572297,30.0165254 22.326504,30.001326 22.4913333,30.0294118 C22.4679018,29.960735 22.4555247,29.8887556 22.4546667,29.8161765 C22.4546667,29.4100847 22.7829912,29.0808824 23.188,29.0808824 L23.2906667,29.0808824 C23.0134285,29.1210042 22.8074316,29.3588469 22.8066667,29.6397059 C22.8089675,29.8202303 22.8959097,29.9891312 23.0413333,30.0955882 L23.0413333,30.0955882 C23.0417798,30.2442461 23.109151,30.3847529 23.2246667,30.4779412 C23.2737089,30.2155059 23.5010542,30.0245181 23.7673333,30.0220588 C23.9581591,30.0259157 24.148487,30.0011317 24.332,29.9485294 C24.5448395,29.8864309 24.7054862,29.7106705 24.7486621,29.4926675 C24.7918381,29.2746645 24.7103589,29.0506938 24.5373333,28.9117647 C24.6035478,28.510568 24.5860687,28.0999627 24.486,27.7058824 L24.552,27.7058824 C24.7149007,27.7066688 24.8664792,27.789569 24.9553333,27.9264706 L24.9333333,27.9779412 Z M12.5693333,33.0882353 C12.5547879,33.0228624 12.5547879,32.9550788 12.5693333,32.8897059 C12.5943513,32.7557517 12.7121006,32.6594362 12.848,32.6617647 C13.004326,32.6656367 13.1301383,32.7917855 13.134,32.9485294 C13.1337193,33.0226737 13.1048082,33.0938272 13.0533333,33.1470588 L13.2,33.1470588 C13.3487937,33.1499475 13.4971592,33.1301125 13.64,33.0882353 C13.8616335,33.0188198 14.0011376,32.7993786 13.9703312,32.5686216 C13.9395249,32.3378645 13.747372,32.1629371 13.5153333,32.1544118 L13.4713333,32.1544118 C13.5417861,32.1432615 13.6135472,32.1432615 13.684,32.1544118 C13.830471,32.1524134 13.9715266,32.2098726 14.0751068,32.3137298 C14.1786871,32.4175869 14.2359931,32.5590197 14.234,32.7058824 L14.234,32.75 C14.9880523,32.6490627 15.6792484,32.2750803 16.1773333,31.6985294 C15.9076839,31.7584991 15.6321997,31.7880942 15.356,31.7867647 C15.0392764,31.773603 14.7258777,31.716694 14.4246667,31.6176471 C14.0632117,31.5201179 13.6915161,31.4658187 13.3173333,31.4558824 C12.4149347,31.3698312 11.6097463,32.0235488 11.506,32.9264706 C11.5547623,33.6494322 12.1028145,34.2388589 12.8186667,34.3382353 C14.5566667,34.6911765 16.6026667,33.6617647 18.3333333,33.3014706 C18.7606229,32.8737301 19.2563761,32.5208042 19.8,32.2573529 C19.7893235,32.1916094 19.7893235,32.1245671 19.8,32.0588235 L19.8,32.0588235 C17.5046667,32.4411765 15.444,33.6176471 13.5813333,33.6102941 C13.0606667,33.6102941 12.65,33.4044118 12.584,33.0735294 L12.5693333,33.0882353 Z M12.5326667,28.8308824 L12.6353333,28.8308824 C12.2985193,28.9327526 12.0277317,29.1852585 11.902,29.5147059 C11.7442653,29.5711559 11.6207779,29.6965931 11.5665327,29.8554696 C11.5122876,30.0143462 11.5331962,30.1893484 11.6233333,30.3308824 C11.8168666,30.1118927 12.0728813,29.9578731 12.3566667,29.8897059 C12.4453295,29.4936446 12.7755128,29.1980499 13.178,29.1544118 C12.8096596,29.3106951 12.5700622,29.6724993 12.5693333,30.0735294 C12.5678736,30.2132626 12.5979577,30.3515167 12.6573333,30.4779412 C12.7255854,30.2467047 12.9374925,30.0880976 13.178,30.0882353 C13.2361885,30.0776139 13.2958115,30.0776139 13.354,30.0882353 C13.431289,30.1176854 13.5133187,30.1326398 13.596,30.1323529 C14.0010088,30.1323529 14.3293333,29.8031506 14.3293333,29.3970588 C14.329159,29.3196165 14.3167842,29.2426879 14.2926667,29.1691176 C14.4336305,29.2072428 14.5471683,29.3119445 14.5968288,29.4496084 C14.6464894,29.5872723 14.6260228,29.7405733 14.542,29.8602941 L14.7033333,29.8602941 C15.1667795,29.8599345 15.5570532,29.5127982 15.6126667,29.0514706 C15.8512138,28.9243476 16.0609444,28.7491047 16.2286667,28.5367647 L16.3533333,29.1470588 C16.3607507,29.1883936 16.3607507,29.230724 16.3533333,29.2720588 C16.3384021,29.3104434 16.3159616,29.3454442 16.2873333,29.375 L16.8006667,28.8455882 C16.8292949,28.8160324 16.8517354,28.7810316 16.8666667,28.7426471 C16.8775541,28.7016954 16.8775541,28.6585987 16.8666667,28.6176471 L16.72,27.8823529 C16.7125826,27.8410181 16.7125826,27.7986877 16.72,27.7573529 C16.7349312,27.7189684 16.7573718,27.6839676 16.786,27.6544118 L17.1893333,27.2352941 C17.1588504,27.2650741 17.1383497,27.3036158 17.1306667,27.3455882 C17.1194266,27.3864928 17.1194266,27.4296837 17.1306667,27.4705882 L17.2846667,28.2058824 C17.2955541,28.246834 17.2955541,28.2899307 17.2846667,28.3308824 C17.2752097,28.3700669 17.2548677,28.4057605 17.226,28.4338235 L17.688,27.9558824 C17.7131383,27.9223884 17.7329302,27.8851794 17.7466667,27.8455882 C17.7579068,27.8046837 17.7579068,27.7614928 17.7466667,27.7205882 L17.5926667,26.9852941 C17.5816639,26.9468543 17.5816639,26.9060869 17.5926667,26.8676471 C17.6003497,26.8256746 17.6208504,26.787133 17.6513333,26.7573529 L18.0546667,26.3455882 C18.0257989,26.3736513 18.005457,26.4093449 17.996,26.4485294 C17.9887363,26.4898778 17.9887363,26.532181 17.996,26.5735294 L18.15,27.3088235 C18.1574174,27.3501583 18.1574174,27.3924887 18.15,27.4338235 C18.1350688,27.4722081 18.1126282,27.5072089 18.084,27.5367647 L18.546,27.0588235 C18.5748677,27.0307605 18.5952097,26.9950669 18.6046667,26.9558824 C18.6155541,26.9149307 18.6155541,26.871834 18.6046667,26.8308824 L18.5313333,26.4632353 C18.5078952,26.0304528 18.7939641,25.6418393 19.2133333,25.5367647 C19.2507888,25.458701 19.2708098,25.3733843 19.272,25.2867647 C19.272,24.8676471 18.7806667,24.5514706 18.1646667,24.5514706 C17.893267,24.5497456 17.6267126,24.6235622 17.3946667,24.7647059 C17.4753333,25 17.4973333,25.2426471 16.7126667,25.3529412 C16.1416242,25.3863564 15.5920194,25.5828042 15.1286667,25.9191176 C14.4833333,26.4632353 14.5346667,27.1911765 14.1753333,27.4705882 C14.3688932,27.5102041 14.5684401,27.5102041 14.762,27.4705882 C14.8939855,27.4386763 15.0219199,27.391806 15.1433333,27.3308824 C15.0442573,27.4906782 14.8944429,27.6124041 14.718,27.6764706 C14.6223876,27.9663292 14.3972532,28.1947852 14.1093333,28.2941176 C13.9329611,28.3514372 13.7430389,28.3514372 13.5666667,28.2941176 L12.8333333,28.0735294 C12.7405829,28.0459767 12.6440161,28.0335632 12.5473333,28.0367647 C11.9937591,28.0442961 11.5320266,28.4631711 11.4693333,29.0147059 C11.2053923,29.0513014 11.0084718,29.2769551 11.0073333,29.5441176 C11.0081958,29.6395964 11.0334431,29.7332612 11.0806667,29.8161765 C11.26629,29.6312913 11.4960273,29.4971305 11.748,29.4264706 C11.8590025,29.0395152 12.2117638,28.7727381 12.6133333,28.7720588 L12.5326667,28.8308824 Z M8.624,35.6323529 C8.67179493,35.390383 8.68904144,35.1433455 8.67533333,34.8970588 L8.46266667,35.1544118 C8.43269023,35.0813556 8.3984075,35.0101515 8.36,34.9411765 C8.36,34.8970588 8.316,34.8676471 8.28666667,34.8676471 L8.22066667,34.8676471 L8.04466667,34.8676471 L7.986,34.8676471 C7.986,34.8676471 7.93466667,34.8676471 7.91266667,34.9411765 C7.87425917,35.0101515 7.83997644,35.0813556 7.81,35.1544118 L7.59,34.8970588 C7.58270358,35.1435699 7.6023766,35.3901402 7.64866667,35.6323529 C7.78861593,35.6287995 7.92858399,35.6386481 8.06666667,35.6617647 C8.23157607,35.6579551 8.39638966,35.672754 8.558,35.7058824 L8.624,35.6323529 Z M8.65333333,36.3676471 C8.65333333,36.0882353 8.36733333,35.9926471 8.06666667,35.9926471 C7.766,35.9926471 7.458,36.0882353 7.48,36.3676471 C7.502,36.6470588 7.832,36.5441176 8.06666667,36.5514706 C8.30133333,36.5588235 8.624,36.7058824 8.65333333,36.3676471 L8.65333333,36.3676471 Z M9.49666667,34.3602941 C9.44323641,34.3704633 9.40377829,34.4161136 9.40133333,34.4705882 C9.40903084,34.7151225 9.25300878,34.9347391 9.02,35.0073529 C9.02210322,35.3095444 8.97504109,35.6100572 8.88066667,35.8970588 C9.13733333,36.4264706 8.93933333,36.7941176 8.74133333,36.875 C8.54333333,36.9558824 8.294,36.875 8.074,36.875 C7.854,36.875 7.59733333,36.9779412 7.39933333,36.875 C7.20133333,36.7720588 7.00333333,36.4264706 7.25266667,35.8970588 C7.16536003,35.6083896 7.1184675,35.3089597 7.11333333,35.0073529 C6.88165974,34.9342188 6.72812265,34.7138624 6.73933333,34.4705882 C6.73781432,34.4364528 6.721569,34.404666 6.69482155,34.3834931 C6.6680741,34.3623203 6.6334674,34.3538534 6.6,34.3602941 C6.27334229,34.2825294 6.0115623,34.0382118 5.91082075,33.7170876 C5.8100792,33.3959633 5.8852296,33.0453795 6.10866667,32.7941176 C6.06466667,33.2647059 6.028,33.9191176 6.98133333,34.0073529 C6.98133333,34.5588235 7.20133333,34.6985294 7.44333333,34.6985294 C7.56893126,34.7028753 7.69328457,34.67234 7.80266667,34.6102941 C7.97866667,34.5147059 7.86133333,34.375 7.80266667,34.3308824 C7.67820936,34.2239093 7.61960549,34.0588201 7.64866667,33.8970588 C7.64866667,33.8970588 7.64866667,33.8529412 7.64866667,33.8529412 L8.294,33.8529412 C8.294,33.8529412 8.294,33.8529412 8.338,33.8970588 C8.36706117,34.0588201 8.3084573,34.2239093 8.184,34.3308824 C8.14,34.375 8.01533333,34.5147059 8.184,34.6102941 C8.29293922,34.6734522 8.41761559,34.7040668 8.54333333,34.6985294 C8.78533333,34.6985294 9.02,34.5588235 9.00533333,34.0073529 C9.95866667,33.9191176 9.91466667,33.2720588 9.878,32.7941176 C10.1014371,33.0453795 10.1765875,33.3959633 10.0758459,33.7170876 C9.97510436,34.0382118 9.71332438,34.2825294 9.38666667,34.3602941 L9.49666667,34.3602941 Z M9.64333333,32.5441176 C9.64333333,32.7867647 9.46733333,33.0514706 9.26933333,33.0514706 L9.16666667,33.0514706 C9.2172654,33.1076965 9.24362779,33.1817086 9.24,33.2573529 C9.24,33.4319724 9.09882046,33.5735294 8.92466667,33.5735294 C8.79967717,33.5775675 8.6841178,33.5071656 8.63010621,33.3940751 C8.57609461,33.2809846 8.59383772,33.146577 8.67533333,33.0514706 L8.48466667,33.0514706 C8.41685528,33.049913 8.35531403,33.0910502 8.33066667,33.1544118 C8.30856966,33.0625922 8.30856966,32.9668196 8.33066667,32.875 C8.34951333,32.7905775 8.42071264,32.7281115 8.50666667,32.7205882 L9.35,32.7205882 C9.49566966,32.7252682 9.63474754,32.6596448 9.724,32.5441176 L9.64333333,32.5441176 Z M9.614,32.1470588 L9.32066667,32.1470588 C9.19291153,32.1488628 9.07134946,32.0919821 8.99066667,31.9926471 L8.66066667,31.5514706 C8.61501626,31.4886261 8.55454813,31.4381012 8.48466667,31.4044118 L8.8,31.4044118 C8.90215248,31.4031184 8.99829731,31.4526966 9.05666667,31.5367647 L9.40866667,31.9779412 C9.482,32.0735294 9.51133333,32.1323529 9.59933333,32.1470588 L9.614,32.1470588 Z M8.074,31.4117647 L8.49933333,32.0147059 C8.55172147,32.0992522 8.62842254,32.1659041 8.71933333,32.2058824 L8.33066667,32.2058824 C8.20378203,32.2070212 8.08610644,32.1395983 8.02266667,32.0294118 L7.69266667,31.5073529 C7.56066667,31.3161765 7.50933333,31.2647059 7.36266667,31.2132353 L7.72933333,31.2132353 C7.86851548,31.222885 7.99557416,31.2960713 8.074,31.4117647 L8.074,31.4117647 Z M7.106,31.5220588 L7.45066667,31.9632353 C7.53133333,32.0588235 7.55333333,32.1176471 7.64866667,32.1323529 L7.35533333,32.1323529 C7.2273422,32.135272 7.10531538,32.0781739 7.02533333,31.9779412 L6.688,31.5367647 C6.64671739,31.472792 6.58824983,31.4218147 6.51933333,31.3897059 L6.84933333,31.3897059 C6.95148581,31.3884126 7.04763065,31.4379907 7.106,31.5220588 L7.106,31.5220588 Z M6.908,33.0882353 L6.72466667,33.0882353 C6.52666667,33.0882353 6.35066667,32.8235294 6.35066667,32.5808824 C6.44297262,32.6966312 6.58426652,32.7620181 6.732,32.7573529 L7.568,32.7573529 C7.65674202,32.7617492 7.73169708,32.8248798 7.75133333,32.9117647 C7.76613409,33.0043108 7.76613409,33.0986304 7.75133333,33.1911765 C7.72245917,33.1280068 7.65930078,33.0877076 7.59,33.0882353 L7.39933333,33.0882353 C7.44993206,33.1444612 7.47629446,33.2184733 7.47266667,33.2941176 C7.47266667,33.4687371 7.33148712,33.6102941 7.15733333,33.6102941 C7.03234384,33.6143323 6.91678447,33.5439303 6.86277287,33.4308398 C6.80876128,33.3177493 6.82650439,33.1833417 6.908,33.0882353 L6.908,33.0882353 Z M5.86666667,37.0514706 L5.962,36.8529412 C5.97193552,36.8143582 5.97193552,36.7738771 5.962,36.7352941 C5.97300274,36.6968543 5.97300274,36.6560869 5.962,36.6176471 L6.24066667,37.1176471 C6.24818523,37.1565004 6.24818523,37.1964407 6.24066667,37.2352941 C6.25166941,37.2737339 6.25166941,37.3145014 6.24066667,37.3529412 L6.24066667,37.4044118 C6.019241,37.8059321 5.96393804,38.2785843 6.08666667,38.7205882 C5.73948991,38.6119741 5.52415443,38.2646386 5.58066667,37.9044118 C4.80333333,37.1691176 4.61266667,36.4338235 5.16266667,35.7941176 L5.44866667,35.4632353 C5.47649476,35.4315345 5.49658043,35.3937731 5.50733333,35.3529412 C5.51822072,35.3119895 5.51822072,35.2688928 5.50733333,35.2279412 L5.66133333,35.7794118 C5.66875074,35.8207466 5.66875074,35.863077 5.66133333,35.9044118 C5.6536503,35.9463842 5.63314959,35.9849259 5.60266667,36.0147059 L5.522,36.1176471 C5.22866667,36.4558824 5.30933333,36.9117647 5.764,37.3235294 C5.78969032,37.2298328 5.82406215,37.1387501 5.86666667,37.0514706 L5.86666667,37.0514706 Z M24.9333333,39.1323529 C24.9658905,39.0555467 24.9833219,38.9731507 24.9846667,38.8897059 C24.9807045,38.5421259 24.7006531,38.2613257 24.354,38.2573529 L23.716,38.2573529 C23.6776627,38.2683851 23.637004,38.2683851 23.5986667,38.2573529 C23.5611553,38.2409911 23.530179,38.2125203 23.5106667,38.1764706 L23.188,37.7058824 C23.2106319,37.7421136 23.2439512,37.7703822 23.2833333,37.7867647 C23.3215462,37.798651 23.3624538,37.798651 23.4006667,37.7867647 L24.2,37.7867647 C24.2386679,37.7784152 24.2786655,37.7784152 24.3173333,37.7867647 C24.3537579,37.80768 24.3860659,37.8350907 24.4126667,37.8676471 L24.024,37.3088235 C24.0025765,37.2724264 23.9723001,37.242069 23.936,37.2205882 C23.8971764,37.2138642 23.8574903,37.2138642 23.8186667,37.2205882 L22.9826667,37.2205882 C22.9441865,37.2305503 22.9038135,37.2305503 22.8653333,37.2205882 C22.8278219,37.2042264 22.7968456,37.1757556 22.7773333,37.1397059 L22.4106667,36.6102941 C22.4370206,36.643093 22.4693777,36.6705453 22.506,36.6911765 C22.5443373,36.7022086 22.584996,36.7022086 22.6233333,36.6911765 L23.4666667,36.6911765 C23.505004,36.6801443 23.5456627,36.6801443 23.584,36.6911765 C23.6222879,36.7093101 23.6551602,36.7371995 23.6793333,36.7720588 L23.2906667,36.2058824 C23.2667371,36.1735494 23.2368686,36.1460968 23.2026667,36.125 C23.1614566,36.1174019 23.1192101,36.1174019 23.078,36.125 L22.418,36.125 C22.3796627,36.1360322 22.339004,36.1360322 22.3006667,36.125 C22.2623788,36.1068664 22.2295065,36.078977 22.2053333,36.0441176 L21.7653333,35.3897059 C22.5608778,35.3752394 23.2645238,34.868782 23.5326667,34.1176471 C23.7233333,33.2426471 22.8506667,32.3970588 21.5966667,32.2132353 C21.3837833,32.1803043 21.2274814,31.9953749 21.23,31.7794118 C21.2314762,31.5983388 21.3413973,31.4359167 21.5086667,31.3676471 C21.3688193,31.3108191 21.2195552,31.2808864 21.0686667,31.2794118 C20.8176541,31.2633176 20.5705834,31.3481167 20.3820606,31.5150675 C20.1935378,31.6820182 20.0790858,31.9173739 20.064,32.1691176 C20.0632369,32.256847 20.0781385,32.3440052 20.108,32.4264706 C19.4799889,32.7207861 18.9260835,33.1530325 18.4873333,33.6911765 C18.9655296,33.5621439 19.4587952,33.497848 19.954,33.5 C19.9500314,33.4756517 19.9500314,33.4508189 19.954,33.4264706 C19.954,33.0488053 20.2593418,32.7426471 20.636,32.7426471 L20.636,32.7426471 C20.4208123,32.834561 20.2740316,33.0383392 20.2546667,33.2720588 C20.2585621,33.4653419 20.413899,33.6210941 20.6066667,33.625 C20.6800362,33.6232128 20.7513328,33.6002347 20.812,33.5588235 C20.8049562,33.5125227 20.8049562,33.4654185 20.812,33.4191176 C20.812,33.1470362 21.0319774,32.9264706 21.3033333,32.9264706 L21.3693333,32.9264706 C21.1284924,33.0295516 20.9954206,33.2903788 21.0529888,33.5465209 C21.1105571,33.8026631 21.3423426,33.981049 21.604,33.9705882 L21.692,33.9705882 C21.6883601,33.9363716 21.6883601,33.9018637 21.692,33.8676471 C21.692,33.7284185 21.7660794,33.5997661 21.8863333,33.5301518 C22.0065872,33.4605376 22.1547461,33.4605376 22.275,33.5301518 C22.3952539,33.5997661 22.4693333,33.7284185 22.4693333,33.8676471 C22.4693333,34.3382353 21.9486667,34.3823529 21.5673333,34.2720588 C20.5735409,33.9541374 19.5247594,33.8464751 18.4873333,33.9558824 C17.226,34.1323529 15.1653333,34.9926471 12.9726667,34.9191176 C12.444374,34.8992769 11.9201801,34.8178466 11.4106667,34.6764706 C11.4621586,34.7258052 11.5088163,34.7799744 11.55,34.8382353 C11.784002,35.1649851 11.8205993,35.5940358 11.6453333,35.9558824 C11.5892812,35.482908 11.3186708,35.0623404 10.912,34.8161765 C10.7726667,34.7205882 10.7213333,34.625 10.7433333,34.5 L10.8386667,33.9338235 C10.8280447,33.9723161 10.8280447,34.012978 10.8386667,34.0514706 C10.8463497,34.0934431 10.8668504,34.1319847 10.8973333,34.1617647 L11.11,34.3676471 C11.1920751,33.8030411 11.0527682,33.2285108 10.7213333,32.7647059 C10.8701473,32.3699252 10.895723,31.9391055 10.7946667,31.5294118 C10.778255,31.7515621 10.651477,31.9505278 10.4573333,32.0588235 C10.3444477,32.1155265 10.2612952,32.2181208 10.2290251,32.3405124 C10.196755,32.462904 10.2184771,32.5932978 10.2886667,32.6985294 C10.0613333,32.5882353 9.75333333,32.1691176 9.92933333,31.9191176 C10.1053333,31.6691176 10.6626667,31.7794118 10.7213333,31.3308824 C10.4572683,31.2586601 10.1787317,31.2586601 9.91466667,31.3308824 C9.70737704,31.1010476 9.40953204,30.9745958 9.10066667,30.9852941 C8.81999796,30.73706 8.44388068,30.6266169 8.074,30.6838235 C7.70418831,30.627654 7.32850193,30.7379706 7.04733333,30.9852941 C6.74081044,30.9757722 6.44568612,31.1022079 6.24066667,31.3308824 C5.97660158,31.2586601 5.69806508,31.2586601 5.434,31.3308824 C5.5,31.7794118 6.028,31.6544118 6.226,31.9191176 C6.424,32.1838235 6.094,32.5882353 5.86666667,32.6985294 C5.93635307,32.5923553 5.95698407,32.4612044 5.92327387,32.3386782 C5.88956367,32.216152 5.80478791,32.1141565 5.69066667,32.0588235 C5.49934298,31.9487361 5.37551928,31.7500885 5.36066667,31.5294118 C5.25726673,31.9383641 5.2802841,32.3691705 5.42666667,32.7647059 C5.09780613,33.2295626 4.96114917,33.8040025 5.04533333,34.3676471 L5.25066667,34.1617647 C5.31103176,34.1025138 5.33845502,34.0172744 5.324,33.9338235 L5.42666667,34.5 C5.42666667,34.625 5.42666667,34.7205882 5.258,34.8161765 C4.85442777,35.0655268 4.58489138,35.4844252 4.52466667,35.9558824 C4.35474454,35.5921391 4.39400547,35.1647378 4.62733333,34.8382353 C4.1496263,34.5753193 3.72050027,34.2320954 3.35866667,33.8235294 C3.17568991,33.5988745 3.17568991,33.2761255 3.35866667,33.0514706 C3.70333333,32.5661765 3.784,32.0514706 3.35866667,31.6911765 C3.36228109,31.6668006 3.36228109,31.6420229 3.35866667,31.6176471 C3.36085744,31.298648 3.13576342,31.0234845 2.82333333,30.9632353 C2.88417912,31.0520449 2.91735872,31.156968 2.91866667,31.2647059 C2.91924354,31.3898241 2.87792669,31.5115169 2.80133333,31.6102941 C2.9537083,31.8108527 2.92137023,32.0961886 2.728,32.2573529 C2.73522223,32.2061371 2.73522223,32.1541571 2.728,32.1029412 C2.72899685,31.7952408 2.53880507,31.5194588 2.25133333,31.4117647 C2.20222519,31.1669332 1.98706402,30.9912621 1.738,30.9926471 C1.59783431,30.9923024 1.46328391,31.0478537 1.364,31.1470588 C1.56054346,31.163652 1.71756274,31.3180041 1.738,31.5147059 C1.64294822,31.5883689 1.56740086,31.6843181 1.518,31.7941176 L1.518,31.7941176 C1.86013956,31.759909 2.16529065,32.0099465 2.2,32.3529412 C2.2,32.3529412 2.2,32.4338235 2.2,32.4705882 C2.17424752,32.3296294 2.10797614,32.1992879 2.00933333,32.0955882 C1.81020772,31.9139083 1.52381548,31.8650914 1.276,31.9705882 C1.17774569,31.8474946 1.02988695,31.7747154 0.872666667,31.7720588 C0.692394037,31.7721449 0.525378295,31.8670402 0.432666667,32.0220588 C0.613719401,32.0272292 0.78194089,32.1170058 0.887333333,32.2647059 C0.618531225,32.5745957 0.618531225,33.0356984 0.887333333,33.3455882 C1.07951505,33.5395972 1.37091203,33.5951107 1.62066667,33.4852941 L1.672,33.4852941 C1.71604413,33.4832847 1.75898961,33.4994364 1.79085067,33.5299937 C1.82271174,33.560551 1.84071224,33.6028513 1.84066667,33.6470588 C1.84071224,33.6912664 1.82271174,33.7335667 1.79085067,33.764124 C1.75898961,33.7946813 1.71604413,33.810833 1.672,33.8088235 C1.63902526,33.8219263 1.60230807,33.8219263 1.56933333,33.8088235 C1.5057458,33.7552868 1.42502052,33.7265658 1.342,33.7279412 C1.14354568,33.7279412 0.982666667,33.8892503 0.982666667,34.0882353 L0.982666667,34.1323529 C0.948863939,34.1399511 0.913802727,34.1399511 0.88,34.1323529 C0.785887841,34.1361725 0.694809527,34.0985694 0.630666667,34.0294118 C0.62355043,34.070773 0.62355043,34.1130506 0.630666667,34.1544118 C0.626255986,34.4060734 0.820125699,34.6166605 1.07066667,34.6323529 C1.18324099,34.9363901 1.48118389,35.1305707 1.804,35.1102941 C1.9593394,35.1108488 2.11084194,35.0619294 2.23666667,34.9705882 C2.33764601,34.8989112 2.47012791,34.8898897 2.57984526,34.9472193 C2.6895626,35.0045488 2.75808074,35.1185968 2.75733333,35.2426471 C2.75510997,35.396466 2.64964429,35.529406 2.50066667,35.5661765 L2.244,35.625 C2.20320451,35.6362701 2.16012882,35.6362701 2.11933333,35.625 C2.07861026,35.6142183 2.04094964,35.594079 2.00933333,35.5661765 L2.60333333,36.125 C2.63281032,36.1537048 2.6677178,36.1762053 2.706,36.1911765 L2.83066667,36.1911765 L3.31466667,36.0808824 C3.35550911,36.0699659 3.39849089,36.0699659 3.43933333,36.0808824 C3.47841338,36.0903646 3.51401182,36.110761 3.542,36.1397059 L3.94533333,36.5220588 C3.91557151,36.4954941 3.88060199,36.4754581 3.84266667,36.4632353 L3.608,36.4632353 L3.124,36.5661765 C3.08566271,36.5772086 3.04500395,36.5772086 3.00666667,36.5661765 C2.97829205,36.5489341 2.95341325,36.5264833 2.93333333,36.5 L3.476,37.0073529 C3.50356634,37.0383828 3.53906813,37.0612664 3.57866667,37.0735294 L3.66666667,37.0735294 L4.15066667,36.9705882 C4.18900395,36.9595561 4.22966271,36.9595561 4.268,36.9705882 C4.30882437,36.9811099 4.34654262,37.0012801 4.378,37.0294118 L4.78133333,37.4191176 C4.75334515,37.3901727 4.71774671,37.3697764 4.67866667,37.3602941 C4.63782422,37.3493776 4.59484244,37.3493776 4.554,37.3602941 L4.07,37.5 C4.02915756,37.5109165 3.98617578,37.5109165 3.94533333,37.5 C3.90625329,37.4905177 3.87065485,37.4701214 3.84266667,37.4411765 L4.378,37.9558824 C4.41140459,37.9810879 4.44851444,38.0009327 4.488,38.0147059 C4.52884244,38.0256224 4.57182422,38.0256224 4.61266667,38.0147059 L5.192,37.8897059 C4.62733333,38.2132353 4.026,38.5735294 3.388,38.9779412 C3.01016643,39.2265764 2.53212348,39.2653654 2.11933333,39.0808824 C1.88675578,38.9876257 1.63323359,38.9596637 1.386,39 C1.16263703,39.0384434 0.967128819,39.1727112 0.850666667,39.3676471 C0.941104336,39.3290173 1.03836484,39.309013 1.13666667,39.3088235 C1.34135731,39.3055254 1.53810498,39.3881671 1.67933333,39.5367647 C1.44285493,39.4482733 1.1824784,39.4482733 0.946,39.5367647 C0.502922162,39.6678373 0.226349984,40.1090149 0.300666667,40.5661765 C0.152582862,40.6258392 0.0441027777,40.7558493 0.0116711247,40.9125287 C-0.0207605282,41.0692081 0.027159959,41.2317654 0.139333333,41.3455882 C0.1911546,41.1333062 0.376264484,40.9806313 0.594,40.9705882 C0.693053457,41.0316352 0.802408809,41.0739991 0.916666667,41.0955882 C0.952759942,41.0356395 0.997208888,40.9811677 1.04866667,40.9338235 C1.04479437,40.8947039 1.04479437,40.8552961 1.04866667,40.8161765 C1.04866667,40.3816583 1.3999739,40.0294118 1.83333333,40.0294118 L1.94333333,40.0294118 C1.59681838,40.1064377 1.34634371,40.4090213 1.33466667,40.7647059 C1.33068439,40.8111889 1.33068439,40.8579287 1.33466667,40.9044118 C1.14494863,40.9796129 1.02004678,41.1630979 1.01933333,41.3676471 C1.01741969,41.4840801 1.05931129,41.5969648 1.13666667,41.6838235 C1.2650283,41.40152 1.53288707,41.2084817 1.84066667,41.1764706 C1.95690448,41.2159583 2.07762578,41.2406611 2.2,41.25 C2.2780397,41.2575773 2.35662697,41.2575773 2.43466667,41.25 C2.28955469,41.0634114 2.26508371,40.8095355 2.37187238,40.5985363 C2.47866106,40.3875371 2.69746286,40.2574431 2.93333333,40.2647059 L3.014,40.2647059 C2.69133333,40.4044118 2.49333333,40.6838235 2.56666667,40.9411765 C2.63081833,41.1345101 2.80409669,41.2706078 3.00666667,41.2867647 C3.00055668,41.4201811 2.96552153,41.5506596 2.904,41.6691176 C3.1805093,41.6432443 3.42430262,41.4765771 3.54933333,41.2279412 C3.84908181,41.1469696 4.04719554,40.8614196 4.01866667,40.5514706 C3.99521091,40.4559792 3.93785537,40.3723299 3.85733333,40.3161765 L3.85733333,40.3161765 C3.88161026,40.1542504 4.02035785,40.0344819 4.18366667,40.0344819 C4.34697548,40.0344819 4.48572308,40.1542504 4.51,40.3161765 C4.50891348,40.3980936 4.47755716,40.476694 4.422,40.5367647 L5.13333333,40.5367647 C5.17181346,40.5467268 5.21218654,40.5467268 5.25066667,40.5367647 C5.28240096,40.5129003 5.30555966,40.4793594 5.31666667,40.4411765 L5.75666667,39.7941176 C5.76877553,39.7603602 5.78891296,39.7300733 5.81533333,39.7058824 C5.83234422,39.7032562 5.84965578,39.7032562 5.86666667,39.7058824 L6.402,39.7058824 C6.37563966,39.6983224 6.34769367,39.6983224 6.32133333,39.7058824 C6.29823396,39.721582 6.27832443,39.7415447 6.26266667,39.7647059 L5.86666667,40.4411765 C5.84403474,40.4774077 5.81071551,40.5056763 5.77133333,40.5220588 C5.73312051,40.5339452 5.69221282,40.5339452 5.654,40.5220588 L6.45333333,40.5220588 C6.49167062,40.533091 6.53232938,40.533091 6.57066667,40.5220588 C6.60895455,40.5039252 6.64182688,40.4760358 6.666,40.4411765 L7.15,39.7058824 C6.8187938,39.5113084 6.63221608,39.1400333 6.67333333,38.7573529 C6.71586424,38.4862623 6.77712276,38.218461 6.85666667,37.9558824 L6.85666667,37.875 C6.86755405,37.8340484 6.86755405,37.7909516 6.85666667,37.75 C6.83990657,37.7141588 6.82028726,37.6797332 6.798,37.6470588 L7.216,38.0808824 C7.24444097,38.1077527 7.26692767,38.1403203 7.282,38.1764706 C7.2889747,38.2178438 7.2889747,38.2600974 7.282,38.3014706 L7.282,38.3970588 C7.282,38.5735294 7.04733333,38.9411765 7.44333333,39.2720588 L7.56066667,39.3602941 L7.83933333,39.5367647 L7.83933333,38.4632353 L8.23533333,38.4632353 L8.23533333,39.625 C8.22471139,39.6634926 8.22471139,39.7041545 8.23533333,39.7426471 C8.25418677,39.7785394 8.28197481,39.8089347 8.316,39.8308824 L8.70466667,40.0735294 C8.73888326,40.0989667 8.77953911,40.1142534 8.822,40.1176471 C8.8607971,40.1246747 8.90053623,40.1246747 8.93933333,40.1176471 L9.67266667,39.8088235 L9.548,39.8088235 C9.50585427,39.8040637 9.46554173,39.788906 9.43066667,39.7647059 L8.61666667,39.2426471 C9.01266667,38.9117647 8.79266667,38.5441176 8.778,38.3676471 L8.778,38.2720588 C8.77088376,38.2306976 8.77088376,38.18842 8.778,38.1470588 C8.79577405,38.1105689 8.82071748,38.0780558 8.85133333,38.0514706 L9.26933333,37.6176471 C9.21530311,37.6806426 9.18886813,37.7628102 9.196,37.8455882 L9.196,37.9264706 C9.196,38.2205882 9.51866667,38.7426471 9.27666667,39.0367647 L10.01,39.5147059 C10.0483899,39.5253562 10.0889434,39.5253562 10.1273333,39.5147059 C10.1678048,39.5281654 10.2115285,39.5281654 10.252,39.5147059 L10.9853333,39.1911765 C10.912,39.2303922 10.824,39.2303922 10.7506667,39.1911765 L9.93666667,38.6764706 C10.0648325,38.2511098 10.0145163,37.7917427 9.79733333,37.4044118 L9.79733333,37.3529412 C9.78962784,37.314106 9.78962784,37.2741293 9.79733333,37.2352941 C9.78633059,37.1968543 9.78633059,37.1560869 9.79733333,37.1176471 L10.076,36.6176471 C10.0649973,36.6560869 10.0649973,36.6968543 10.076,36.7352941 C10.0689911,36.774195 10.0689911,36.8140403 10.076,36.8529412 L10.1786667,37.0514706 C10.2313603,37.1376509 10.2755685,37.2287662 10.3106667,37.3235294 C10.7653333,36.9117647 10.868,36.5147059 10.5746667,36.1764706 L10.4866667,36.0808824 C10.4636796,36.0471658 10.4463402,36.0099105 10.4353333,35.9705882 C10.4280697,35.9292398 10.4280697,35.8869366 10.4353333,35.8455882 L10.5893333,35.2941176 C10.5783306,35.3325574 10.5783306,35.3733249 10.5893333,35.4117647 C10.5982566,35.4532925 10.6185763,35.4914938 10.648,35.5220588 L10.934,35.8529412 C11.484,36.4852941 11.1466667,37.3235294 10.4866667,37.9044118 C10.5342458,38.0538831 10.5492509,38.2118576 10.5306667,38.3676471 L11.4106667,38.9191176 C11.4448833,38.9445549 11.4855391,38.9598416 11.528,38.9632353 C11.5667971,38.9702629 11.6065362,38.9702629 11.6453333,38.9632353 L12.2833333,38.6838235 C12.2424909,38.69474 12.1995091,38.69474 12.1586667,38.6838235 C12.0795824,38.6838483 12.0038387,38.6518537 11.9486123,38.5950953 C11.8933859,38.5383368 11.8633562,38.4616239 11.8653333,38.3823529 C11.8680819,38.2550903 11.9502543,38.1432724 12.0706667,38.1029412 C14.4906667,37.3676471 16.72,35.4632353 18.1793333,35.4632353 C18.9126667,35.4632353 19.47,35.8970588 19.47,36.4338235 C19.4699,36.5190844 19.4550115,36.6036783 19.426,36.6838235 C19.1106667,37.5588235 19.5653333,38.3970588 20.768,38.7205882 C20.9631566,38.7737754 21.0984499,38.9516342 21.098,39.1544118 C21.102022,39.1935238 21.102022,39.2329468 21.098,39.2720588 L21.1786667,39.2720588 C21.502156,39.2810821 21.8093375,39.1298308 22,38.8676471 C22.2053333,38.8676471 22.4326667,38.8676471 22.66,38.8676471 C22.6906799,38.9280191 22.7128901,38.9923533 22.726,39.0588235 C22.7945313,39.2582938 22.7151566,39.4786884 22.5353333,39.5882353 C22.245857,39.6288843 21.952143,39.6288843 21.6626667,39.5882353 C21.1767625,39.5756691 20.7697433,39.9543928 20.746,40.4411765 C20.7421277,40.4802961 20.7421277,40.5197039 20.746,40.5588235 C20.5872109,40.6592013 20.4904439,40.8338476 20.4893333,41.0220588 C20.4911346,41.1174059 20.5163202,41.2108419 20.5626667,41.2941176 C20.7144921,41.1128601 20.9120195,40.9757447 21.1346667,40.8970588 C21.1505427,40.4590178 21.5115261,40.1133731 21.9486667,40.1176471 C22.0119946,40.1100195 22.0760054,40.1100195 22.1393333,40.1176471 C21.6918614,40.1797341 21.3576887,40.5617722 21.3546667,41.0147059 C21.3510268,41.0489226 21.3510268,41.0834304 21.3546667,41.1176471 C21.2958216,41.1844823 21.2643826,41.2711706 21.2666667,41.3602941 C21.2671849,41.4726431 21.3151481,41.5795129 21.3986667,41.6544118 C21.5167167,41.4403106 21.7144311,41.2817162 21.9486667,41.2132353 C22.1058963,41.1562313 22.2751707,41.1410319 22.44,41.1691176 C22.4159166,41.0980714 22.4035323,41.023567 22.4033333,40.9485294 C22.4033333,40.5424377 22.7316579,40.2132353 23.1366667,40.2132353 L23.2393333,40.2132353 C23.0134669,40.2444016 22.8293088,40.4103641 22.774392,40.6322382 C22.7194751,40.8541124 22.8048751,41.0871513 22.99,41.2205882 L22.99,41.2205882 C22.9904465,41.3692461 23.0578177,41.5097529 23.1733333,41.6029412 C23.2228065,41.3418555 23.4509547,41.1532845 23.716,41.1544118 C23.9068258,41.1582687 24.0971537,41.1334847 24.2806667,41.0808824 C24.5295647,40.99972 24.7001368,40.7697167 24.706,40.5073529 C24.7061582,40.3275614 24.6253069,40.1573197 24.486,40.0441176 C24.5522144,39.6429209 24.5347353,39.2323156 24.4346667,38.8382353 L24.5006667,38.8382353 C24.6635674,38.8390217 24.8151459,38.921922 24.904,39.0588235 L24.9333333,39.1323529 Z M33.6746667,0 L32.846,0 L32.846,50 L33.6746667,50 L33.6746667,0 Z" id="Shape" fill="#0077C0"></path>
                    <path d="M105.702667,23.0073529 L104.536667,23.0073529 L104.536667,28.3382353 L105.460667,28.3382353 L105.460667,24.8161765 L105.460667,24.8161765 L106.604667,28.3382353 L107.228,28.3382353 L108.364667,24.8382353 L108.364667,24.8382353 L108.364667,28.3308824 L109.288667,28.3308824 L109.288667,23.0073529 L108.13,23.0073529 L106.956667,27.2058824 L106.956667,27.2058824 L105.702667,23.0073529 Z M102.3,23.0073529 L102.3,26.4705882 C102.318295,26.7935501 102.2193,27.1122254 102.021333,27.3676471 C101.824028,27.582171 101.542032,27.6979638 101.251333,27.6838235 C100.97234,27.6920655 100.703956,27.5763518 100.518,27.3676471 C100.314325,27.1149096 100.212307,26.7949212 100.232,26.4705882 L100.232,23.0073529 L99.2933333,23.0073529 L99.2933333,26.4705882 C99.2610742,26.994283 99.4562738,27.5063764 99.8286667,27.875 C100.639865,28.5676351 101.824233,28.5952522 102.666667,27.9411765 C103.044259,27.575519 103.242663,27.062053 103.209333,26.5367647 L103.209333,23.0073529 L102.3,23.0073529 Z M97.9733333,23.0073529 L97.0493333,23.0073529 L97.0493333,28.3382353 L97.9733333,28.3382353 L97.9733333,23.0073529 Z M92.9426667,23.7426471 L93.7933333,23.7426471 C94.0204846,23.725494 94.2426876,23.8151562 94.3946667,23.9852941 C94.5347528,24.1736079 94.6047912,24.4050924 94.5926667,24.6397059 C94.6085415,24.870238 94.5379223,25.098397 94.3946667,25.2794118 C94.2385156,25.4414355 94.0168977,25.522732 93.7933333,25.5 L92.9426667,25.5 L92.9426667,23.7426471 Z M93.8666667,26.1764706 C94.0800788,26.1687234 94.2862578,26.2546372 94.4313333,26.4117647 C94.5737284,26.5989013 94.6440299,26.8312555 94.6293333,27.0661765 L94.6293333,27.5441176 C94.6293333,27.7058824 94.6293333,27.8602941 94.6293333,28.0073529 C94.6298464,28.1202019 94.6496906,28.2321237 94.688,28.3382353 L95.6413333,28.3382353 L95.6413333,28.2573529 C95.591374,28.1645418 95.5637499,28.0613036 95.5606667,27.9558824 C95.5535653,27.8211725 95.5535653,27.6861805 95.5606667,27.5514706 L95.5606667,27.0588235 C95.5716548,26.7768466 95.5057339,26.4972044 95.37,26.25 C95.230407,26.0246067 95.0099458,25.8614502 94.754,25.7941176 C95.242508,25.5866346 95.5520103,25.0977189 95.5313333,24.5661765 C95.5548927,24.1354678 95.3886677,23.716106 95.0766667,23.4191176 C94.7196247,23.1283329 94.2672605,22.9815113 93.808,23.0073529 L92.0333333,23.0073529 L92.0333333,28.3382353 L92.9573333,28.3382353 L92.9573333,26.1764706 L93.8666667,26.1764706 Z M90.4273333,25.2132353 L88.4766667,25.2132353 L88.4766667,23.7426471 L90.7646667,23.7426471 L90.7646667,23.0073529 L87.5526667,23.0073529 L87.5526667,28.3382353 L90.7646667,28.3382353 L90.7646667,27.6029412 L88.4766667,27.6029412 L88.4766667,25.9191176 L90.4273333,25.9191176 L90.4273333,25.2132353 Z M85.9613333,25.2132353 L84.0033333,25.2132353 L84.0033333,23.7426471 L86.2913333,23.7426471 L86.2913333,23.0073529 L83.0866667,23.0073529 L83.0866667,28.3382353 L86.2913333,28.3382353 L86.2913333,27.6029412 L84.0033333,27.6029412 L84.0033333,25.9191176 L85.9613333,25.9191176 L85.9613333,25.2132353 Z M82.1993333,23.0073529 L78.5326667,23.0073529 L78.5326667,23.7426471 L79.9333333,23.7426471 L79.9333333,28.3676471 L80.85,28.3676471 L80.85,23.7132353 L82.2213333,23.7132353 L82.1993333,23.0073529 Z M76.956,27.4926471 C76.7622064,27.650126 76.5152628,27.7265144 76.2666667,27.7058824 C76.0036137,27.7241137 75.7429376,27.6457018 75.5333333,27.4852941 C75.3323094,27.2968103 75.2317443,27.0242861 75.262,26.75 L74.382,26.75 L74.382,26.75 C74.3310437,27.2137654 74.5155896,27.6722211 74.8733333,27.9705882 C75.2728077,28.2546826 75.7554039,28.3970022 76.2446667,28.375 C76.7242115,28.4011775 77.1981175,28.2609625 77.5866667,27.9779412 C77.8828135,27.7153785 78.0607126,27.344066 78.0800406,26.9481668 C78.0993686,26.5522676 77.9584887,26.1653088 77.6893333,25.875 C77.3260737,25.5900882 76.9058822,25.3869542 76.4573333,25.2794118 C76.1626469,25.2094915 75.8855301,25.0793239 75.6433333,24.8970588 C75.5095981,24.7541022 75.4383222,24.5635247 75.4453333,24.3676471 C75.4387869,24.1652335 75.5096159,23.96796 75.6433333,23.8161765 C75.8136974,23.663323 76.0386524,23.5863684 76.2666667,23.6029412 C76.504992,23.5880385 76.7371164,23.6827603 76.8973333,23.8602941 C77.0443845,24.0566606 77.1171486,24.2989875 77.1026667,24.5441176 L77.99,24.5441176 L77.99,24.5441176 C78.0284664,24.1032275 77.8668555,23.6684121 77.55,23.3602941 C77.191248,23.0549625 76.7291393,22.8996369 76.2593333,22.9264706 C75.7981359,22.9029893 75.3442969,23.049443 74.9833333,23.3382353 C74.6744252,23.6043911 74.5019452,23.9962109 74.514,24.4044118 C74.4852697,24.7875818 74.6308198,25.1632403 74.91,25.4264706 C75.2842142,25.7097991 75.7141248,25.9102922 76.1713333,26.0147059 C76.4531462,26.0892697 76.7173735,26.2192373 76.9486667,26.3970588 C77.0896053,26.5394067 77.1664288,26.733307 77.1613333,26.9338235 C77.1648047,27.1427277 77.0794773,27.3432485 76.9266667,27.4852941 L76.956,27.4926471 Z M73.216,23 L72.3213333,23 L72.3213333,28.3308824 L73.2453333,28.3308824 L73.216,23 Z M70.7006667,23 L69.806,23 L69.806,26.6764706 L69.806,26.6764706 L67.7673333,23 L66.8213333,23 L66.8213333,28.3308824 L67.7453333,28.3308824 L67.7453333,24.6544118 L67.7453333,24.6544118 L69.784,28.3308824 L70.708,28.3308824 L70.7006667,23 Z M65.4206667,23 L64.5333333,23 L64.5333333,28.3308824 L65.4573333,28.3308824 L65.4206667,23 Z M59.4586667,23 L58.322,23 L58.322,28.3308824 L59.246,28.3308824 L59.246,24.8161765 L59.246,24.8161765 L60.39,28.3382353 L61.0133333,28.3382353 L62.1573333,24.8382353 L62.1573333,24.8382353 L62.1573333,28.3308824 L63.0813333,28.3308824 L63.0813333,23.0073529 L61.974,23.0073529 L60.7346667,27.2058824 L60.7346667,27.2058824 L59.4586667,23 Z M56.7013333,25.2058824 L54.7726667,25.2058824 L54.7726667,23.7352941 L57.0606667,23.7352941 L57.0606667,23 L53.856,23 L53.856,28.3308824 L57.0606667,28.3308824 L57.0606667,27.5955882 L54.7726667,27.5955882 L54.7726667,25.9191176 L56.7306667,25.9191176 L56.7013333,25.2058824 Z M51.524,27.4852941 C51.3302064,27.642773 51.0832628,27.7191615 50.8346667,27.6985294 C50.5716137,27.7167608 50.3109376,27.6383488 50.1013333,27.4779412 C49.9032025,27.2875419 49.8031841,27.0164992 49.83,26.7426471 L48.95,26.7426471 L48.95,26.7426471 C48.8980402,27.2081134 49.0859604,27.6680864 49.4486667,27.9632353 C49.844095,28.2499345 50.3253247,28.3926141 50.8126667,28.3676471 C51.2922115,28.3938246 51.7661175,28.2536095 52.1546667,27.9705882 C52.489219,27.7153813 52.675972,27.3105858 52.6533333,26.8897059 C52.6789108,26.5070129 52.5338664,26.1326595 52.2573333,25.8676471 C51.8940737,25.5827353 51.4738822,25.3796013 51.0253333,25.2720588 C50.7306469,25.2021386 50.4535301,25.0719709 50.2113333,24.8897059 C50.0775981,24.7467492 50.0063222,24.5561718 50.0133333,24.3602941 C50.0067869,24.1578806 50.0776159,23.9606071 50.2113333,23.8088235 C50.3816974,23.65597 50.6066524,23.5790155 50.8346667,23.5955882 C51.072992,23.5806856 51.3051164,23.6754074 51.4653333,23.8529412 C51.6144231,24.0486076 51.6897474,24.2908107 51.678,24.5367647 L52.558,24.5367647 L52.558,24.5367647 C52.5964664,24.0958746 52.4348555,23.6610591 52.118,23.3529412 C51.759248,23.0476096 51.2971393,22.8922839 50.8273333,22.9191176 C50.3681648,22.8939871 49.9160498,23.0407278 49.5586667,23.3308824 C49.2601444,23.6074459 49.1035751,24.0053292 49.1333333,24.4117647 C49.104603,24.7949347 49.2501532,25.1705932 49.5293333,25.4338235 C49.9035476,25.717152 50.3334582,25.9176451 50.7906667,26.0220588 C51.0734803,26.0939121 51.3382321,26.2241376 51.568,26.4044118 C51.7089386,26.5467596 51.7857621,26.7406599 51.7806667,26.9411765 C51.784138,27.1500807 51.6988106,27.3506015 51.546,27.4926471 L51.524,27.4852941 Z M47.8353333,23.0073529 L46.9333333,23.0073529 L46.9333333,28.3382353 L47.8573333,28.3382353 L47.8353333,23.0073529 Z M44.572,27.4191176 C44.3535328,27.6268277 44.0583903,27.7334697 43.758,27.7132353 C43.4164244,27.7287731 43.082283,27.61006 42.8266667,27.3823529 C42.5667502,27.1147762 42.4356184,26.7471618 42.4673333,26.375 L41.5873333,26.375 L41.5873333,26.375 C41.5495371,26.9415359 41.7905579,27.4907751 42.2326667,27.8455882 C42.6712749,28.197246 43.2184909,28.384473 43.78,28.375 C44.311315,28.396271 44.8323341,28.223875 45.2466667,27.8897059 C45.6236095,27.5685443 45.8319196,27.0911339 45.8113333,26.5955882 C45.8298214,26.1245 45.6579594,25.6658595 45.3346667,25.3235294 C44.9445475,24.9576172 44.4713227,24.6926094 43.956,24.5514706 C43.5900611,24.4474441 43.250187,24.2670297 42.9586667,24.0220588 C42.757579,23.8317675 42.6480163,23.5638267 42.658,23.2867647 C42.6475644,23.0029222 42.747477,22.7261098 42.9366667,22.5147059 C43.1460545,22.3007382 43.437558,22.1881154 43.736,22.2058824 C44.0568803,22.1894753 44.3666942,22.3257219 44.572,22.5735294 C44.7837387,22.8426252 44.8906072,23.179769 44.8726667,23.5220588 L45.76,23.5220588 L45.76,23.5220588 C45.7773239,22.9979624 45.5783529,22.4898948 45.21,22.1176471 C44.8239232,21.7264552 44.2918133,21.5157098 43.7433333,21.5367647 C43.2084064,21.5073743 42.6828671,21.6865354 42.2766667,22.0367647 C41.9070169,22.3601857 41.7000747,22.8317664 41.712,23.3235294 C41.6916015,23.7876712 41.8768097,24.2371272 42.218,24.5514706 C42.6466221,24.9023359 43.1475496,25.1534694 43.6846667,25.2867647 C44.0312356,25.384756 44.3485181,25.5665451 44.6086667,25.8161765 C44.7797907,26.0227351 44.8732162,26.2829442 44.8726667,26.5514706 C44.8897153,26.8412536 44.7830641,27.1246351 44.5793333,27.3308824 L44.572,27.4191176 Z" id="Shape" fill="#231F20"></path>
                </g>
            </g>
        </g>
    </g>
</svg>