<?xml version="1.0" encoding="UTF-8"?>
<svg width="101px" height="50px" viewBox="0 0 101 50" version="1.1" xmlns="http://www.w3.org/2000/svg" xmlns:xlink="http://www.w3.org/1999/xlink">
    <!-- Generator: Sketch 53.2 (72643) - https://sketchapp.com -->
    <title>sotsiaalfond_logo</title>
    <desc>Created with Sketch.</desc>
    <g id="Symbols" stroke="none" stroke-width="1" fill="none" fill-rule="evenodd">
        <g id="components/footer" transform="translate(-1289.000000, -50.000000)">
            <g id="logod" transform="translate(883.000000, 50.000000)">
                <g id="sotsiaalfond_logo" transform="translate(406.000000, 0.000000)">
                    <polygon id="Path" fill="#1A1A18" points="12.8070748 43.0205479 12.8070748 39.1438356 15.6172109 39.1438356 15.6172109 39.6027397 13.322381 39.6027397 13.322381 40.7876712 15.4729252 40.7876712 15.4729252 41.2465753 13.322381 41.2465753 13.322381 42.5616438 15.7134014 42.5616438 15.7134014 43.0205479"></polygon>
                    <path d="M18.207483,43.0205479 L18.207483,42.609589 C18.0130662,42.9119124 17.6744112,43.0910993 17.3142857,43.0821918 C17.1541046,43.0843861 16.9951481,43.0540922 16.8470748,42.9931507 C16.7209249,42.9415819 16.6098584,42.8591308 16.5241497,42.7534247 C16.4515758,42.6460803 16.4024201,42.5247411 16.3798639,42.3972603 C16.3658091,42.2491892 16.3658091,42.1001259 16.3798639,41.9520548 L16.3798639,40.2123288 L16.8539456,40.2123288 L16.8539456,41.7808219 C16.8421503,41.9472812 16.8421503,42.1143626 16.8539456,42.2808219 C16.8834121,42.3976001 16.951112,42.5012434 17.0463265,42.5753425 C17.1531442,42.6491065 17.2805575,42.6874509 17.4104762,42.6849315 C17.5505782,42.6833422 17.6878757,42.6455851 17.8089796,42.5753425 C17.9306761,42.5089294 18.0254089,42.4023848 18.0769388,42.2739726 C18.1403036,42.0985072 18.1683215,41.9123038 18.1593878,41.7260274 L18.1593878,40.2191781 L18.6334694,40.2191781 L18.6334694,43.0273973 L18.207483,43.0205479 Z" id="Path" fill="#1A1A18"></path>
                    <path d="M19.3755102,43.0205479 L19.3755102,40.2123288 L19.8083673,40.2123288 L19.8083673,40.6369863 C19.8778634,40.4855153 19.9812863,40.3519536 20.1106803,40.2465753 C20.1992387,40.1845355 20.304755,40.1510669 20.4129932,40.1506849 C20.5889479,40.1527539 20.7606225,40.2050464 20.9076871,40.3013699 L20.7427891,40.7465753 C20.6374242,40.6814398 20.5163429,40.6459387 20.392381,40.6438356 C20.2912162,40.6418465 20.1922122,40.6731401 20.1106803,40.7328767 C20.0265305,40.8000279 19.9643422,40.8906349 19.9320408,40.9931507 C19.8777278,41.1753135 19.852229,41.3648024 19.8564626,41.5547945 L19.8564626,43.0205479 L19.3755102,43.0205479 Z" id="Path" fill="#1A1A18"></path>
                    <path d="M21.0107483,41.6164384 C20.9747765,41.1842394 21.1363434,40.7589327 21.4504762,40.4589041 C21.6976921,40.2507393 22.0133449,40.1409714 22.3368027,40.1506849 C22.6919206,40.1378338 23.0360674,40.2745659 23.284966,40.5273973 C23.5419908,40.8141425 23.6731344,41.1915459 23.6491156,41.5753425 C23.670875,41.8805943 23.6165885,42.1864739 23.4910884,42.4657534 C23.3852357,42.6696146 23.2199618,42.8367607 23.0170068,42.9452055 C22.8069238,43.0611475 22.570031,43.120186 22.329932,43.1164384 C21.9702483,43.1323399 21.6206728,42.9954351 21.3680272,42.739726 C21.1092134,42.4377234 20.9785952,42.0470909 21.0038776,41.6506849 L21.0107483,41.6164384 Z M21.5054422,41.6164384 C21.4815479,41.9052578 21.5646563,42.192793 21.7390476,42.4246575 C21.8890788,42.5953761 22.1056902,42.6932813 22.3333673,42.6932813 C22.5610445,42.6932813 22.7776559,42.5953761 22.9276871,42.4246575 C23.1030136,42.1880153 23.1860406,41.8958929 23.1612925,41.6027397 C23.1832782,41.3204746 23.1001067,41.0400366 22.9276871,40.8150685 C22.782366,40.6394372 22.5651715,40.5387317 22.3368027,40.5410959 C22.1073849,40.5359533 21.8878388,40.6340634 21.7390476,40.8082192 C21.5658032,41.0406514 21.482822,41.3277466 21.5054422,41.6164384 L21.5054422,41.6164384 Z" id="Shape" fill="#1A1A18" fill-rule="nonzero"></path>
                    <path d="M24.047619,41.6164384 C24.0128279,41.1857306 24.1713531,40.761807 24.4804762,40.4589041 C24.7304663,40.2556347 25.0442271,40.1465247 25.3668027,40.1506849 C25.7241312,40.1367417 26.0708224,40.2734938 26.3218367,40.5273973 C26.576217,40.8156851 26.7069701,41.1919647 26.6859864,41.5753425 C26.69989,41.8814908 26.6410349,42.1865824 26.5142177,42.4657534 C26.4076371,42.6714107 26.2395661,42.8389573 26.0332653,42.9452055 C25.8231823,43.0611475 25.5862895,43.120186 25.3461905,43.1164384 C24.988862,43.1303815 24.6421708,42.9936295 24.3911565,42.739726 C24.1310606,42.4258951 24.0073971,42.021544 24.047619,41.6164384 L24.047619,41.6164384 Z M24.5354422,41.6164384 C24.501644,41.9009997 24.5724308,42.1881305 24.7346939,42.4246575 C24.884725,42.5953761 25.1013365,42.6932813 25.3290136,42.6932813 C25.5566907,42.6932813 25.7733022,42.5953761 25.9233333,42.4246575 C26.0953441,42.1864062 26.1780172,41.895529 26.1569388,41.6027397 C26.1769756,41.3196022 26.0913298,41.0390724 25.9164626,40.8150685 C25.7730795,40.636956 25.5546019,40.5356554 25.3255782,40.5410959 C25.0985492,40.5380159 24.8819486,40.6359353 24.7346939,40.8082192 C24.5687404,41.043433 24.4931454,41.3302842 24.5217007,41.6164384 L24.5354422,41.6164384 Z" id="Shape" fill="#1A1A18" fill-rule="nonzero"></path>
                    <path d="M27.2356463,44.0958904 L27.2356463,40.2123288 L27.6685034,40.2123288 L27.6685034,40.5753425 C27.760549,40.4458263 27.8802146,40.3382293 28.0189116,40.260274 C28.1615738,40.1816031 28.3232389,40.143683 28.4861224,40.1506849 C28.94631,40.1353377 29.3667474,40.4092762 29.5373469,40.8356164 C29.7385158,41.3202562 29.7385158,41.8646753 29.5373469,42.3493151 C29.3486592,42.7699376 28.9276932,43.0389458 28.4655102,43.0342466 C28.3176278,43.0390982 28.1709659,43.0060843 28.0395238,42.9383562 C27.9175267,42.8768858 27.8098487,42.7905453 27.7234694,42.6849315 L27.7234694,44.0547945 L27.2356463,44.0958904 Z M27.6685034,41.6369863 C27.6387346,41.9306658 27.7168555,42.2251391 27.8883673,42.4657534 C28.017826,42.6248472 28.2119224,42.7178234 28.417415,42.7191781 C28.6324749,42.7208024 28.8358907,42.6219466 28.9670748,42.4520548 C29.1376815,42.2107939 29.2179242,41.9174887 29.1938095,41.6232877 C29.215959,41.3356804 29.1356742,41.0494971 28.9670748,40.8150685 C28.8403359,40.6508364 28.6458298,40.5526277 28.4380272,40.5479452 C28.2242009,40.5554218 28.0260729,40.6617733 27.9021088,40.8356164 C27.7352077,41.0685417 27.65282,41.3511678 27.6685034,41.6369863 L27.6685034,41.6369863 Z" id="Shape" fill="#1A1A18" fill-rule="nonzero"></path>
                    <path d="M32.0932653,42.6780822 C31.9404256,42.8076967 31.7690657,42.9138854 31.5848299,42.9931507 C31.4152559,43.0541872 31.2360585,43.0843469 31.0557823,43.0821918 C30.8067942,43.0927282 30.5625009,43.0123628 30.3687075,42.8561644 C30.2056961,42.7097626 30.1152857,42.4994632 30.1213605,42.2808219 C30.1162564,42.1486257 30.1496656,42.0177847 30.217551,41.9041096 C30.2752403,41.7932704 30.360382,41.6989636 30.464898,41.630137 C30.5689171,41.5573568 30.6853123,41.503982 30.8084354,41.4726027 C30.9467338,41.4419145 31.0866624,41.419047 31.227551,41.4041096 C31.5160715,41.37598 31.8013108,41.3209446 32.0795238,41.239726 C32.0816575,41.1986577 32.0816575,41.1575067 32.0795238,41.1164384 C32.0957864,40.9660559 32.0456308,40.8160583 31.9421088,40.7054795 C31.7878288,40.5855945 31.5944236,40.5270218 31.3993197,40.5410959 C31.2232405,40.528054 31.0475685,40.5712353 30.8977551,40.6643836 C30.7734678,40.7694227 30.6906725,40.9150763 30.6641497,41.0753425 L30.1969388,41.0136986 C30.2261945,40.8397483 30.2968794,40.6753314 30.4030612,40.5342466 C30.5166778,40.4020859 30.6637892,40.3027407 30.8290476,40.2465753 C31.0354718,40.1805212 31.251244,40.1481407 31.4680272,40.1506849 C31.6659886,40.1444474 31.8635484,40.1722512 32.0520408,40.2328767 C32.1774005,40.2763912 32.2904854,40.3491973 32.3818367,40.4452055 C32.459234,40.5403298 32.5112327,40.6534276 32.5329932,40.7739726 C32.5447381,40.9198568 32.5447381,41.0664446 32.5329932,41.2123288 L32.5329932,41.8424658 C32.5158921,42.1230289 32.5158921,42.4043683 32.5329932,42.6849315 C32.5546276,42.8030401 32.5964608,42.9165642 32.6566667,43.0205479 L32.155102,43.0205479 C32.1029084,42.9129868 32.0703369,42.7970229 32.0589116,42.6780822 L32.0932653,42.6780822 Z M32.0520408,41.609589 C31.8012413,41.7008033 31.5407194,41.7628577 31.2756463,41.7945205 C31.1320709,41.8064097 30.9909379,41.8386998 30.8565306,41.890411 C30.7796966,41.9188361 30.7144656,41.9718214 30.6710204,42.0410959 C30.6248402,42.107359 30.6007976,42.1864521 30.6023129,42.2671233 C30.6004084,42.390395 30.6532148,42.5082122 30.7465986,42.5890411 C30.8695405,42.6789824 31.0204419,42.7226558 31.172585,42.7123288 C31.3432481,42.7147892 31.5115341,42.6722583 31.6604082,42.5890411 C31.800289,42.5185921 31.9118068,42.4025887 31.9764626,42.260274 C32.0369461,42.110399 32.0627785,41.9488649 32.0520408,41.7876712 L32.0520408,41.609589 Z" id="Shape" fill="#1A1A18" fill-rule="nonzero"></path>
                    <polygon id="Path" fill="#1A1A18" points="34.8278231 43.0205479 34.8278231 39.1438356 35.3431293 39.1438356 35.3431293 42.5616438 37.2531973 42.5616438 37.2531973 43.0205479"></polygon>
                    <path d="M37.7891156,39.7260274 L37.7891156,39.1780822 L38.4902727,39.1780822 L38.4902727,39.7260274 L37.7891156,39.7260274 Z M37.7891156,43.0547945 L37.7891156,40.2465753 L38.4902727,40.2465753 L38.4902727,43.0547945 L37.7891156,43.0547945 Z" id="Shape" fill="#1A1A18" fill-rule="nonzero"></path>
                    <path d="M39.0189796,39.7260274 L39.0189796,39.1780822 L39.7101201,39.1780822 L39.7101201,39.7260274 L39.0189796,39.7260274 Z M39.0189796,43.0547945 L39.0189796,40.2465753 L39.7101201,40.2465753 L39.7101201,43.0547945 L39.0189796,43.0547945 Z" id="Shape" fill="#1A1A18" fill-rule="nonzero"></path>
                    <path d="M41.2657143,42.5958904 L41.3344218,43.0136986 C41.2148808,43.0413894 41.0929257,43.0574464 40.9702721,43.0616438 C40.8325648,43.068772 40.6953332,43.0404678 40.5717687,42.9794521 C40.4815775,42.9299116 40.4094257,42.8531898 40.3656463,42.760274 C40.3189282,42.5769093 40.3003952,42.3875387 40.3106803,42.1986301 L40.3106803,40.5821918 L39.9602721,40.5821918 L39.9602721,40.2123288 L40.3106803,40.2123288 L40.3106803,39.5273973 L40.7847619,39.239726 L40.7847619,40.2191781 L41.2657143,40.2191781 L41.2657143,40.5890411 L40.7847619,40.5890411 L40.7847619,42.2328767 C40.7680743,42.3188373 40.7680743,42.4071901 40.7847619,42.4931507 C40.8001056,42.5337689 40.8292916,42.567713 40.8672109,42.5890411 C40.9190368,42.6023807 40.9734122,42.6023807 41.0252381,42.5890411 L41.2657143,42.5958904 Z" id="Path" fill="#1A1A18"></path>
                    <polygon id="Path" fill="#1A1A18" points="1.33292517 48.5479452 1.33292517 44.6712329 4.14306122 44.6712329 4.14306122 45.130137 1.84136054 45.130137 1.84136054 46.3150685 3.99877551 46.3150685 3.99877551 46.7739726 1.84136054 46.7739726 1.84136054 48.0890411 4.23238095 48.0890411 4.23238095 48.5479452"></polygon>
                    <path d="M6.72646259,48.5479452 L6.72646259,48.1369863 C6.53204581,48.4393096 6.19339079,48.6184966 5.83326531,48.609589 C5.67308415,48.6117834 5.51412772,48.5814894 5.36605442,48.5205479 C5.24179349,48.4690332 5.13294319,48.3864706 5.05,48.2808219 C4.97522971,48.1815331 4.92359293,48.0668826 4.89884354,47.9452055 C4.88478866,47.7971344 4.88478866,47.6480711 4.89884354,47.5 L4.89884354,45.739726 L5.37292517,45.739726 L5.37292517,47.3013699 C5.35643674,47.4676313 5.35643674,47.6351085 5.37292517,47.8013699 C5.39560788,47.919228 5.46180301,48.024321 5.55843537,48.0958904 C5.66565244,48.1688254 5.79279384,48.207088 5.92258503,48.2054795 C6.0647665,48.2032463 6.20412599,48.1655718 6.32795918,48.0958904 C6.44603621,48.0269934 6.53785863,47.9210043 6.58904762,47.7945205 C6.65241247,47.6190551 6.68043038,47.4328517 6.6714966,47.2465753 L6.6714966,45.739726 L7.14557823,45.739726 L7.14557823,48.5479452 L6.72646259,48.5479452 Z" id="Path" fill="#1A1A18"></path>
                    <path d="M7.90136054,48.5479452 L7.90136054,45.739726 L8.32734694,45.739726 L8.32734694,46.1643836 C8.39935729,46.0144408 8.50238569,45.8813886 8.62965986,45.7739726 C8.72108845,45.7125381 8.82859025,45.6791975 8.93884354,45.6780822 C9.11245187,45.6814471 9.28156658,45.7336854 9.42666667,45.8287671 L9.26176871,46.2739726 C9.15640377,46.208837 9.03532247,46.173336 8.91136054,46.1712329 C8.81034205,46.1702345 8.71164496,46.2014311 8.62965986,46.260274 C8.54741802,46.327809 8.48754898,46.4185261 8.45789116,46.5205479 C8.40114228,46.7023187 8.37332172,46.8918328 8.37544218,47.0821918 L8.37544218,48.5479452 L7.90136054,48.5479452 Z" id="Path" fill="#1A1A18"></path>
                    <path d="M9.53659864,47.1438356 C9.5018075,46.7131279 9.66033271,46.2892043 9.96945578,45.9863014 C10.2166717,45.7781366 10.5323245,45.6683686 10.8557823,45.6780822 C11.2111991,45.6634979 11.5560259,45.8005001 11.8039456,46.0547945 C12.0634571,46.3404528 12.1971191,46.7179805 12.174966,47.1027397 C12.1870407,47.3925675 12.1305533,47.6811624 12.010068,47.9452055 C11.9042153,48.1490667 11.7389414,48.3162128 11.5359864,48.4246575 C11.3259034,48.5405996 11.0890106,48.599638 10.8489116,48.5958904 C10.4912882,48.6115708 10.1439146,48.4745496 9.89387755,48.2191781 C9.63177023,47.9190409 9.50068784,47.5270205 9.52972789,47.130137 L9.53659864,47.1438356 Z M10.0244218,47.1438356 C10.0041926,47.4312191 10.0896819,47.7161061 10.264898,47.9452055 C10.4103079,48.119915 10.6281383,48.2183904 10.8557823,48.2123288 C11.0828114,48.2154088 11.299412,48.1174894 11.4466667,47.9452055 C11.6219932,47.7085633 11.7050202,47.4164408 11.6802721,47.1232877 C11.7022578,46.8410225 11.6190862,46.5605846 11.4466667,46.3356164 C11.2991553,46.1630889 11.0831849,46.0637038 10.8557823,46.0637038 C10.6283797,46.0637038 10.4124093,46.1630889 10.264898,46.3356164 C10.0892123,46.5671074 10.0037647,46.8542891 10.0244218,47.1438356 L10.0244218,47.1438356 Z" id="Shape" fill="#1A1A18" fill-rule="nonzero"></path>
                    <path d="M12.5528571,47.1438356 C12.5208051,46.7121947 12.6817595,46.2885003 12.992585,45.9863014 C13.2398009,45.7781366 13.5554537,45.6683686 13.8789116,45.6780822 C14.2340295,45.6652311 14.5781762,45.8019632 14.8270748,46.0547945 C15.0865863,46.3404528 15.2202483,46.7179805 15.1980952,47.1027397 C15.21017,47.3925675 15.1536825,47.6811624 15.0331973,47.9452055 C14.9273445,48.1490667 14.7620706,48.3162128 14.5591156,48.4246575 C14.3490326,48.5405996 14.1121399,48.599638 13.8720408,48.5958904 C13.5142688,48.6124564 13.1665444,48.4752968 12.9170068,48.2191781 C12.6530934,47.9197272 12.5195949,47.5278744 12.5459864,47.130137 L12.5528571,47.1438356 Z M13.047551,47.1438356 C13.0253624,47.4303603 13.1083835,47.7151595 13.2811565,47.9452055 C13.4311876,48.115924 13.6477991,48.2138292 13.8754762,48.2138292 C14.1031533,48.2138292 14.3197648,48.115924 14.4697959,47.9452055 C14.6451224,47.7085633 14.7281495,47.4164408 14.7034014,47.1232877 C14.725387,46.8410225 14.6422155,46.5605846 14.4697959,46.3356164 C14.3232602,46.161558 14.1068563,46.061219 13.8789116,46.0616438 C13.6500831,46.0593616 13.4316976,46.1569531 13.2811565,46.3287671 C13.1087339,46.5639634 13.0281335,46.8537066 13.0544218,47.1438356 L13.047551,47.1438356 Z" id="Shape" fill="#1A1A18" fill-rule="nonzero"></path>
                    <path d="M15.7546259,49.6232877 L15.7546259,45.739726 L16.187483,45.739726 L16.187483,46.1027397 C16.2795286,45.9732236 16.3991942,45.8656266 16.5378912,45.7876712 C16.6811693,45.7106045 16.8423847,45.6727898 17.005102,45.6780822 C17.2319127,45.6742028 17.4546172,45.7386572 17.6440816,45.8630137 C17.832883,45.9908212 17.9788809,46.1721528 18.0631973,46.3835616 C18.1555287,46.6192518 18.2021584,46.870267 18.2006122,47.1232877 C18.2074281,47.3898809 18.1533922,47.6545333 18.042585,47.8972603 C17.9529478,48.1172327 17.7968657,48.303947 17.5959864,48.4315068 C17.4076519,48.5463419 17.1915123,48.6079034 16.9707483,48.609589 C16.8228659,48.6144407 16.676204,48.5814268 16.5447619,48.5136986 C16.4247844,48.4521196 16.3193746,48.3657197 16.2355782,48.260274 L16.2355782,49.630137 L15.7546259,49.6232877 Z M16.187483,47.1643836 C16.1719463,47.4417546 16.2492844,47.716412 16.4073469,47.9452055 C16.538324,48.1061585 16.7353644,48.1993348 16.9432653,48.1986301 C17.1559127,48.1981206 17.3563398,48.0994842 17.4860544,47.9315068 C17.7837081,47.4261837 17.7837081,46.7998437 17.4860544,46.2945205 C17.3593155,46.1302885 17.1648094,46.0320797 16.9570068,46.0273973 C16.7407362,46.0327535 16.5396266,46.1393389 16.4142177,46.3150685 C16.2388566,46.56188 16.1583814,46.8633283 16.187483,47.1643836 Z" id="Shape" fill="#1A1A18" fill-rule="nonzero"></path>
                    <path d="M20.6122449,48.2054795 C20.4615182,48.337953 20.289682,48.4444369 20.1038095,48.5205479 C19.9343911,48.5821729 19.7550849,48.612351 19.5747619,48.609589 C19.3251421,48.6248151 19.0791881,48.5439035 18.8876871,48.3835616 C18.7188956,48.240814 18.625182,48.0287225 18.6334694,47.8082192 C18.633459,47.6766093 18.6665295,47.5470946 18.7296599,47.4315068 C18.7873492,47.3206677 18.8724909,47.2263609 18.9770068,47.1575342 C19.0817999,47.0861064 19.1979475,47.0328452 19.3205442,47 C19.4611795,46.9694366 19.6033877,46.9465714 19.7465306,46.9315068 C20.0395792,46.9035095 20.3293917,46.8484793 20.6122449,46.7671233 L20.6122449,46.6438356 C20.6258438,46.4937505 20.5760419,46.3448109 20.4748299,46.2328767 C20.321177,46.1117916 20.1272932,46.0530739 19.9320408,46.0684932 C19.7580911,46.0549823 19.5844541,46.0982562 19.4373469,46.1917808 C19.3105044,46.2957217 19.2251955,46.4415094 19.1968707,46.6027397 L18.6953061,46.5753425 C18.7311994,46.402214 18.8038213,46.2387404 18.9082993,46.0958904 C19.0178648,45.962376 19.1632056,45.8626175 19.327415,45.8082192 C19.5338392,45.742165 19.7496114,45.7097845 19.9663946,45.7123288 C20.1665996,45.7062504 20.3663901,45.7340412 20.5572789,45.7945205 C20.6809594,45.8414023 20.7933353,45.9137519 20.8870748,46.0068493 C20.959482,46.1041564 21.008814,46.2165634 21.0313605,46.3356164 C21.0463853,46.4813513 21.0463853,46.6282377 21.0313605,46.7739726 L21.0313605,47.4041096 C21.0142594,47.6846728 21.0142594,47.9660122 21.0313605,48.2465753 C21.0518786,48.3649847 21.0937821,48.4786992 21.155034,48.5821918 L20.6534694,48.5821918 C20.6012758,48.4746306 20.5687043,48.3586667 20.5572789,48.239726 L20.6122449,48.2054795 Z M20.6122449,47.1369863 C20.3590286,47.2280157 20.0962535,47.2900578 19.8289796,47.3219178 C19.6875984,47.3336015 19.548703,47.3659093 19.4167347,47.4178082 C19.338111,47.4462671 19.270693,47.4990731 19.2243537,47.5684932 C19.1811391,47.6361505 19.157374,47.7143307 19.1556463,47.7945205 C19.1563933,47.9186968 19.2116258,48.0363254 19.3068027,48.1164384 C19.4265069,48.2075917 19.5757492,48.251493 19.7259184,48.239726 C19.8957937,48.2427224 20.0636492,48.2026571 20.2137415,48.1232877 C20.3547788,48.0511149 20.4664403,47.9325422 20.5297959,47.7876712 C20.593807,47.6386825 20.6220393,47.4768529 20.6122449,47.3150685 L20.6122449,47.1369863 Z" id="Shape" fill="#1A1A18" fill-rule="nonzero"></path>
                    <path d="M23.1956463,47.3013699 L23.6765986,47.260274 C23.691383,47.4311344 23.748005,47.5957668 23.8414966,47.739726 C23.9395617,47.8763025 24.0757579,47.9811084 24.2331293,48.0410959 C24.4220448,48.1210735 24.6256643,48.1607371 24.8308844,48.1575342 C25.006562,48.1582093 25.1809891,48.1280696 25.3461905,48.0684932 C25.4787672,48.0216843 25.5954421,47.938605 25.6828571,47.8287671 C25.7546658,47.7341559 25.7932916,47.6186398 25.7927891,47.5 C25.7958352,47.3841784 25.7595155,47.2707315 25.6897279,47.1780822 C25.5933455,47.0751631 25.4729891,46.9975284 25.3393197,46.9520548 C25.2293878,46.9109589 25.0026531,46.8493151 24.6522449,46.760274 C24.3938423,46.7106914 24.142387,46.6302007 23.9033333,46.5205479 C23.7335185,46.4391728 23.5887643,46.3137951 23.4842177,46.1575342 C23.3926328,46.011901 23.3449368,45.8431082 23.3468027,45.6712329 C23.3465834,45.4753837 23.4065267,45.2841637 23.5185714,45.1232877 C23.6393215,44.9499401 23.8091582,44.8164023 24.0063946,44.739726 C24.2247828,44.6523268 24.4581446,44.6081264 24.6934694,44.609589 C24.9544059,44.602823 25.2139647,44.6494444 25.4561224,44.7465753 C25.662173,44.8278247 25.8392078,44.9685337 25.9645578,45.1506849 C26.0822587,45.3351683 26.1464638,45.5485177 26.150068,45.7671233 L25.6622449,45.8013699 C25.6519983,45.5863896 25.5524191,45.3853706 25.387415,45.2465753 C24.9622516,45.0018729 24.4384287,45.0018729 24.0132653,45.2465753 C23.8785198,45.3377143 23.7965418,45.4883896 23.7934014,45.6506849 C23.7907195,45.7834399 23.8458506,45.9108451 23.9445578,46 C24.183664,46.1394119 24.4471126,46.2323771 24.7209524,46.2739726 C25.0155984,46.3332636 25.305074,46.4157129 25.5866667,46.5205479 C25.7869936,46.6050176 25.9604078,46.7423689 26.0882313,46.9178082 C26.1938692,47.0809656 26.2488421,47.2715794 26.2462585,47.4657534 C26.2484823,47.6756836 26.1861386,47.8812542 26.067619,48.0547945 C25.9414341,48.2410701 25.765251,48.3882225 25.5591837,48.4794521 C25.3226191,48.5805559 25.0676548,48.631856 24.8102721,48.630137 C24.5071939,48.6377775 24.2056996,48.5841904 23.9239456,48.4726027 C23.6960989,48.379346 23.5020281,48.219319 23.367415,48.0136986 C23.2425477,47.7976974 23.1829025,47.5503475 23.1956463,47.3013699 Z" id="Path" fill="#1A1A18"></path>
                    <path d="M26.7546939,47.1438356 C26.7199027,46.7131279 26.8784279,46.2892043 27.187551,45.9863014 C27.4347669,45.7781366 27.7504197,45.6683686 28.0738776,45.6780822 C28.4294451,45.6626142 28.7746215,45.7997553 29.0220408,46.0547945 C29.2815523,46.3404528 29.4152143,46.7179805 29.3930612,47.1027397 C29.4051359,47.3925675 29.3486485,47.6811624 29.2281633,47.9452055 C29.1223105,48.1490667 28.9570366,48.3162128 28.7540816,48.4246575 C28.5439986,48.5405996 28.3071059,48.599638 28.0670068,48.5958904 C27.7093834,48.6115708 27.3620098,48.4745496 27.1119728,48.2191781 C26.8498655,47.9190409 26.7187831,47.5270205 26.7478231,47.130137 L26.7546939,47.1438356 Z M27.242517,47.1438356 C27.2222878,47.4312191 27.3077771,47.7161061 27.4829932,47.9452055 C27.6317514,48.1156286 27.8472609,48.2134716 28.0738776,48.2134716 C28.3004942,48.2134716 28.5160037,48.1156286 28.6647619,47.9452055 C28.8425271,47.7095062 28.9280212,47.4172977 28.9052381,47.1232877 C28.9252749,46.8401502 28.8396291,46.5596204 28.6647619,46.3356164 C28.5172506,46.1630889 28.3012801,46.0637038 28.0738776,46.0637038 C27.846475,46.0637038 27.6305045,46.1630889 27.4829932,46.3356164 C27.3073075,46.5671074 27.22186,46.8542891 27.242517,47.1438356 Z" id="Shape" fill="#1A1A18" fill-rule="nonzero"></path>
                    <path d="M30.9939456,48.1232877 L31.0626531,48.5410959 C30.9460822,48.5721202 30.8260251,48.5882313 30.7053741,48.5890411 C30.565461,48.59613 30.4260196,48.5678575 30.3,48.5068493 C30.2101155,48.4590097 30.1396863,48.3815372 30.1007483,48.2876712 C30.0469347,48.1055843 30.0259972,47.9154153 30.0389116,47.7260274 L30.0389116,46.109589 L29.6885034,46.109589 L29.6885034,45.739726 L30.0389116,45.739726 L30.0389116,45.0547945 L30.5129932,44.7671233 L30.5129932,45.7465753 L30.9939456,45.7465753 L30.9939456,46.1164384 L30.5129932,46.1164384 L30.5129932,47.760274 C30.4997942,47.8465331 30.4997942,47.9342888 30.5129932,48.0205479 C30.5283369,48.0611661 30.5575229,48.0951103 30.5954422,48.1164384 C30.646508,48.1418901 30.7033272,48.1536905 30.7603401,48.1506849 L30.9939456,48.1232877 Z" id="Path" fill="#1A1A18"></path>
                    <path d="M31.2687755,47.7123288 L31.7428571,47.6369863 C31.7610276,47.8027016 31.8391995,47.9561226 31.9627211,48.0684932 C32.1091988,48.1766664 32.2891882,48.2300098 32.4711565,48.2191781 C32.6440255,48.2339874 32.8166348,48.1879402 32.9589796,48.0890411 C33.0614871,48.0164896 33.122825,47.899292 33.1238776,47.7739726 C33.1254329,47.6696668 33.0702227,47.5726951 32.9795918,47.5205479 C32.8247338,47.4466478 32.6606795,47.3936692 32.4917687,47.3630137 C32.2422876,47.3080546 31.9984721,47.2300936 31.7634694,47.130137 C31.6355882,47.0744616 31.5277444,46.9812884 31.4542857,46.8630137 C31.3860682,46.749181 31.3504253,46.6188981 31.3512245,46.4863014 C31.3491751,46.3640012 31.3800166,46.2433852 31.4405442,46.1369863 C31.4993494,46.0387247 31.5790989,45.9545474 31.6741497,45.890411 C31.767677,45.8302907 31.8695273,45.7841396 31.9764626,45.7534247 C32.1109334,45.71752 32.2494976,45.6991025 32.3887075,45.6986301 C32.5874995,45.6963858 32.7851519,45.7288387 32.9727211,45.7945205 C33.117087,45.8440359 33.2453012,45.9316123 33.3437415,46.0479452 C33.4293882,46.180076 33.4834534,46.3300488 33.5017687,46.4863014 L33.0414286,46.5479452 C33.0209707,46.417853 32.9553099,46.2990626 32.8559184,46.2123288 C32.7296154,46.1239406 32.5771413,46.0805125 32.4230612,46.0890411 C32.2594463,46.0729656 32.0951086,46.1115126 31.9558503,46.1986301 C31.8682054,46.2536758 31.8140365,46.3488184 31.8115646,46.4520548 C31.8112482,46.5125564 31.8332566,46.5710623 31.8734014,46.6164384 C31.9182852,46.6769194 31.9806034,46.7223175 32.0520408,46.7465753 L32.4780272,46.869863 C32.7117361,46.9274356 32.9412823,47.0006613 33.165102,47.0890411 C33.290202,47.1392073 33.3977289,47.2249605 33.4742857,47.3356164 C33.5561672,47.4566891 33.5970922,47.6006795 33.5910884,47.7465753 C33.5901039,47.9052048 33.5423138,48.0600382 33.4536735,48.1917808 C33.3547644,48.3394927 33.213498,48.4540628 33.0482993,48.5205479 C32.8610647,48.5974367 32.6598608,48.6347532 32.457415,48.630137 C32.1604763,48.6507139 31.8652279,48.5711008 31.6191837,48.4041096 C31.419655,48.2253551 31.294621,47.9785111 31.2687755,47.7123288 Z" id="Path" fill="#1A1A18"></path>
                    <path d="M34.1819728,45.2054795 L34.1819728,44.6575342 L34.8731133,44.6575342 L34.8731133,45.2054795 L34.1819728,45.2054795 Z M34.1819728,48.5342466 L34.1819728,45.7260274 L34.8731133,45.7260274 L34.8731133,48.5342466 L34.1819728,48.5342466 Z" id="Shape" fill="#1A1A18" fill-rule="nonzero"></path>
                    <path d="M37.2257143,48.2054795 C37.0716066,48.3368241 36.8977067,48.44315 36.7104082,48.5205479 C36.543395,48.582255 36.3663234,48.6124491 36.1882313,48.609589 C35.9388853,48.6227418 35.6936754,48.542075 35.5011565,48.3835616 C35.3365654,48.238292 35.2458228,48.02722 35.2538095,47.8082192 C35.2513926,47.6771652 35.2821098,47.5476135 35.3431293,47.4315068 C35.4008185,47.3206677 35.4859603,47.2263609 35.5904762,47.1575342 C35.695937,47.0872886 35.811883,47.0341198 35.9340136,47 C36.0746489,46.9694366 36.2168571,46.9465714 36.36,46.9315068 C36.6485205,46.9033773 36.9337597,46.8483419 37.2119728,46.7671233 L37.2119728,46.6438356 C37.2274359,46.4947373 37.1801645,46.3459248 37.0814286,46.2328767 C36.9265494,46.1141477 36.7335961,46.0557119 36.5386395,46.0684932 C36.3625602,46.0554513 36.1868883,46.0986325 36.0370748,46.1917808 C35.9127875,46.29682 35.8299922,46.4424735 35.8034694,46.6027397 L35.3087755,46.5753425 C35.3395229,46.4018322 35.4100645,46.2377486 35.514898,46.0958904 C35.6270907,45.9621495 35.774682,45.8624802 35.9408844,45.8082192 C36.1470515,45.7410767 36.3630051,45.708669 36.5798639,45.7123288 C36.7778253,45.7060913 36.9753852,45.7338951 37.1638776,45.7945205 C37.2892372,45.838035 37.4023221,45.9108412 37.4936735,46.0068493 C37.5710707,46.1019737 37.6230694,46.2150715 37.6448299,46.3356164 C37.6552431,46.4815508 37.6552431,46.6280383 37.6448299,46.7739726 L37.6448299,47.4041096 C37.6262809,47.6846271 37.6262809,47.9660578 37.6448299,48.2465753 C37.6661023,48.3638003 37.705506,48.4770214 37.7616327,48.5821918 L37.2669388,48.5821918 C37.2147452,48.4746306 37.1821737,48.3586667 37.1707483,48.239726 L37.2257143,48.2054795 Z M37.1844898,47.1369863 C36.9336902,47.2282005 36.6731684,47.2902549 36.4080952,47.3219178 C36.2645199,47.3338069 36.1233869,47.3660971 35.9889796,47.4178082 C35.9121456,47.4462333 35.8469146,47.4992187 35.8034694,47.5684932 C35.7572892,47.6347562 35.7332466,47.7138494 35.7347619,47.7945205 C35.7328573,47.9177923 35.7856638,48.0356094 35.8790476,48.1164384 C35.9993307,48.2064487 36.1481304,48.2502199 36.2981633,48.239726 C36.4701332,48.2418379 36.6399965,48.2018564 36.7928571,48.1232877 C36.9310401,48.0473946 37.0416513,47.9299372 37.1089116,47.7876712 C37.1666581,47.637053 37.1923943,47.4761202 37.1844898,47.3150685 L37.1844898,47.1369863 Z" id="Shape" fill="#1A1A18" fill-rule="nonzero"></path>
                    <path d="M40.2488435,48.2054795 C40.0947358,48.3368241 39.920836,48.44315 39.7335374,48.5205479 C39.5663615,48.5816482 39.3894038,48.6118228 39.2113605,48.609589 C38.9618325,48.6241129 38.7161323,48.5432848 38.5242857,48.3835616 C38.3579441,48.2390043 38.2647737,48.0281422 38.270068,47.8082192 C38.2700576,47.6766093 38.3031281,47.5470946 38.3662585,47.4315068 C38.4239478,47.3206677 38.5090895,47.2263609 38.6136054,47.1575342 C38.7190662,47.0872886 38.8350122,47.0341198 38.9571429,47 C39.0977781,46.9694366 39.2399864,46.9465714 39.3831293,46.9315068 C39.6715474,46.9026787 39.9567224,46.8476557 40.235102,46.7671233 L40.235102,46.6438356 C40.2523091,46.4933533 40.2020246,46.3429705 40.0976871,46.2328767 C39.9440341,46.1117916 39.7501503,46.0530739 39.554898,46.0684932 C39.3810325,46.0559676 39.207702,46.0991651 39.0602041,46.1917808 C38.9333615,46.2957217 38.8480526,46.4415094 38.8197279,46.6027397 L38.325034,46.5753425 C38.3609272,46.402214 38.4335492,46.2387404 38.5380272,46.0958904 C38.6490643,45.9639797 38.7939112,45.8645601 38.9571429,45.8082192 C39.1635671,45.742165 39.3793393,45.7097845 39.5961224,45.7123288 C39.7963275,45.7062504 39.996118,45.7340412 40.1870068,45.7945205 C40.3114784,45.8398307 40.4241747,45.9123867 40.5168027,46.0068493 C40.5887229,46.1052664 40.6401211,46.2170581 40.6679592,46.3356164 C40.6783724,46.4815508 40.6783724,46.6280383 40.6679592,46.7739726 L40.6679592,47.4041096 C40.650858,47.6846728 40.650858,47.9660122 40.6679592,48.2465753 C40.6884773,48.3649847 40.7303807,48.4786992 40.7916327,48.5821918 L40.290068,48.5821918 C40.2402481,48.474188 40.2100079,48.3582426 40.2007483,48.239726 L40.2488435,48.2054795 Z M40.207619,47.1369863 C39.9544028,47.2280157 39.6916277,47.2900578 39.4243537,47.3219178 C39.2829725,47.3336015 39.1440772,47.3659093 39.0121088,47.4178082 C38.934581,47.4482032 38.8676949,47.5005926 38.8197279,47.5684932 C38.7786002,47.636709 38.7571991,47.7149349 38.7578912,47.7945205 C38.7559866,47.9177923 38.808793,48.0356094 38.9021769,48.1164384 C39.0224599,48.2064487 39.1712597,48.2502199 39.3212925,48.239726 C39.4932624,48.2418379 39.6631257,48.2018564 39.8159864,48.1232877 C39.952776,48.0456189 40.062915,47.928663 40.1320408,47.7876712 C40.1897873,47.637053 40.2155236,47.4761202 40.207619,47.3150685 L40.207619,47.1369863 Z" id="Shape" fill="#1A1A18" fill-rule="nonzero"></path>
                    <rect id="Rectangle" fill="#1A1A18" x="41.4168707" y="44.6712329" width="1" height="3.87671233"></rect>
                    <path d="M42.7497959,48.5479452 L42.7497959,46.109589 L42.3306803,46.109589 L42.3306803,45.739726 L42.7497959,45.739726 L42.7497959,45.4452055 C42.7434434,45.3020164 42.7596726,45.1587205 42.7978912,45.0205479 C42.849356,44.8983516 42.9352777,44.7936638 43.0452381,44.7191781 C43.1936389,44.6359882 43.3632109,44.597894 43.5330612,44.609589 C43.6809381,44.6098002 43.8283627,44.6258744 43.9727891,44.6575342 L43.9040816,45.0684932 C43.8102913,45.0620892 43.7161713,45.0620892 43.622381,45.0684932 C43.5106761,45.0586412 43.3995799,45.0930967 43.3131973,45.1643836 C43.2413403,45.263307 43.2094543,45.385563 43.2238776,45.5068493 L43.2238776,45.7671233 L43.7735374,45.7671233 L43.7735374,46.1369863 L43.2238776,46.1369863 L43.2238776,48.5753425 L42.7497959,48.5479452 Z" id="Path" fill="#1A1A18"></path>
                    <path d="M43.9727891,47.1438356 C43.9368173,46.7116367 44.0983843,46.2863299 44.412517,45.9863014 C44.6579505,45.7797283 44.970861,45.6700639 45.2919728,45.6780822 C45.6493013,45.664139 45.9959924,45.800891 46.2470068,46.0547945 C46.5040316,46.3415398 46.6351752,46.7189432 46.6111565,47.1027397 C46.6198041,47.3922986 46.5634666,47.6801272 46.4462585,47.9452055 C46.3404057,48.1490667 46.1751318,48.3162128 45.9721769,48.4246575 C45.7620939,48.5405996 45.5252011,48.599638 45.285102,48.5958904 C44.9277735,48.6098336 44.5810824,48.4730816 44.330068,48.2191781 C44.0771117,47.9196332 43.9492139,47.5346848 43.9727891,47.1438356 L43.9727891,47.1438356 Z M44.467483,47.1438356 C44.4433272,47.4295062 44.5238824,47.7142202 44.6942177,47.9452055 C44.8442488,48.115924 45.0608603,48.2138292 45.2885374,48.2138292 C45.5162145,48.2138292 45.732826,48.115924 45.8828571,47.9452055 C46.0548679,47.7069541 46.137541,47.4160769 46.1164626,47.1232877 C46.1364994,46.8401502 46.0508536,46.5596204 45.8759864,46.3356164 C45.7306653,46.1599852 45.5134708,46.0592796 45.285102,46.0616438 C45.0586675,46.061356 44.8431877,46.1587687 44.6942177,46.3287671 C44.5193601,46.5630223 44.4362929,46.8528503 44.4606122,47.1438356 L44.467483,47.1438356 Z" id="Shape" fill="#1A1A18" fill-rule="nonzero"></path>
                    <path d="M47.1676871,48.5479452 L47.1676871,45.739726 L47.5936735,45.739726 L47.5936735,46.1369863 C47.7917206,45.8367114 48.1335949,45.6624051 48.4937415,45.6780822 C48.6539906,45.6751048 48.8131056,45.705429 48.9609524,45.7671233 C49.0865468,45.8163019 49.1959667,45.8992964 49.2770068,46.0068493 C49.3533583,46.1128745 49.405,46.234556 49.4281633,46.3630137 C49.4432301,46.515613 49.4432301,46.6693185 49.4281633,46.8219178 L49.4281633,48.5479452 L48.9472109,48.5479452 L48.9472109,46.8424658 C48.9558191,46.6942294 48.9371914,46.5456724 48.8922449,46.4041096 C48.8563927,46.3087829 48.7883744,46.2288686 48.6998639,46.1780822 C48.5988329,46.116123 48.4817515,46.0851575 48.3631973,46.0890411 C48.1715682,46.087728 47.9859909,46.1558853 47.8410204,46.2808219 C47.6649515,46.4821987 47.582582,46.7484424 47.6142857,47.0136986 L47.6142857,48.5479452 L47.1676871,48.5479452 Z" id="Path" fill="#1A1A18"></path>
                    <path d="M52.0184354,48.5479452 L52.0184354,48.1917808 C51.8510637,48.4641314 51.5483593,48.6241955 51.2282993,48.609589 C51.008195,48.6114545 50.7926588,48.5469953 50.609932,48.4246575 C50.4153715,48.3120121 50.2578303,48.1454443 50.1564626,47.9452055 C50.0481182,47.7065223 49.99415,47.4468796 49.9984354,47.1849315 C49.9948594,46.9097799 50.0486724,46.6368891 50.1564626,46.3835616 C50.2388698,46.1710504 50.3852841,45.9892016 50.5755782,45.8630137 C50.7632738,45.7403555 50.9832666,45.6759938 51.2076871,45.6780822 C51.3659491,45.6735804 51.5225318,45.7114215 51.6611565,45.7876712 C51.7877727,45.8541023 51.898056,45.9476676 51.9840816,46.0616438 L51.9840816,44.6917808 L52.4581633,44.6917808 L52.4581633,48.5684932 L52.0184354,48.5479452 Z M50.5068707,47.1780822 C50.4937771,47.4519302 50.5736548,47.7221847 50.7336054,47.9452055 C50.8633201,48.1131829 51.0637472,48.2118192 51.2763946,48.2123288 C51.4841972,48.2076463 51.6787033,48.1094375 51.8054422,47.9452055 C51.9680429,47.7185574 52.045838,47.4422769 52.0253061,47.1643836 C52.0503459,46.8658179 51.9701647,46.5678928 51.7985714,46.3219178 C51.6688143,46.1494481 51.4651734,46.0479452 51.2489116,46.0479452 C51.042271,46.050971 50.8479726,46.1465594 50.7198639,46.3082192 C50.5520365,46.555487 50.4766523,46.8536588 50.5068707,47.1506849 L50.5068707,47.1780822 Z" id="Shape" fill="#1A1A18" fill-rule="nonzero"></path>
                    <rect id="Rectangle" fill="#134094" x="0" y="0" width="53.5437415" height="35.7054795"></rect>
                    <polygon id="Path" fill="#FFED00" points="27.1669388 5.19863014 28.7059864 5.19863014 27.462381 6.13013699 27.9433333 7.60273973 26.7065986 6.69863014 25.4698639 7.60273973 25.9576871 6.13013699 24.7003401 5.19863014 26.2462585 5.19863014 26.7065986 3.76027397"></polygon>
                    <polygon id="Path" fill="#FFED00" points="27.2287755 28.9931507 28.7746939 28.9931507 27.5310884 29.9246575 28.0120408 31.3972603 26.7753061 30.4863014 25.5385714 31.3972603 26.0263946 29.9246575 24.7690476 28.9931507 26.3080952 28.9931507 26.7753061 27.5547945"></polygon>
                    <polygon id="Path" fill="#FFED00" points="33.137619 27.4178082 34.6835374 27.4178082 33.439932 28.3424658 33.9208844 29.8150685 32.6841497 28.9109589 31.4405442 29.8150685 31.9352381 28.3424658 30.6778912 27.4178082 32.2169388 27.4178082 32.6841497 25.9726027"></polygon>
                    <polygon id="Path" fill="#FFED00" points="33.137619 6.76712329 34.6835374 6.76712329 33.439932 7.69863014 33.9208844 9.17123288 32.6841497 8.26027397 31.4405442 9.17123288 31.9352381 7.69863014 30.6778912 6.76712329 32.2169388 6.76712329 32.6841497 5.32876712"></polygon>
                    <polygon id="Path" fill="#FFED00" points="37.5280272 11.1369863 39.0670748 11.1369863 37.8234694 12.0684932 38.3112925 13.5410959 37.0676871 12.6369863 35.8309524 13.5410959 36.3187755 12.0684932 35.0614286 11.1369863 36.6004762 11.1369863 37.0676871 9.69863014"></polygon>
                    <polygon id="Path" fill="#FFED00" points="37.5280272 23.1027397 39.0670748 23.1027397 37.8234694 24.0273973 38.3112925 25.5068493 37.0676871 24.6027397 35.8309524 25.5068493 36.3187755 24.0273973 35.0614286 23.1027397 36.6004762 23.1027397 37.0676871 21.6643836"></polygon>
                    <polygon id="Path" fill="#FFED00" points="39.1701361 17.0273973 40.7160544 17.0273973 39.472449 17.9589041 39.9534014 19.4383562 38.7166667 18.5273973 37.4730612 19.4383562 37.9608844 17.9589041 36.7104082 17.0273973 38.2494558 17.0273973 38.7166667 15.5890411"></polygon>
                    <polygon id="Path" fill="#FFED00" points="21.1412925 6.78082192 22.6872109 6.78082192 21.4367347 7.71232877 21.9245578 9.18493151 20.6878231 8.28082192 19.4442177 9.18493151 19.9320408 7.71232877 18.6815646 6.78082192 20.2206122 6.78082192 20.6878231 5.34246575"></polygon>
                    <polygon id="Path" fill="#FFED00" points="16.8745578 11.1575342 18.4204762 11.1575342 17.1768707 12.0821918 17.6578231 13.5547945 16.4210884 12.6506849 15.1843537 13.5547945 15.6721769 12.0821918 14.4148299 11.1575342 15.9538776 11.1575342 16.4210884 9.71917808"></polygon>
                    <polygon id="Path" fill="#FFED00" points="15.2942857 17.0479452 16.8333333 17.0479452 15.5965986 17.9726027 16.077551 19.4452055 14.8408163 18.5410959 13.5972109 19.4452055 14.085034 17.9726027 12.8345578 17.0479452 14.3667347 17.0479452 14.8408163 15.609589"></polygon>
                    <polygon id="Path" fill="#FFED00" points="16.8745578 23.1164384 18.4204762 23.1164384 17.1768707 24.0479452 17.6578231 25.5205479 16.4210884 24.6164384 15.1843537 25.5205479 15.6721769 24.0479452 14.4148299 23.1164384 15.9538776 23.1164384 16.4210884 21.6780822"></polygon>
                    <polygon id="Path" fill="#FFED00" points="21.2031293 27.4315068 22.7421769 27.4315068 21.4985714 28.3630137 21.9795238 29.8287671 20.7427891 28.9246575 19.5060544 29.8287671 19.9938776 28.3630137 18.7365306 27.4315068 20.282449 27.4315068 20.7427891 25.9863014"></polygon>
                    <path d="M83.3627891,7.11643836 C87.3998836,7.48499165 91.2919538,8.80177333 94.7201361,10.9589041 L94.9537415,11.109589 C90.8210905,5.27687825 84.4697083,1.38895119 77.3821585,0.353342507 C70.2946087,-0.682266179 63.0911342,1.22507129 57.4531973,5.63013699 C61.1740778,6.36837294 64.5775366,8.22857792 67.2027891,10.9589041 C72.0157045,7.93353518 77.698218,6.58236789 83.3627891,7.11643836 Z" id="Path" fill="#0076BE"></path>
                    <path d="M99.4678231,23.8082192 C99.4678231,23.7260274 99.4334694,23.369863 99.4265986,23.3013699 C99.0384497,18.9136289 97.4955419,14.705723 94.9537415,11.1027397 L94.7201361,10.9520548 C86.3108418,5.67705989 75.6120834,5.67705989 67.2027891,10.9520548 C70.1435317,14.0038145 71.9454253,17.9686691 72.3077551,22.1849315 C72.4038994,23.2764388 72.4038994,24.3742461 72.3077551,25.4657534 C71.8702296,30.1882242 69.6294437,34.5626389 66.0485034,37.6849315 L66.0897279,37.6438356 C75.0795738,32.5435818 85.5315926,30.613167 95.757619,32.1643836 C94.6812127,33.0672584 93.4917976,33.8270303 92.2191837,34.4246575 C94.4221317,33.7261845 96.5791656,32.8912256 98.6776871,31.9246575 L98.6776871,31.9246575 C99.4041109,29.2840157 99.6713552,26.5388284 99.4678231,23.8082192 L99.4678231,23.8082192 Z" id="Path" fill="#000000"></path>
                    <path d="M99.0143537,23.2191781 C95.6957823,20.9863014 92.9612245,19.630137 87.1897959,19.109589 C82.956516,18.7147887 78.6910491,19.3713205 74.7743537,21.0205479 C74.8739863,22.095885 74.8739863,23.1780876 74.7743537,24.2534247 C74.3051968,29.357358 71.5997015,33.9944888 67.3814286,36.9246575 C77.8936735,30.8972603 87.4508844,30.0753425 95.5514966,31.3219178 C96.087415,31.4109589 97.7570068,31.6917808 98.5196599,31.8972603 C99.1542212,29.0502668 99.3212891,26.1195072 99.0143537,23.2191781 Z" id="Path" fill="#FFFFFF"></path>
                    <polygon id="Path" fill="#1A1A18" points="77.77 43.0410959 77.77 39.1575342 80.5801361 39.1575342 80.5801361 39.6164384 78.2853061 39.6164384 78.2853061 40.8082192 80.4358503 40.8082192 80.4358503 41.260274 78.2853061 41.260274 78.2853061 42.5821918 80.6763265 42.5821918 80.6763265 43.0410959"></polygon>
                    <path d="M83.2528571,42.130137 L83.747551,42.1917808 C83.6832303,42.4615337 83.5310017,42.7024127 83.3146939,42.8767123 C83.0781557,43.0431468 82.7932617,43.1273857 82.5039456,43.1164384 C82.1386589,43.1336307 81.7834847,42.9939989 81.5282993,42.7328767 C81.2684476,42.4423245 81.1371577,42.0595611 81.1641497,41.6712329 C81.1402839,41.2708433 81.2705194,40.8764563 81.5282993,40.5684932 C81.7737953,40.3091603 82.1189423,40.1670443 82.4764626,40.1780822 C82.8264711,40.1676676 83.1641692,40.3073128 83.4040136,40.5616438 C83.6567834,40.8639785 83.7845376,41.250944 83.7612925,41.6438356 L83.7612925,41.7808219 L81.6588435,41.7808219 C81.6621716,42.032673 81.7546416,42.275256 81.919932,42.4657534 C82.0721172,42.6288879 82.2874363,42.7187403 82.5108163,42.7123288 C82.6720036,42.7181262 82.8300991,42.6672085 82.957415,42.5684932 C83.0977783,42.4552286 83.2007188,42.3024927 83.2528571,42.130137 L83.2528571,42.130137 Z M81.6863265,41.3630137 L83.2528571,41.3630137 C83.2499691,41.17294 83.1875055,40.9885286 83.0742177,40.8356164 C82.9322334,40.6549367 82.7135395,40.5510008 82.4833333,40.5547945 C82.2776933,40.5494994 82.078922,40.6287599 81.9336735,40.7739726 C81.7787083,40.9315712 81.690194,41.1423622 81.6863265,41.3630137 L81.6863265,41.3630137 Z" id="Shape" fill="#1A1A18" fill-rule="nonzero"></path>
                    <path d="M84.1529252,42.1986301 L84.6270068,42.1232877 C84.6435507,42.2914382 84.7218557,42.4475597 84.8468707,42.5616438 C84.9941201,42.6682681 85.1735404,42.7214429 85.3553061,42.7123288 C85.5290613,42.7257502 85.701949,42.6772014 85.8431293,42.5753425 C85.9413661,42.4999369 85.9995854,42.3838616 86.0011565,42.260274 C86.0014402,42.1580311 85.9497041,42.062618 85.8637415,42.0068493 C85.7079235,41.9353726 85.5441813,41.8824948 85.3759184,41.8493151 C85.1261342,41.7954794 84.8822129,41.7174845 84.647619,41.6164384 C84.5197379,41.5607629 84.411894,41.4675898 84.3384354,41.3493151 C84.2681436,41.2363727 84.2323345,41.1054822 84.2353741,40.9726027 C84.234245,40.8534318 84.2625611,40.7358162 84.3178231,40.630137 C84.3747189,40.5248328 84.4545389,40.4335602 84.5514286,40.3630137 C84.6444478,40.3003208 84.7463445,40.25184 84.8537415,40.2191781 C85.1825543,40.1339602 85.5293737,40.1482666 85.85,40.260274 C85.9981055,40.3058704 86.1279643,40.3969674 86.2210204,40.5205479 C86.3106739,40.648715 86.3673054,40.7969091 86.3859184,40.9520548 L85.9187075,41.0205479 C85.9058071,40.886101 85.8388944,40.7625752 85.7331973,40.6780822 C85.6102554,40.5881409 85.459354,40.5444675 85.3072109,40.5547945 C85.1417559,40.5433657 84.9766534,40.5815309 84.8331293,40.6643836 C84.7506604,40.7232913 84.6999788,40.8167597 84.6957143,40.9178082 C84.6969647,40.9789962 84.7160645,41.0384967 84.7506803,41.0890411 C84.8021409,41.1438618 84.8656359,41.1860597 84.9361905,41.2123288 C84.9842857,41.2123288 85.1217007,41.2739726 85.3553061,41.3356164 C85.5887066,41.3942698 85.8181829,41.4674731 86.042381,41.5547945 C86.3210528,41.6645849 86.4962118,41.9417478 86.4752381,42.239726 C86.4740103,42.401474 86.4237107,42.5590654 86.3309524,42.6917808 C86.232546,42.8356178 86.093998,42.9475393 85.932449,43.0136986 C85.7432995,43.0929125 85.5398422,43.1325445 85.3346939,43.130137 C85.0396986,43.1360934 84.750614,43.0472371 84.5102041,42.8767123 C84.3141501,42.7001242 84.187507,42.4597673 84.1529252,42.1986301 Z" id="Path" fill="#1A1A18"></path>
                    <path d="M88.1036054,42.609589 L88.1723129,43.0342466 C88.0525952,43.0599377 87.9306125,43.073704 87.8081633,43.0753425 C87.6704559,43.0824706 87.5332243,43.0541664 87.4096599,42.9931507 C87.3194686,42.9436102 87.2473168,42.8668884 87.2035374,42.7739726 C87.1568194,42.590608 87.1382864,42.4012373 87.1485714,42.2123288 L87.1485714,40.6027397 L86.7981633,40.6027397 L86.7981633,40.2260274 L87.1485714,40.2260274 L87.1485714,39.5410959 L87.6226531,39.2534247 L87.6226531,40.2328767 L88.1036054,40.2328767 L88.1036054,40.609589 L87.6226531,40.609589 L87.6226531,42.2465753 C87.6059655,42.3325359 87.6059655,42.4208888 87.6226531,42.5068493 C87.6362311,42.5484821 87.665907,42.5829959 87.705102,42.6027397 C87.7539072,42.6276239 87.8083656,42.6394258 87.8631293,42.6369863 L88.1036054,42.609589 Z" id="Path" fill="#1A1A18"></path>
                    <path d="M88.5708163,39.7260274 L88.5708163,39.1780822 L89.2719734,39.1780822 L89.2719734,39.7260274 L88.5708163,39.7260274 Z M88.5708163,43.0616438 L88.5708163,40.2260274 L89.2719734,40.2260274 L89.2719734,43.0410959 L88.5708163,43.0616438 Z" id="Shape" fill="#1A1A18" fill-rule="nonzero"></path>
                    <path d="M67.5669388,48.1164384 L67.6356463,48.5342466 C67.5190754,48.5652709 67.3990183,48.581382 67.2783673,48.5821918 C67.1383865,48.5901989 66.9987153,48.5618798 66.8729932,48.5 C66.7831087,48.4521604 66.7126795,48.3746878 66.6737415,48.2808219 C66.6199279,48.098735 66.5989904,47.908566 66.6119048,47.7191781 L66.6119048,46.1027397 L66.2614966,46.1027397 L66.2614966,45.7328767 L66.6462585,45.7328767 L66.6462585,45.0479452 L67.1203401,44.760274 L67.1203401,45.739726 L67.6012925,45.739726 L67.6012925,46.109589 L67.1203401,46.109589 L67.1203401,47.7534247 C67.1036525,47.8393852 67.1036525,47.9277381 67.1203401,48.0136986 C67.1356838,48.0543168 67.1648699,48.088261 67.2027891,48.109589 C67.254615,48.1229287 67.3089904,48.1229287 67.3608163,48.109589 L67.5669388,48.1164384 Z" id="Path" fill="#1A1A18"></path>
                    <path d="M69.882381,48.5410959 L69.882381,48.130137 C69.6848048,48.432537 69.3442251,48.6113667 68.9823129,48.6027397 C68.8243536,48.6049666 68.6676346,48.5746533 68.5219728,48.5136986 C68.3958229,48.4621298 68.2847564,48.3796787 68.1990476,48.2739726 C68.1264737,48.1666282 68.077318,48.0452891 68.0547619,47.9178082 C68.0398839,47.769777 68.0398839,47.620634 68.0547619,47.4726027 L68.0547619,45.7328767 L68.5357143,45.7328767 L68.5357143,47.2945205 C68.5204265,47.4608388 68.5204265,47.6282023 68.5357143,47.7945205 C68.5636512,47.9119586 68.6316566,48.0160696 68.7280952,48.0890411 C68.8314548,48.1645489 68.9573126,48.2031536 69.0853741,48.1986301 C69.2276807,48.1972905 69.3672599,48.1595566 69.4907483,48.0890411 C69.6083441,48.017622 69.7016999,47.912626 69.7587075,47.7876712 C69.8192221,47.6116169 69.8448893,47.4255286 69.8342857,47.239726 L69.8342857,45.7328767 L70.3152381,45.7328767 L70.3152381,48.5410959 L69.882381,48.5410959 Z" id="Path" fill="#1A1A18"></path>
                    <rect id="Rectangle" fill="#1A1A18" x="71.0435374" y="44.6643836" width="1" height="3.87671233"></rect>
                    <path d="M74.2040816,47.6369863 L74.6987755,47.6986301 C74.6374753,47.9696379 74.4846657,48.2114361 74.2659184,48.3835616 C74.0306469,48.5465901 73.748317,48.6283787 73.4620408,48.6164384 C73.0957353,48.6356338 72.7385175,48.4986709 72.4795238,48.239726 C72.223668,47.9468618 72.0929615,47.5657995 72.1153741,47.1780822 C72.0915084,46.7776926 72.2217439,46.3833056 72.4795238,46.0753425 C72.726624,45.8141861 73.0746718,45.6719067 73.4345578,45.6849315 C73.7825275,45.6747154 74.1180341,45.8144897 74.3552381,46.0684932 C74.6100975,46.366974 74.7382561,46.7527076 74.712517,47.1438356 L74.712517,47.260274 L72.610068,47.260274 C72.6133961,47.5121251 72.7058661,47.754708 72.8711565,47.9452055 C73.0243657,48.1068702 73.2389924,48.1964336 73.4620408,48.1917808 C73.6223892,48.1995327 73.7803984,48.1510661 73.9086395,48.0547945 C74.0490027,47.94153 74.1519433,47.7887941 74.2040816,47.6164384 L74.2040816,47.6369863 Z M72.637551,46.869863 L74.2040816,46.869863 C74.1990977,46.6780439 74.1369066,46.4920528 74.0254422,46.3356164 C73.8779811,46.1589079 73.6582395,46.0581925 73.4276871,46.0616438 C73.2226201,46.0594682 73.0250188,46.1382621 72.8780272,46.2808219 C72.7193328,46.4365108 72.6280825,46.6479443 72.6238095,46.869863 L72.637551,46.869863 Z" id="Shape" fill="#1A1A18" fill-rule="nonzero"></path>
                    <path d="M76.0660544,48.5410959 L74.9942177,45.7328767 L75.4957823,45.7328767 L76.1004082,47.4178082 C76.1691156,47.5958904 76.2309524,47.7876712 76.2859184,47.9794521 C76.3271429,47.8356164 76.3821088,47.6575342 76.4645578,47.4452055 L77.0897959,45.7328767 L77.577619,45.7328767 L76.5126531,48.5410959 L76.0660544,48.5410959 Z" id="Path" fill="#1A1A18"></path>
                    <path d="M78.0036054,45.2054795 L78.0036054,44.6575342 L78.6947459,44.6575342 L78.6947459,45.2054795 L78.0036054,45.2054795 Z M78.0036054,48.5342466 L78.0036054,45.7260274 L78.6947459,45.7260274 L78.6947459,48.5342466 L78.0036054,48.5342466 Z" id="Shape" fill="#1A1A18" fill-rule="nonzero"></path>
                    <polygon id="Path" fill="#1A1A18" points="79.2059864 48.5410959 79.2059864 44.6643836 79.6869388 44.6643836 79.6869388 46.8767123 80.8206122 45.7328767 81.4321088 45.7328767 80.3602721 46.7739726 81.5420408 48.5410959 80.9580272 48.5410959 80.0236054 47.109589 79.6869388 47.4315068 79.6869388 48.5410959"></polygon>
                    <path d="M83.7681633,48.5410959 L83.7681633,48.130137 C83.5737465,48.4324603 83.2350915,48.6116473 82.874966,48.6027397 C82.7147848,48.6049341 82.5558284,48.5746401 82.4077551,48.5136986 C82.2834942,48.4621838 82.1746439,48.3796213 82.0917007,48.2739726 C82.0140707,48.1686674 81.9622989,48.0466792 81.9405442,47.9178082 C81.9264893,47.7697371 81.9264893,47.6206739 81.9405442,47.4726027 L81.9405442,45.7328767 L82.4146259,45.7328767 L82.4146259,47.2945205 C82.3981374,47.460782 82.3981374,47.6282591 82.4146259,47.7945205 C82.4373086,47.9123786 82.5035037,48.0174717 82.6001361,48.0890411 C82.7060839,48.1645852 82.8341035,48.203112 82.9642857,48.1986301 C83.1064672,48.196397 83.2458267,48.1587225 83.3696599,48.0890411 C83.4877369,48.0201441 83.5795593,47.914155 83.6307483,47.7876712 C83.6941132,47.6122058 83.7221311,47.4260024 83.7131973,47.239726 L83.7131973,45.7328767 L84.1872789,45.7328767 L84.1872789,48.5410959 L83.7681633,48.5410959 Z" id="Path" fill="#1A1A18"></path>
                    <path d="M86.4546259,48.5410959 L86.4546259,44.6643836 L86.9287075,44.6643836 L86.9287075,46.0342466 C87.1391711,45.7874684 87.448907,45.6468903 87.7738095,45.6506849 C87.9622941,45.6452842 88.1490654,45.6877069 88.3165986,45.7739726 C88.4639692,45.8452847 88.5809315,45.9667403 88.6463946,46.1164384 C88.7251522,46.3144391 88.7602997,46.5270019 88.7494558,46.739726 L88.7494558,48.5205479 L88.2685034,48.5205479 L88.2685034,46.739726 C88.2863081,46.5554823 88.2321679,46.371489 88.1173469,46.2260274 C88.000772,46.111573 87.8409427,46.051824 87.677619,46.0616438 C87.5370531,46.059806 87.3988552,46.0978106 87.2791156,46.1712329 C87.1625472,46.2408331 87.0692975,46.3433262 87.0111565,46.4657534 C86.950136,46.6323143 86.922135,46.8091012 86.9287075,46.9863014 L86.9287075,48.5205479 L86.4546259,48.5410959 Z" id="Path" fill="#1A1A18"></path>
                    <path d="M91.3809524,47.6369863 L91.8756463,47.6986301 C91.8170481,47.9707433 91.6637032,48.2133886 91.4427891,48.3835616 C90.882226,48.7399179 90.1523201,48.6811478 89.6563946,48.239726 C89.4030159,47.9458112 89.2748142,47.5648636 89.2991156,47.1780822 C89.2716601,46.7772352 89.4023251,46.3815478 89.6632653,46.0753425 C89.9071884,45.8137418 90.2534172,45.6711803 90.6114286,45.6849315 C90.9597343,45.6728939 91.2959688,45.8129714 91.5321088,46.0684932 C91.7888014,46.3662933 91.9193726,46.7518731 91.8962585,47.1438356 C91.8962585,47.1438356 91.8962585,47.2191781 91.8962585,47.2739726 L89.7938095,47.2739726 C89.7990466,47.5266925 89.8939901,47.7693777 90.0617687,47.9589041 C90.2123517,48.1202275 90.424776,48.2099148 90.6457823,48.2054795 C90.8061307,48.2132313 90.9641399,48.1647647 91.092381,48.0684932 C91.236934,47.95911 91.3408731,47.8048926 91.3878231,47.630137 L91.3809524,47.6369863 Z M89.8144218,46.869863 L91.3809524,46.869863 C91.3759684,46.6780439 91.3137774,46.4920528 91.2023129,46.3356164 C91.0576218,46.1591749 90.8400131,46.0582773 90.6114286,46.0616438 C90.4039932,46.0576402 90.2035796,46.136569 90.054898,46.2808219 C89.9138345,46.4449509 89.8359053,46.6537322 89.835034,46.869863 L89.8144218,46.869863 Z" id="Shape" fill="#1A1A18" fill-rule="nonzero"></path>
                    <path d="M94.3353741,48.1986301 C94.184271,48.3305982 94.0125231,48.4370273 93.8269388,48.5136986 C93.6573647,48.5747351 93.4781673,48.6048948 93.2978912,48.6027397 C93.0497755,48.6152064 92.8055778,48.5373069 92.6108163,48.3835616 C92.4474929,48.2344969 92.3572244,48.0220278 92.3634694,47.8013699 C92.3583653,47.6691736 92.3917745,47.5383326 92.4596599,47.4246575 C92.5188308,47.3169534 92.6009055,47.2234463 92.7001361,47.1506849 C92.8089579,47.0820667 92.9269145,47.0290365 93.0505442,46.9931507 C93.1888427,46.9624625 93.3287712,46.9395949 93.4696599,46.9246575 C93.7581804,46.896528 94.0434196,46.8414926 94.3216327,46.760274 C94.3237664,46.7192056 94.3237664,46.6780547 94.3216327,46.6369863 C94.3352316,46.4869012 94.2854297,46.3379616 94.1842177,46.2260274 C94.0289687,46.1085812 93.8356556,46.0524757 93.6414286,46.0684932 C93.4660918,46.0534057 93.2904751,46.0941751 93.1398639,46.1849315 C93.0141587,46.2916896 92.9312296,46.4400099 92.9062585,46.6027397 L92.4390476,46.5342466 C92.469795,46.3607363 92.5403366,46.1966527 92.6451701,46.0547945 C92.7573628,45.9210536 92.9049541,45.8213843 93.0711565,45.7671233 C93.2775807,45.7010691 93.4933529,45.6686886 93.7101361,45.6712329 C93.9080974,45.6649954 94.1056573,45.6927992 94.2941497,45.7534247 C94.4195093,45.7969391 94.5325942,45.8697453 94.6239456,45.9657534 C94.7013428,46.0608778 94.7533415,46.1739756 94.775102,46.2945205 C94.7855152,46.4404549 94.7855152,46.5869424 94.775102,46.7328767 L94.775102,47.3630137 C94.7679764,47.644283 94.7794526,47.9257147 94.8094558,48.2054795 C94.8299739,48.3238888 94.8718773,48.4376033 94.9331293,48.5410959 L94.4315646,48.5410959 C94.379371,48.4335347 94.3467995,48.3175708 94.3353741,48.1986301 Z M94.2941497,47.130137 C94.044342,47.2246009 93.7834172,47.2867513 93.5177551,47.3150685 C93.3741797,47.3269576 93.2330467,47.3592478 93.0986395,47.4109589 C93.0218055,47.439384 92.9565744,47.4923694 92.9131293,47.5616438 C92.8669491,47.6279069 92.8429065,47.7070001 92.8444218,47.7876712 C92.8425172,47.910943 92.8953236,48.0287601 92.9887075,48.109589 C93.1116494,48.1995303 93.2625507,48.2432037 93.4146939,48.2328767 C93.5843759,48.2341475 93.7518131,48.194182 93.902517,48.1164384 C94.0407,48.0405453 94.1513112,47.9230878 94.2185714,47.7808219 C94.2797542,47.6311409 94.3056124,47.4694452 94.2941497,47.3082192 L94.2941497,47.130137 Z" id="Shape" fill="#1A1A18" fill-rule="nonzero"></path>
                    <polygon id="Path" fill="#1A1A18" points="95.5240136 48.5410959 95.5240136 44.6643836 95.9980952 44.6643836 95.9980952 46.8767123 97.1317687 45.7328767 97.7432653 45.7328767 96.6714286 46.7739726 97.8531973 48.5410959 97.2691837 48.5410959 96.3347619 47.109589 95.9980952 47.4315068 95.9980952 48.5410959"></polygon>
                    <path d="M98.0455782,47.7054795 L98.5127891,47.630137 C98.5272876,47.798456 98.6089772,47.9539223 98.7395238,48.0616438 C99.0453041,48.2479918 99.430002,48.2479918 99.7357823,48.0616438 C99.8340192,47.9862383 99.8922384,47.870163 99.8938095,47.7465753 C99.8953649,47.6422695 99.8401546,47.5452978 99.7495238,47.4931507 C99.5946657,47.4192505 99.4306114,47.3662719 99.2617007,47.3356164 C99.0122196,47.2806574 98.7684041,47.2026963 98.5334014,47.1027397 C98.2775607,46.9915205 98.1146349,46.7370662 98.1211565,46.4589041 C98.1226148,46.2153636 98.2431433,45.9878408 98.4440816,45.8493151 C98.5371009,45.7866222 98.6389975,45.7381414 98.7463946,45.7054795 C98.8808654,45.6695748 99.0194295,45.6511573 99.1586395,45.6506849 C99.3574749,45.6478668 99.5552274,45.6803362 99.7426531,45.7465753 C99.887019,45.7960907 100.015233,45.8836671 100.113673,46 C100.201748,46.1315208 100.258179,46.2815339 100.278571,46.4383562 L99.8113605,46.5 C99.7966869,46.3680081 99.7299427,46.2472577 99.6258503,46.1643836 C99.4995474,46.0759954 99.3470733,46.0325673 99.1929932,46.0410959 C99.0294484,46.0260485 98.8654376,46.0645189 98.7257823,46.1506849 C98.6398197,46.2064536 98.5880836,46.3018668 98.5883673,46.4041096 C98.5854888,46.4638194 98.6050925,46.522447 98.6433333,46.5684932 C98.6922347,46.6277893 98.7563446,46.6727629 98.8288435,46.6986301 L99.2479592,46.8219178 C99.4819581,46.8784651 99.7115752,46.9517134 99.935034,47.0410959 C100.218837,47.1437258 100.395006,47.4269835 100.36102,47.7260274 C100.36307,47.8851066 100.315009,48.040819 100.223605,48.1712329 C100.127485,48.3187466 99.9884425,48.4334575 99.825102,48.5 C99.6352951,48.5763152 99.4319711,48.6135914 99.2273469,48.609589 C98.9307739,48.6265479 98.6366737,48.5472444 98.3891156,48.3835616 C98.1919065,48.2095882 98.068983,47.966959 98.0455782,47.7054795 Z" id="Path" fill="#1A1A18"></path>
                </g>
            </g>
        </g>
    </g>
</svg>