<?xml version="1.0" encoding="UTF-8"?>
<svg width="176px" height="30px" viewBox="0 0 176 30" version="1.1" xmlns="http://www.w3.org/2000/svg" xmlns:xlink="http://www.w3.org/1999/xlink">
    <!-- Generator: Sketch 53.2 (72643) - https://sketchapp.com -->
    <title>TAI_logo</title>
    <desc>Created with Sketch.</desc>
    <g id="Symbols" stroke="none" stroke-width="1" fill="none" fill-rule="evenodd">
        <g id="components/footer" transform="translate(-883.000000, -60.000000)" fill-rule="nonzero">
            <g id="logod" transform="translate(883.000000, 50.000000)">
                <g id="TAI_logo" transform="translate(0.000000, 10.000000)">
                    <path d="M42.779234,24.6675 L42.779234,19.5 L42.2025532,19.5 L42.2025532,23.0925 C42.2025532,23.2875 42.2025532,23.475 42.2025532,23.655 L42.2025532,23.655 C42.1126809,23.4825 42.0228085,23.3025 41.9104681,23.1075 L39.8209362,19.5 L39.072,19.5 L39.072,24.645 L39.693617,24.645 L39.693617,20.895 C39.693617,20.69 39.693617,20.48 39.693617,20.265 L39.693617,20.265 C39.7984681,20.475 39.9033191,20.6775 40.0231489,20.88 L42.2100426,24.63 L42.779234,24.6675 Z M46.7560851,24.4575 L46.7560851,21.87 C46.7560851,20.9925 46.2842553,20.5575 45.3555745,20.5575 C44.9248064,20.5499156 44.499308,20.6532133 44.1198298,20.8575 L44.2771064,21.2475 C44.5769227,21.0865436 44.9106068,20.9991484 45.2507234,20.9925 C45.842383,20.9925 46.1344681,21.2625 46.1344681,21.795 L46.1344681,22.0425 C45.5855394,22.0775563 45.0475459,22.2122458 44.5467234,22.44 C44.1313204,22.6513951 43.8747246,23.0835556 43.8876596,23.55 C43.8876596,24.345 44.3969362,24.7425 45.3855319,24.7425 C45.8468035,24.7617562 46.3054312,24.6637078 46.7186383,24.4575 L46.7560851,24.4575 Z M46.0970213,24.225 C45.8922551,24.3250502 45.6655075,24.3714962 45.4379574,24.36 C44.8013617,24.36 44.4793191,24.0825 44.4793191,23.535 C44.4599333,23.1908345 44.6369358,22.8653848 44.9361702,22.695 C45.3054499,22.5102404 45.7076424,22.4006274 46.1194894,22.3725 L46.0970213,24.225 Z M49.5720851,24.645 L49.5720851,24.225 C49.5073824,24.2323075 49.4420644,24.2323075 49.3773617,24.225 C49.0403404,24.225 48.8680851,24.03 48.8680851,23.64 L48.8680851,21.015 L49.5720851,21.015 L49.5720851,20.6025 L48.9055319,20.6025 L48.9055319,19.5 L48.2464681,19.71 L48.2464681,20.6325 L47.789617,20.6325 L47.789617,21.045 L48.2464681,21.045 L48.2464681,23.685 C48.2357418,23.9346183 48.3155453,24.1796967 48.4711489,24.375 C48.6590252,24.5915252 48.9337452,24.7125737 49.2200851,24.705 C49.342039,24.7010263 49.4629257,24.6808499 49.5795745,24.645 L49.5720851,24.645 Z M51.3845106,19.5 C51.3839344,19.4009114 51.3434248,19.3062548 51.2721702,19.2375 C51.1990937,19.1691317 51.1025543,19.1315352 51.0025532,19.1325 C50.9001138,19.1303725 50.800821,19.1679962 50.7254468,19.2375 C50.6541922,19.3062548 50.6136826,19.4009114 50.6131064,19.5 C50.6101235,19.5954974 50.6516374,19.6869578 50.7254468,19.7475 C50.7982092,19.8219059 50.8985924,19.8626596 51.0025532,19.86 C51.1040983,19.8614746 51.2017136,19.8207438 51.2721702,19.7475 C51.3459796,19.6869578 51.3874935,19.5954974 51.3845106,19.5 L51.3845106,19.5 Z M50.6355745,24.6675 L51.2946383,24.6675 L51.2946383,20.6325 L50.6355745,20.6325 L50.6355745,24.6675 Z M55.5860426,22.6575 C55.6107887,22.1315465 55.4805658,21.6099148 55.2115745,21.1575 C54.9412119,20.7610942 54.4845681,20.5338682 54.0057872,20.5575 C53.5339043,20.5374039 53.0855955,20.7647182 52.8224681,21.1575 C52.544832,21.6065616 52.4115102,22.130135 52.4405106,22.6575 C52.4092705,23.1840789 52.5399635,23.7075937 52.8149787,24.1575 C53.0978585,24.5352088 53.5418103,24.7575 54.0132766,24.7575 C54.4847429,24.7575 54.9286947,24.5352088 55.2115745,24.1575 C55.4865897,23.7075937 55.6172827,23.1840789 55.5860426,22.6575 L55.5860426,22.6575 Z M54.9269787,22.6575 C54.9269787,23.7375 54.6199149,24.285 54.0132766,24.285 C53.4066383,24.285 53.1744681,23.7375 53.1744681,22.6575 C53.1744681,21.5775 53.4440851,21 54.0507234,21 C54.6573617,21 54.9644255,21.5625 54.9644255,22.68 L54.9269787,22.6575 Z M59.652766,24.69 L59.652766,21.75 C59.6604116,21.4478895 59.5502751,21.1546717 59.3457021,20.9325 C59.0342834,20.6495953 58.6184668,20.510793 58.1998298,20.55 C57.6854133,20.5299646 57.1731893,20.6274254 56.7019574,20.835 L56.7019574,24.66 L57.3535319,24.66 L57.3535319,21.1275 C57.5906532,21.0286541 57.8456692,20.9801323 58.1024681,20.985 C58.6641702,20.985 58.948766,21.2475 58.948766,21.7725 L58.948766,24.6675 L59.652766,24.69 Z M63.5846809,24.48 L63.5846809,21.87 C63.5846809,20.9925 63.1128511,20.5575 62.1766809,20.5575 C61.7482898,20.5498552 61.325195,20.6531957 60.9484255,20.8575 L61.1057021,21.2475 C61.4038147,21.0900297 61.7348277,21.0052317 62.0718298,21 C62.6634894,21 62.9630638,21.27 62.9630638,21.8025 L62.9630638,22.05 C62.4115905,22.0841549 61.8709798,22.2188642 61.3678298,22.4475 C60.9540243,22.6596134 60.7000606,23.0922572 60.7162553,23.5575 C60.7162553,24.3525 61.2155461,24.75 62.2141277,24.75 C62.6778001,24.7692257 63.1388413,24.671212 63.5547234,24.465 L63.5846809,24.48 Z M62.9331064,24.2325 C62.7253719,24.3316569 62.4964388,24.3780237 62.2665532,24.3675 C61.6299574,24.3675 61.3154043,24.09 61.3154043,23.5425 C61.2897373,23.2027302 61.4578806,22.8775785 61.7497872,22.7025 C62.118261,22.5156339 62.5208882,22.4059024 62.9331064,22.38 L62.9331064,24.2325 Z M64.8653617,24.675 L65.5169362,24.675 L65.5169362,18.795 L64.8653617,18.795 L64.8653617,24.675 Z M68.7598298,24.675 L69.4488511,24.675 L69.4488511,19.5 L68.7598298,19.5 L68.7598298,24.675 Z M73.7102979,24.675 L73.7102979,21.75 C73.7220619,21.4472077 73.6113532,21.1524664 73.403234,20.9325 C73.0936416,20.651603 72.6809734,20.5129452 72.2648511,20.55 C71.7505324,20.5312665 71.2385965,20.6286725 70.7669787,20.835 L70.7669787,24.66 L71.4260426,24.66 L71.4260426,21.1275 C71.6631638,21.0286541 71.9181798,20.9801323 72.1749787,20.985 C72.7291915,20.985 73.0137872,21.2475 73.0137872,21.7725 L73.0137872,24.6675 L73.7102979,24.675 Z M77.1104681,23.55 C77.1104681,23.01 76.7809362,22.62 76.1368511,22.365 C75.6874894,22.2 75.4628085,21.95 75.4628085,21.615 C75.4592316,21.4445674 75.5239662,21.2797998 75.6425532,21.1575 C75.7757154,21.0321853 75.9544125,20.9671122 76.1368511,20.9775 C76.3778092,20.9763679 76.6123001,21.055522 76.8034043,21.2025 L76.9756596,20.805 C76.6993515,20.6194442 76.372026,20.5250406 76.0394894,20.535 C75.7169467,20.5174366 75.4009841,20.6310202 75.163234,20.85 C74.9500353,21.0560272 74.8308649,21.3408149 74.8337021,21.6375 C74.8337021,22.1375 75.1482553,22.5125 75.7773617,22.7625 C75.9653272,22.8276463 76.1384537,22.9296301 76.2866383,23.0625 C76.3979743,23.1937812 76.4543267,23.3630785 76.4439149,23.535 C76.4495003,23.7249191 76.3730824,23.9080359 76.2342128,24.0375 C76.0874097,24.1715498 75.8934358,24.2416954 75.6949787,24.2325 C75.425398,24.2397326 75.1613486,24.1551168 74.9460426,23.9925 L74.7662979,24.4275 C75.0728696,24.6270483 75.4346923,24.7241965 75.7998298,24.705 C76.1628165,24.7136004 76.5157406,24.5850821 76.7884255,24.345 C77.0200046,24.1337414 77.1507489,23.8336933 77.1479149,23.52 L77.1104681,23.55 Z M79.821617,24.6225 L79.821617,24.225 C79.7569143,24.2323075 79.6915963,24.2323075 79.6268936,24.225 C79.2898723,24.225 79.117617,24.03 79.117617,23.64 L79.117617,21.015 L79.821617,21.015 L79.821617,20.6025 L79.117617,20.6025 L79.117617,19.5 L78.4660426,19.71 L78.4660426,20.6325 L78.0017021,20.6325 L78.0017021,21.045 L78.4660426,21.045 L78.4660426,23.685 C78.4525146,23.9337621 78.5296999,24.1789736 78.683234,24.375 C78.8711103,24.5915252 79.1458303,24.7125737 79.4321702,24.705 C79.5541241,24.7010263 79.6750108,24.6808499 79.7916596,24.645 L79.821617,24.6225 Z M81.5891064,19.5 C81.5885301,19.4009114 81.5480206,19.3062548 81.476766,19.2375 C81.4036894,19.1691317 81.3071501,19.1315352 81.2071489,19.1325 C81.1047095,19.1303725 81.0054167,19.1679962 80.9300426,19.2375 C80.858788,19.3062548 80.8182784,19.4009114 80.8177021,19.5 C80.8147192,19.5954974 80.8562332,19.6869578 80.9300426,19.7475 C81.0028049,19.8219059 81.1031881,19.8626596 81.2071489,19.86 C81.3086941,19.8614746 81.4063093,19.8207438 81.476766,19.7475 C81.5505754,19.6869578 81.5920893,19.5954974 81.5891064,19.5 L81.5891064,19.5 Z M80.8401702,24.6675 L81.499234,24.6675 L81.499234,20.6325 L80.8851064,20.6325 L80.8401702,24.6675 Z M84.3826383,24.6675 L84.3826383,24.225 C84.3179356,24.2323075 84.2526176,24.2323075 84.1879149,24.225 C83.858383,24.225 83.6786383,24.03 83.6786383,23.64 L83.6786383,21.015 L84.3826383,21.015 L84.3826383,20.6025 L83.6786383,20.6025 L83.6786383,19.5 L83.0270638,19.71 L83.0270638,20.6325 L82.5627234,20.6325 L82.5627234,21.045 L83.0270638,21.045 L83.0270638,23.685 C83.0163375,23.9346183 83.096141,24.1796967 83.2517447,24.375 C83.4383094,24.5933009 83.7139197,24.7147417 84.0006809,24.705 C84.1226884,24.7015746 84.2436483,24.681386 84.3601702,24.645 L84.3826383,24.6675 Z M88.2246809,24.4275 L88.2246809,20.6325 L87.6255319,20.6325 L87.6255319,24.12 C87.3962176,24.2440834 87.1367395,24.3012497 86.8765957,24.285 C86.646826,24.2979212 86.4227641,24.2103582 86.2624681,24.045 C86.1266608,23.8783915 86.0572907,23.6673135 86.0677447,23.4525 L86.0677447,20.6325 L85.4086809,20.6325 L85.4086809,23.43 C85.4086809,24.3075 85.888,24.75 86.8391489,24.75 C87.3313129,24.7714717 87.820194,24.6600868 88.2546383,24.4275 L88.2246809,24.4275 Z M91.1080851,24.645 L91.1080851,24.225 C91.0433824,24.2323075 90.9780644,24.2323075 90.9133617,24.225 C90.5763404,24.225 90.4040851,24.03 90.4040851,23.64 L90.4040851,21.015 L91.1080851,21.015 L91.1080851,20.6025 L90.4040851,20.6025 L90.4040851,19.5 L89.7450213,19.71 L89.7450213,20.6325 L89.2881702,20.6325 L89.2881702,21.045 L89.7450213,21.045 L89.7450213,23.685 C89.734295,23.9346183 89.8140985,24.1796967 89.9697021,24.375 C90.1575784,24.5915252 90.4322983,24.7125737 90.7186383,24.705 C90.8405922,24.7010263 90.9614789,24.6808499 91.0781277,24.645 L91.1080851,24.645 Z M95.1523404,22.5 C95.1523404,21.1875 94.6580426,20.5275 93.6544681,20.5275 C93.2044077,20.5096008 92.7719742,20.7039171 92.4861277,21.0525 C92.1549427,21.5022968 91.9931332,22.0548241 92.0292766,22.6125 C91.9889592,23.1847722 92.168455,23.750853 92.5310638,24.195 C92.8645834,24.5473143 93.3350405,24.7363123 93.819234,24.7125 C94.2438523,24.7336753 94.6661248,24.6376859 95.04,24.435 L94.8677447,24 C94.5624659,24.1653429 94.2184793,24.2456341 93.8716596,24.2325 C93.1227234,24.2325 92.7257872,23.775 92.6508936,22.875 L95.1523404,22.5 Z M94.523234,22.23 L92.5984681,22.5225 C92.5662436,22.105926 92.6630038,21.6895282 92.8755745,21.33 C93.0416542,21.0814164 93.326278,20.9389024 93.6245106,20.955 C94.2386383,20.955 94.5457021,21.3825 94.5457021,22.23 L94.523234,22.23 Z M99.7208511,21.015 L99.7208511,20.6025 L99.0243404,20.6025 L99.0243404,19.965 C99.0243404,19.47 99.2490213,19.215 99.7208511,19.215 L99.7208511,18.795 C99.3635508,18.7411455 99.00126,18.8537193 98.7371602,19.10066 C98.4730604,19.3476007 98.3360966,19.7018439 98.3652766,20.0625 L98.3652766,20.6325 L97.9009362,20.6325 L97.9009362,21.045 L98.3652766,21.045 L98.3652766,24.6675 L99.0243404,24.6675 L99.0243404,21.045 L99.7208511,21.015 Z M103.645277,22.6275 C103.67228,22.1022995 103.544674,21.5807203 103.278298,21.1275 C102.995418,20.7497912 102.551466,20.5275 102.08,20.5275 C101.608534,20.5275 101.164582,20.7497912 100.881702,21.1275 C100.606687,21.5774063 100.475994,22.1009211 100.507234,22.6275 C100.47375,23.153295 100.601815,23.6767524 100.874213,24.1275 C101.145558,24.5227743 101.601526,24.7496644 102.08,24.7275 C102.556794,24.7514408 103.011347,24.5238412 103.278298,24.1275 C103.547193,23.6753089 103.674989,23.1529539 103.645277,22.6275 L103.645277,22.6275 Z M102.993702,22.6275 C102.993702,23.7075 102.679149,24.255 102.08,24.255 C101.480851,24.255 101.106383,23.7375 101.106383,22.6575 C101.106383,21.5775 101.413447,20.9775 102.027574,20.9775 C102.641702,20.9775 102.941277,21.54 102.941277,22.6575 L102.993702,22.6275 Z M106.438809,20.565 C105.845068,20.5161737 105.248436,20.6140368 104.701277,20.85 L104.701277,24.6675 L105.36034,24.6675 L105.36034,21.1425 C105.517648,21.0459385 105.700287,20.9989075 105.884596,21.0075 C106.019082,21.0085145 106.152738,21.0287177 106.281532,21.0675 L106.438809,20.565 Z M112.52017,24.6675 L112.52017,19.5 L111.838638,19.5 L111.838638,21.75 L109.906383,21.75 L109.906383,19.5 L109.217362,19.5 L109.217362,24.645 L109.906383,24.645 L109.906383,22.2375 L111.838638,22.2375 L111.838638,24.6675 L112.52017,24.6675 Z M116.834043,22.5 C116.834043,21.1875 116.347234,20.5275 115.33617,20.5275 C114.88611,20.5096008 114.453676,20.7039171 114.16783,21.0525 C113.839302,21.5032984 113.680171,22.0557365 113.718468,22.6125 C113.676057,23.1837801 113.852839,23.7497483 114.212766,24.195 C114.548598,24.5485033 115.021836,24.7375195 115.508426,24.7125 C115.930669,24.7338424 116.350579,24.6378009 116.721702,24.435 L116.556936,24 C116.251657,24.1653429 115.907671,24.2456341 115.560851,24.2325 C114.811915,24.2325 114.407489,23.775 114.332596,22.875 L116.834043,22.5 Z M116.212426,22.23 L114.28017,22.5225 C114.247946,22.105926 114.344706,21.6895282 114.557277,21.33 C114.723356,21.0814164 115.00798,20.9389024 115.306213,20.955 C115.92783,20.955 116.234894,21.3825 116.234894,22.23 L116.212426,22.23 Z M120.638638,24.4275 L120.638638,21.87 C120.638638,20.9925 120.166809,20.5575 119.230638,20.5575 C118.802133,20.5488239 118.378779,20.6522277 118.002383,20.8575 L118.15966,21.2475 C118.456483,21.0857921 118.787933,20.9983093 119.125787,20.9925 C119.717447,20.9925 120.017021,21.2625 120.017021,21.795 L120.017021,22.0425 C119.465548,22.0766549 118.924937,22.2113642 118.421787,22.44 C118.00374,22.6485541 117.746033,23.082586 117.762723,23.55 C117.762723,24.345 118.272,24.7425 119.260596,24.7425 C119.724268,24.7617257 120.185309,24.663712 120.601191,24.4575 L120.638638,24.4275 Z M119.979574,24.225 C119.77184,24.3241569 119.542907,24.3705237 119.313021,24.36 C118.676426,24.36 118.354383,24.0825 118.354383,23.535 C118.33048,23.1955928 118.498173,22.8713121 118.788766,22.695 C119.160414,22.5094719 119.565208,22.3998439 119.979574,22.3725 L119.979574,24.225 Z M121.91183,24.6675 L122.563404,24.6675 L122.563404,18.795 L121.91183,18.795 L121.91183,24.6675 Z M125.469277,24.6675 L125.469277,24.225 C125.404574,24.2323075 125.339256,24.2323075 125.274553,24.225 C124.937532,24.225 124.765277,24.03 124.765277,23.64 L124.765277,21.015 L125.469277,21.015 L125.469277,20.6025 L124.765277,20.6025 L124.765277,19.5 L124.106213,19.71 L124.106213,20.6325 L123.649362,20.6325 L123.649362,21.045 L124.106213,21.045 L124.106213,23.685 C124.095486,23.9346183 124.17529,24.1796967 124.330894,24.375 C124.51877,24.5915252 124.79349,24.7125737 125.07983,24.705 C125.201784,24.7010263 125.32267,24.6808499 125.439319,24.645 L125.469277,24.6675 Z M129.378723,24.645 L129.378723,21.7875 C129.3898,21.4911375 129.288078,21.2016211 129.094128,20.9775 C128.813361,20.7039748 128.428658,20.5646293 128.038128,20.595 C127.715915,20.6039032 127.400328,20.6886932 127.116936,20.8425 L127.116936,18.795 L126.457872,18.795 L126.457872,24.6675 L127.116936,24.6675 L127.116936,21.2175 C127.344493,21.0853099 127.602801,21.0154675 127.865872,21.015 C128.412596,21.015 128.689702,21.2775 128.689702,21.81 L128.689702,24.6675 L129.378723,24.645 Z M136.014298,22.02 C136.053307,21.3447095 135.863283,20.676035 135.475064,20.1225 C135.080121,19.6504845 134.486399,19.3920985 133.87234,19.425 C133.413355,19.4043636 132.956804,19.5025195 132.546723,19.71 L132.546723,24.4425 C132.966207,24.6531835 133.433903,24.7489256 133.902298,24.72 C134.540959,24.7810947 135.166138,24.5091381 135.557447,24 C135.923238,23.4206126 136.101126,22.7421068 136.066723,22.0575 L136.014298,22.02 Z M135.355234,22.0575 C135.393492,22.6270354 135.279758,23.1965105 135.025702,23.7075 C134.791675,24.0900551 134.364102,24.3099315 133.917277,24.2775 C133.698404,24.2852416 133.48,24.2521802 133.273191,24.18 L133.273191,19.995 C133.47716,19.9211844 133.692953,19.8855915 133.909787,19.89 C134.875915,19.89 135.355234,20.6025 135.355234,22.035 L135.355234,22.0575 Z M140.193362,22.53 C140.193362,21.2175 139.706553,20.5575 138.695489,20.5575 C138.245429,20.5396008 137.812995,20.7339171 137.527149,21.0825 C137.195964,21.5322968 137.034155,22.0848241 137.070298,22.6425 C137.033741,23.2143176 137.212809,23.779052 137.572085,24.225 C137.907917,24.5785033 138.381155,24.7675195 138.867745,24.7425 C139.28992,24.7630628 139.709622,24.6670688 140.081021,24.465 L139.908766,24.03 C139.606225,24.1954231 139.264616,24.2757634 138.92017,24.2625 C138.171234,24.2625 137.766809,23.805 137.691915,22.905 L140.193362,22.53 Z M139.564255,22.26 L137.646979,22.5525 C137.608974,22.1364699 137.703347,21.7190619 137.916596,21.36 C138.082675,21.1114164 138.367299,20.9689024 138.665532,20.985 C139.287149,20.985 139.586723,21.4125 139.586723,22.26 L139.564255,22.26 Z M144.245106,20.6325 L143.638468,20.6325 L142.777191,23.52 C142.727462,23.6811163 142.694827,23.8470328 142.67983,24.015 L142.67983,24.015 C142.657759,23.8475254 142.622703,23.6820254 142.574979,23.52 L141.728681,20.6325 L141.03217,20.6325 L142.365277,24.6675 L142.956936,24.6675 L144.245106,20.6325 Z M148.162043,22.5 C148.162043,21.1875 147.675234,20.5275 146.66417,20.5275 C146.21411,20.5096008 145.781676,20.7039171 145.49583,21.0525 C145.168095,21.5040025 145.006659,22.0552545 145.038979,22.6125 C144.998661,23.1847722 145.178157,23.750853 145.540766,24.195 C145.85942,24.5503459 146.314574,24.7523173 146.791489,24.75 C147.216108,24.7711753 147.63838,24.6751859 148.012255,24.4725 L147.832511,24.0375 C147.530241,24.2036327 147.188433,24.2840198 146.843915,24.27 C146.094979,24.27 145.690553,23.8125 145.61566,22.9125 L148.162043,22.5 Z M147.540426,22.23 L145.61566,22.5225 C145.581667,22.1067439 145.675767,21.6905454 145.885277,21.33 C146.051356,21.0814164 146.33598,20.9389024 146.634213,20.955 C147.25583,20.955 147.562894,21.3825 147.562894,22.23 L147.540426,22.23 Z M149.345362,24.6375 L150.004426,24.6375 L150.004426,18.795 L149.345362,18.795 L149.345362,24.6375 Z M154.280851,22.6575 C154.307855,22.1322995 154.180249,21.6107203 153.913872,21.1575 C153.630993,20.7797912 153.187041,20.5575 152.715574,20.5575 C152.244108,20.5575 151.800156,20.7797912 151.517277,21.1575 C151.23964,21.6065616 151.106319,22.130135 151.135319,22.6575 C151.104079,23.1840789 151.234772,23.7075937 151.509787,24.1575 C151.792403,24.5381595 152.238161,24.7625218 152.71183,24.7625218 C153.185499,24.7625218 153.631257,24.5381595 153.913872,24.1575 C154.182768,23.7053089 154.310563,23.1829539 154.280851,22.6575 L154.280851,22.6575 Z M153.629277,22.6575 C153.629277,23.7375 153.322213,24.285 152.715574,24.285 C152.108936,24.285 151.794383,23.7375 151.794383,22.6575 C151.794383,21.5775 152.101447,20.9775 152.715574,20.9775 C153.329702,20.9775 153.629277,21.54 153.629277,22.6575 L153.629277,22.6575 Z M158.422468,22.5825 C158.458999,22.0408902 158.290547,21.5053627 157.950638,21.0825 C157.625074,20.7067654 157.143304,20.5043561 156.647489,20.535 C156.212635,20.5163053 155.780729,20.6147228 155.396766,20.82 L155.396766,26.25 L156.040851,26.25 L156.040851,24.63 C156.243352,24.6986609 156.456205,24.7316493 156.669957,24.7275 C157.162834,24.7425412 157.635188,24.5295416 157.950638,24.15 C158.291261,23.7014396 158.458799,23.1448491 158.422468,22.5825 L158.422468,22.5825 Z M157.770894,22.62 C157.798009,23.0600387 157.688105,23.4976612 157.45634,23.8725 C157.247426,24.1716773 156.899193,24.3417885 156.535149,24.3225 C156.366033,24.3258775 156.197956,24.2952747 156.040851,24.2325 L156.040851,21.0675 C156.223298,20.9906547 156.419622,20.9523554 156.617532,20.955 C157.366468,20.955 157.770894,21.51 157.770894,22.62 L157.770894,22.62 Z M164.721021,24.6675 L164.721021,21.75 C164.730037,21.4526317 164.625593,21.162992 164.428936,20.94 C164.160236,20.6716069 163.789055,20.5322163 163.410383,20.5575 C162.945372,20.5341602 162.492696,20.7116644 162.167149,21.045 C161.853624,20.6985025 161.396679,20.5182381 160.931404,20.5575 C160.451405,20.5445195 159.974834,20.6420218 159.538383,20.8425 L159.538383,24.6675 L160.189957,24.6675 L160.189957,21.12 C160.427975,21.0249454 160.682717,20.9790269 160.938894,20.985 C161.175891,20.9697467 161.410284,21.0417648 161.597957,21.1875 C161.750301,21.3275481 161.832622,21.5281474 161.822638,21.735 L161.822638,24.6675 L162.474213,24.6675 L162.474213,21.3525 C162.678901,21.1302951 162.966216,21.0027196 163.268085,21 C163.472542,20.9785149 163.67576,21.0505994 163.821127,21.1961728 C163.966494,21.3417462 164.038476,21.5452523 164.017021,21.75 L164.017021,24.6525 L164.721021,24.6675 Z M168.974979,22.5 C168.974979,21.1875 168.48817,20.5275 167.477106,20.5275 C167.029179,20.5096186 166.599026,20.7041574 166.316255,21.0525 C165.98507,21.5022968 165.823261,22.0548241 165.859404,22.6125 C165.816994,23.1837801 165.993775,23.7497483 166.353702,24.195 C166.689534,24.5485033 167.162772,24.7375195 167.649362,24.7125 C168.07398,24.7336753 168.496252,24.6376859 168.870128,24.435 L168.660426,24 C168.358156,24.1661327 168.016348,24.2465198 167.67183,24.2325 C166.922894,24.2325 166.525957,23.775 166.443574,22.875 L168.974979,22.5 Z M168.353362,22.23 L166.421106,22.5225 C166.392685,22.1062233 166.489185,21.6909426 166.698213,21.33 C166.864293,21.0814164 167.148916,20.9389024 167.447149,20.955 C168.061277,20.955 168.37583,21.3825 168.37583,22.23 L168.353362,22.23 Z M173.004255,24.6675 L173.004255,21.75 C173.018031,21.4482768 172.910075,21.1536796 172.704681,20.9325 C172.393262,20.6495953 171.977446,20.510793 171.558809,20.55 C171.044392,20.5299646 170.532168,20.6274254 170.060936,20.835 L170.060936,24.66 L170.757447,24.66 L170.757447,21.1275 C170.994568,21.0286541 171.249584,20.9801323 171.506383,20.985 C172.068085,20.985 172.345191,21.2475 172.345191,21.7725 L172.345191,24.6675 L173.004255,24.6675 Z M175.857702,24.6675 L175.857702,24.225 C175.792999,24.2323075 175.727681,24.2323075 175.662979,24.225 C175.325957,24.225 175.153702,24.03 175.153702,23.64 L175.153702,21.015 L175.857702,21.015 L175.857702,20.6025 L175.153702,20.6025 L175.153702,19.5 L174.494638,19.71 L174.494638,20.6325 L174.037787,20.6325 L174.037787,21.045 L174.502128,21.045 L174.502128,23.685 C174.494674,23.9341585 174.574119,24.1781359 174.726809,24.375 C174.91532,24.5906602 175.189612,24.7115203 175.475745,24.705 C175.597699,24.7010263 175.718585,24.6808499 175.835234,24.645 L175.857702,24.6675 Z M42.6893617,5.4075 L42.6893617,4.32 L37.7838298,4.32 L37.7838298,5.4075 L39.4090213,5.4075 L39.4090213,13.095 L41.0267234,13.095 L41.0267234,5.4075 L42.6893617,5.4075 Z M48.740766,9.615 C48.8348942,8.68864482 48.5987846,7.7588051 48.0742128,6.99 C47.5643921,6.37385976 46.7892602,6.04158739 45.9921702,6.0975 C45.1596675,6.05370916 44.3541896,6.40019631 43.812766,7.035 C43.2665968,7.78795631 43.001557,8.70895113 43.0638298,9.6375 C42.9968194,10.5959851 43.2997533,11.5436628 43.9101277,12.285 C44.5120388,12.9238927 45.3633108,13.2665298 46.2393191,13.2225 C47.0171636,13.2505229 47.7896218,13.0829192 48.4861277,12.735 L48.1191489,11.7525 C47.5813227,12.0167463 46.9880378,12.1479173 46.3891064,12.135 C45.2657021,12.135 44.6440851,11.4975 44.516766,10.2225 L48.740766,9.615 Z M47.2653617,9 L44.4268936,9.435 C44.3725496,8.80370182 44.5109717,8.17076366 44.8238298,7.62 C45.0630106,7.25082978 45.478111,7.03444319 45.9172766,7.05 C46.8234894,7.05 47.2653617,7.7025 47.2653617,9 L47.2653617,9 Z M53.3617021,6.105 C52.2354642,6.00873707 51.1022867,6.17561753 50.0514043,6.5925 L50.0514043,13.095 L51.6091915,13.095 L51.6091915,7.29 C51.8393197,7.16812394 52.0981702,7.11109596 52.3581277,7.125 C52.6130386,7.11822547 52.8669893,7.15891529 53.1070638,7.245 L53.3617021,6.105 Z M60.3043404,6.2175 L58.8514043,6.2175 L57.6156596,10.6575 C57.5390618,10.9690871 57.4790622,11.2845324 57.4359149,11.6025 L57.4359149,11.6025 C57.4143798,11.2825681 57.3591512,10.96581 57.2711489,10.6575 L56.0354043,6.2175 L54.3802553,6.2175 L56.6270638,13.095 L58.1249362,13.095 L60.3043404,6.2175 Z M63.6146383,4.2675 C63.6143659,4.05207964 63.5216086,3.84717738 63.36,3.705 C63.1917637,3.56554273 62.9792109,3.4910436 62.7608511,3.495 C62.5360085,3.50055394 62.3217398,3.59174748 62.1617021,3.75 C62.009501,3.89135384 61.9227103,4.0896262 61.9220426,4.2975 C61.9244486,4.51029971 62.0170163,4.71205683 62.1766809,4.8525 C62.3449171,4.99195727 62.5574699,5.0664564 62.7758298,5.0625 C63.0014901,5.06738918 63.2207254,4.98706718 63.3899574,4.8375 C63.5458,4.7019552 63.6335797,4.50417025 63.629617,4.2975 L63.6146383,4.2675 Z M61.9819574,13.095 L63.5322553,13.095 L63.5322553,6.2175 L61.9819574,6.2175 L61.9819574,13.095 Z M69.7259574,11.1225 C69.7259574,10.215 69.179234,9.5325 68.0782979,9.09 C67.4042553,8.82 67.0597447,8.4525 67.0597447,8.01 C67.052514,7.76393524 67.1506227,7.52650244 67.3293617,7.3575 C67.5230116,7.1807751 67.7792015,7.08895582 68.0408511,7.1025 C68.4413677,7.09613528 68.8312658,7.23159819 69.1417872,7.485 L69.5237447,6.5775 C68.9880497,6.24916419 68.3691649,6.082505 67.7412766,6.0975 C67.1600087,6.07093854 66.5918731,6.27586572 66.1610213,6.6675 C65.7695144,7.0334668 65.5517056,7.54877113 65.5618723,8.085 C65.5884986,9.00640359 66.2309901,9.79449666 67.1271489,10.005 C67.4061832,10.1065409 67.6611866,10.2648675 67.8760851,10.47 C68.2108951,10.8762926 68.1816854,11.4710674 67.8086809,11.8425 C67.603761,12.0268838 67.3350017,12.1237746 67.0597447,12.1125 C66.5972765,12.1339173 66.1417983,11.9933671 65.7715745,11.715 L65.3821277,12.75 C65.949799,13.1017177 66.6100364,13.2741983 67.2769362,13.245 C67.9234857,13.2708469 68.5564092,13.054224 69.0519149,12.6375 C69.4848154,12.2602581 69.7311151,11.712148 69.7259574,11.1375 L69.7259574,11.1225 Z M76.8108936,9.6375 C76.9105093,8.71181351 76.6767898,7.78092725 76.1518298,7.0125 C75.6389047,6.39616501 74.8615294,6.06412535 74.0622979,6.12 C73.2386878,6.07536994 72.4404002,6.412842 71.8978723,7.035 C71.3481828,7.78622962 71.0827652,8.70853688 71.1489362,9.6375 C71.0819258,10.5959851 71.3848597,11.5436628 71.995234,12.285 C72.5971452,12.9238927 73.4484172,13.2665298 74.3244255,13.2225 C75.10227,13.2505229 75.8747282,13.0829192 76.571234,12.735 L76.196766,11.7525 C75.6589397,12.0167463 75.0656548,12.1479173 74.4667234,12.135 C73.3483121,12.135 72.726695,11.4975 72.6018723,10.2225 L76.8108936,9.6375 Z M75.3654468,9 L72.5269787,9.435 C72.4740935,8.8047054 72.6096598,8.17290445 72.9164255,7.62 C73.1590549,7.25076175 73.5762404,7.03476762 74.0173617,7.05 C74.9160851,7.05 75.3654468,7.7025 75.3654468,9 L75.3654468,9 Z M88.5542128,13.095 L85.6633191,4.32 L84.1654468,4.32 L81.2595745,13.095 L82.7125106,13.095 L83.4090213,10.845 L86.24,10.845 L86.9140426,13.095 L88.5542128,13.095 Z M85.9853617,9.8925 L83.6337021,9.8925 L84.5773617,6.81 C84.6837146,6.46100947 84.7662874,6.1051915 84.8245106,5.745 L84.8245106,5.745 C84.8719979,6.10588178 84.9496608,6.46213327 85.0566809,6.81 L85.9853617,9.8925 Z M93.4073191,6.1425 C92.2786006,6.04506151 91.1427235,6.21196192 90.0895319,6.63 L90.0895319,13.1325 L91.6473191,13.1325 L91.6473191,7.29 C91.8774474,7.16812394 92.1362978,7.11109596 92.3962553,7.125 C92.6510525,7.11990557 92.9047016,7.16054707 93.1451915,7.245 L93.4073191,6.1425 Z M100.020426,9.6525 C100.120041,8.72681351 99.8863218,7.79592725 99.3613617,7.0275 C98.8484366,6.41116501 98.0710613,6.07912535 97.2718298,6.135 C96.4532592,6.08897706 95.6586509,6.42053417 95.1148936,7.035 C94.5657968,7.78652097 94.3004432,8.70860609 94.3659574,9.6375 C94.3010314,10.5969853 94.6066836,11.544779 95.2197447,12.285 C95.8216558,12.9238927 96.6729278,13.2665298 97.5489362,13.2225 C98.3266388,13.2489349 99.0987116,13.0814148 99.7957447,12.735 L99.428766,11.7525 C98.8886801,12.017922 98.2926848,12.1491243 97.691234,12.135 C96.5753191,12.135 95.9462128,11.4975 95.826383,10.2225 L100.020426,9.6525 Z M98.5749787,9 L95.7365106,9.435 C95.6836254,8.8047054 95.8191917,8.17290445 96.1259574,7.62 C96.3651383,7.25082978 96.7802387,7.03444319 97.2194043,7.05 C98.125617,7.05 98.5749787,7.7025 98.5749787,9 L98.5749787,9 Z M107.150298,13.095 L107.150298,8.1975 C107.184581,7.63443639 106.967906,7.0851123 106.558638,6.6975 C105.951473,6.23204084 105.193971,6.00767254 104.43166,6.0675 C103.510212,6.0355721 102.592836,6.20446587 101.742979,6.5625 L101.742979,13.065 L103.293277,13.065 L103.293277,7.2675 C103.634568,7.1346403 103.998106,7.06844866 104.364255,7.0725 C105.188085,7.0725 105.6,7.465 105.6,8.25 L105.6,13.125 L107.150298,13.095 Z M114.63966,13.2 L114.63966,6.5925 C113.95331,6.21597865 113.173627,6.04420477 112.392851,6.0975 C111.449577,6.0380712 110.530936,6.41378478 109.898894,7.1175 C109.305088,7.88155116 109.009556,8.83605989 109.067574,9.8025 C109.014358,10.6836192 109.280273,11.5543981 109.816511,12.255 C110.307179,12.8498958 111.046171,13.182499 111.81617,13.155 C112.260278,13.1818251 112.703826,13.0940224 113.10434,12.9 L113.10434,13.335 C113.157043,13.7533423 113.015866,14.1728574 112.721064,14.4739234 C112.426263,14.7749895 112.010191,14.9245652 111.591489,14.88 C111.019712,14.8830902 110.456119,14.7439248 109.951319,14.475 L109.516936,15.4875 C110.242455,15.8520741 111.050623,16.0201429 111.861106,15.975 C112.614492,16.018042 113.35447,15.7620503 113.920681,15.2625 C114.450664,14.7121932 114.722828,13.9626784 114.669617,13.2 L114.63966,13.2 Z M113.171745,12.0375 C112.902373,12.1890755 112.596845,12.2642697 112.288,12.255 C111.209532,12.255 110.662809,11.415 110.662809,9.7275 C110.662809,7.9125 111.232,7.0125 112.370383,7.0125 C112.645622,6.99785985 112.92037,7.04928759 113.171745,7.1625 L113.171745,12.0375 Z M121.934298,12.6825 L121.934298,6.2175 L120.376511,6.2175 L120.376511,11.9325 C120.057317,12.096665 119.701618,12.1766818 119.342979,12.165 C119.02375,12.2114132 118.701437,12.1036515 118.474081,11.8744942 C118.246725,11.645337 118.141204,11.3218748 118.189617,11.0025 L118.189617,6.2175 L116.63183,6.2175 L116.63183,10.9125 C116.63183,12.4575 117.523064,13.2375 119.298043,13.2375 C120.209054,13.2730654 121.114704,13.0824026 121.934298,12.6825 L121.934298,12.6825 Z M127.364085,13.095 L128.996766,13.095 L128.996766,4.32 L127.364085,4.32 L127.364085,13.095 Z M136.718298,13.095 L136.718298,8.1975 C136.756855,7.63376417 136.539485,7.08267794 136.126638,6.6975 C135.517173,6.23089696 134.756918,6.00650339 133.99217,6.0675 C133.073142,6.03546391 132.158182,6.20438329 131.310979,6.5625 L131.310979,13.065 L132.861277,13.065 L132.861277,7.2675 C133.202568,7.1346403 133.566106,7.06844866 133.932255,7.0725 C134.763574,7.0725 135.168,7.455 135.168,8.22 L135.168,13.095 L136.718298,13.095 Z M142.859574,11.1225 C142.859574,10.215 142.305362,9.5325 141.219404,9.09 C140.537872,8.82 140.200851,8.4525 140.200851,8.01 C140.191682,7.76508279 140.286995,7.52782483 140.462979,7.3575 C140.665828,7.17101627 140.937597,7.07848351 141.211915,7.1025 C141.608933,7.10513106 141.992742,7.24561924 142.297872,7.5 L142.67234,6.5925 C142.139828,6.2631753 141.523028,6.09637671 140.897362,6.1125 C140.316094,6.08593854 139.747958,6.29086572 139.317106,6.6825 C138.9256,7.0484668 138.707791,7.56377113 138.717957,8.1 C138.744584,9.02140359 139.387075,9.80949666 140.283234,10.02 C140.562268,10.1215409 140.817272,10.2798675 141.03217,10.485 C141.192727,10.6716921 141.27344,10.9141754 141.256851,11.16 C141.262558,11.4234387 141.156404,11.6769365 140.964766,11.8575 C140.759846,12.0418838 140.491087,12.1387746 140.21583,12.1275 C139.755653,12.1490544 139.302489,12.0084005 138.935149,11.73 L138.508255,12.75 C139.075927,13.1017177 139.736164,13.2741983 140.403064,13.245 C141.049613,13.2708469 141.682537,13.054224 142.178043,12.6375 C142.610943,12.2602581 142.857243,11.712148 142.852085,11.1375 L142.859574,11.1225 Z M147.458043,13.0425 L147.458043,12.06 C147.338911,12.0973568 147.215675,12.1200242 147.091064,12.1275 C146.596766,12.1275 146.342128,11.835 146.342128,11.235 L146.342128,7.215 L147.465532,7.215 L147.465532,6.2175 L146.342128,6.2175 L146.342128,4.2675 L144.79183,4.7025 L144.79183,6.2025 L144.042894,6.2025 L144.042894,7.215 L144.79183,7.215 L144.79183,11.31 C144.771583,11.7791062 144.926431,12.2389635 145.226213,12.6 C145.602888,12.9952719 146.134596,13.203866 146.679149,13.17 C146.935679,13.1717936 147.190088,13.1233872 147.428085,13.0275 L147.458043,13.0425 Z M150.970553,4.2675 C150.970281,4.05207964 150.877524,3.84717738 150.715915,3.705 C150.547679,3.56554273 150.335126,3.4910436 150.116766,3.495 C149.890859,3.48860494 149.671089,3.56912277 149.502638,3.72 C149.350437,3.86135384 149.263646,4.0596262 149.262979,4.2675 C149.265385,4.48029971 149.357952,4.68205683 149.517617,4.8225 C149.685853,4.96195727 149.898406,5.0364564 150.116766,5.0325 C150.340363,5.03850154 150.557655,4.95790847 150.723404,4.8075 C150.88659,4.67689624 150.978284,4.47655201 150.970553,4.2675 L150.970553,4.2675 Z M149.337872,13.095 L150.89566,13.095 L150.89566,6.2175 L149.337872,6.2175 L149.337872,13.095 Z M156.228085,13.0275 L156.228085,12.06 C156.106416,12.0974503 155.98069,12.1201129 155.853617,12.1275 C155.359319,12.1275 155.104681,11.835 155.104681,11.235 L155.104681,7.215 L156.228085,7.215 L156.228085,6.2175 L155.104681,6.2175 L155.104681,4.2675 L153.554383,4.7025 L153.554383,6.2025 L152.805447,6.2025 L152.805447,7.215 L153.554383,7.215 L153.554383,11.31 C153.53557,11.7776407 153.687306,12.2361614 153.981277,12.6 C154.359112,12.9935374 154.889985,13.2018038 155.434213,13.17 C155.705787,13.1774129 155.975989,13.1289116 156.228085,13.0275 L156.228085,13.0275 Z M163.380426,12.6825 L163.380426,6.2175 L161.830128,6.2175 L161.830128,11.9325 C161.510934,12.096665 161.155235,12.1766818 160.796596,12.165 C160.477367,12.2114132 160.155054,12.1036515 159.927698,11.8744942 C159.700342,11.645337 159.594821,11.3218748 159.643234,11.0025 L159.643234,6.2175 L158.085447,6.2175 L158.085447,10.9125 C158.085447,12.4575 158.976681,13.2375 160.75166,13.2375 C161.660425,13.2749703 162.564113,13.0841785 163.380426,12.6825 L163.380426,12.6825 Z M170.869787,12.6825 L170.869787,6.2175 L169.319489,6.2175 L169.319489,11.9325 C169.000295,12.096665 168.644597,12.1766818 168.285957,12.165 C167.965541,12.2140811 167.640927,12.1075058 167.411723,11.8779762 C167.182519,11.6484465 167.076095,11.3233718 167.125106,11.0025 L167.125106,6.2175 L165.574809,6.2175 L165.574809,10.9125 C165.574809,12.4575 166.466043,13.2375 168.233532,13.2375 C169.144701,13.2749544 170.050808,13.0841955 170.869787,12.6825 L170.869787,12.6825 Z M175.902638,13.0275 L175.902638,12.06 C175.780969,12.0974503 175.655244,12.1201129 175.52817,12.1275 C175.033872,12.1275 174.779234,11.835 174.779234,11.235 L174.779234,7.215 L175.902638,7.215 L175.902638,6.2175 L174.779234,6.2175 L174.779234,4.2675 L173.228936,4.7025 L173.228936,6.2025 L172.48,6.2025 L172.48,7.215 L173.228936,7.215 L173.228936,11.31 C173.22948,11.7919191 173.417536,12.2546572 173.753191,12.6 C174.126365,12.9958379 174.656146,13.2047525 175.198638,13.17 C175.470213,13.1774129 175.740415,13.1289116 175.992511,13.0275 L175.902638,13.0275 Z" id="Shape" fill="#002439"></path>
                    <path d="M3.74468085,29.76 L8.92731915,29.76 C9.96594891,27.6240816 11.1236326,25.5483083 12.3948936,23.5425 C13.563234,21.81 14.6417021,20.2125 15.5928511,18.7275 C16.544,17.2425 16.731234,16.2225 16.0946383,15.6825 C15.4580426,15.1425 14.2148085,15.0825 12.3948936,15.5625 C10.5749787,16.0425 8.67268085,16.5675 6.74042553,17.1225 C5.06280851,17.6025 1.87982979,18.495 0,18.87 L0,26.04 C2.53272894e-16,28.1110678 1.67655072,29.79 3.74468085,29.79 M14.8963404,29.79 L25.965617,29.79 C25.2166809,27.81 23.419234,23.2575 22.7751489,21.66 C22.1310638,20.0625 21.4495319,19.065 20.7904681,18.8625 C20.1314043,18.66 19.4049362,19.3425 18.7234043,21 C18.0418723,22.6575 17.3004255,24.4875 16.4765957,26.43 C16.0049127,27.5692237 15.4646874,28.6787595 14.8588936,29.7525 M29.5380426,27.15 C29.6533982,26.7887973 29.7115217,26.4117237 29.7102979,26.0325 L29.7102979,17.37 L28.7516596,17.0175 C27.1189787,16.425 26.1378723,16.38 25.8083404,16.8975 C25.4788085,17.415 25.6360851,18.5775 26.3101277,20.19 C26.7744681,21.2775 28.5569362,25.0575 29.5380426,27.1575 M29.7102979,13.11 L29.7102979,7.5 C29.0662128,8.0175 28.4895319,8.4825 28.2498723,8.655 C26.8942979,9.6525 26.5048511,10.44 26.8268936,11.16 C27.4134716,12.2390632 28.4906675,12.9619498 29.7102979,13.095 M29.5305532,2.595 C29.034477,1.06024204 27.6138608,0.0151647351 26.0030638,0 L23.2170213,0 C23.0372766,1.275 22.7002553,2.8725 22.5354894,4.0275 C22.2658723,5.835 22.4605957,6.8775 23.1421277,7.1625 C23.8236596,7.4475 24.7523404,6.99 26.0629787,5.7525 C26.5797447,5.265 28.6842553,3.42 29.5829787,2.595 M18.5436596,0 L8.75506383,0 C9.64629787,0.75 10.6049362,1.5 10.9344681,1.8825 C12.3050213,3.3825 13.6306383,4.785 14.8963404,6.0975 C16.1620426,7.41 17.2779574,7.845 18.1841702,7.4175 C19.090383,6.99 19.4199149,5.9175 19.172766,4.1025 C19.0304681,3.105 18.7908085,1.5 18.5436596,0 M1.49787234,0.75 C0.554939823,1.45820393 1.44344911e-16,2.56966011 0,3.75 L0,15.165 C2.24822131,14.5993366 4.52597128,14.1586633 6.82280851,13.845 C8.92731915,13.665 10.8895319,13.455 12.7394043,13.2075 C14.5892766,12.96 15.6377872,12.3825 15.8924255,11.4825 C16.1470638,10.5825 15.3831489,9.63 13.728,8.6025 C12.0728511,7.575 10.2978723,6.5175 8.41055319,5.415 C7.26468085,4.74 3.16051064,1.9725 1.49787234,0.75" id="Shape" fill="#ED7703"></path>
                </g>
            </g>
        </g>
    </g>
</svg>