<?xml version="1.0" encoding="UTF-8"?>
<svg width="1180px" height="20px" viewBox="0 0 1180 20" version="1.1" xmlns="http://www.w3.org/2000/svg" xmlns:xlink="http://www.w3.org/1999/xlink">
    <!-- Generator: Sketch 53.2 (72643) - https://sketchapp.com -->
    <title>illustration/line2</title>
    <desc>Created with Sketch.</desc>
    <g id="illustration/line2" stroke="none" stroke-width="1" fill="none" fill-rule="evenodd">
        <g id="line2" fill="#3E78BD" fill-rule="nonzero">
            <path d="M980.668178,0.606060606 C899.663308,1.01010101 818.661741,1.57979798 737.663476,2.31515152 C595.204814,3.6 452.756059,5.42626263 310.317212,7.79393939 L256.191772,7.61212121 C210.431682,7.45454545 164.664987,7.31111111 118.891688,7.18181818 C79.2611251,7.08484848 39.6305626,6.6969697 0,6.96363636 L0,11.2060606 C25.3965855,11.610101 50.8063812,11.8565657 76.2293871,11.9454545 C50.8063812,12.4949495 25.3965855,13.159596 0,13.9393939 L0,18.3030303 C74.8225021,17.2666667 149.654912,15.2909091 224.457599,13.9393939 C252.71419,13.430303 280.967478,12.9454545 309.217464,12.4848485 L470.830898,13.0545455 C633.038791,13.6242424 795.89068,16.2060606 958.06885,18.2606061 C1039.45021,19.2909091 1105.59362,20.5393939 1179.55416,18.2606061 L1179.55416,13.9393939 C1034.99177,18.5090909 889.973636,9.81212121 745.322082,9.31515152 L576.803023,8.70909091 C701.520403,7.23838384 826.221271,6.16969697 950.905626,5.5030303 C1027.1152,5.0969697 1103.34458,11.5636364 1179.55416,11.1939394 L1179.55416,6.95151515 C1113.26213,6.85454545 1046.94039,0.296969697 980.668178,0.606060606 Z" id="Path"></path>
        </g>
    </g>
</svg>