<?xml version="1.0" encoding="UTF-8"?>
<svg width="1180px" height="20px" viewBox="0 0 1180 20" version="1.1" xmlns="http://www.w3.org/2000/svg" xmlns:xlink="http://www.w3.org/1999/xlink">
    <!-- Generator: Sketch 53.2 (72643) - https://sketchapp.com -->
    <title>illustration/line1</title>
    <desc>Created with Sketch.</desc>
    <g id="illustration/line1" stroke="none" stroke-width="1" fill="none" fill-rule="evenodd">
        <path d="M993.855248,9.46060606 C962.457935,8.39393939 931.060621,7.76363636 899.663308,7.40606061 L738.624517,3.03030303 C657.510663,0.854545455 576.624685,-2.03636364 495.540554,2.09090909 C455.909992,4.1030303 416.388413,6.86060606 376.738035,8.71515152 C340.793115,8.9010101 304.844892,9.1030303 268.893367,9.32121212 C200.322586,9.7030303 131.73199,9.92727273 63.1612091,10.5333333 C42.0876574,9.77575758 21.1032746,8.28484848 0,10.2060606 L0,19.5636364 C28.2367758,20.8363636 52.5104954,15.3212121 78.8152813,15.230303 C127.422166,16.8464646 176.078589,17.4989899 224.784551,17.1878788 C269.8445,16.9030303 314.755835,15.5939394 359.617632,13.6787879 C400.985334,13.420202 442.349734,13.1939394 483.710831,13 C565.191268,12.6565657 646.671704,12.3636364 728.152141,12.1212121 C794.008228,11.9151515 859.923762,11.4727273 925.730311,12.6424242 L953.471704,13.3878788 L996.421327,14.5454545 C1029.69118,15.6909091 1063.08984,16.969697 1096.41914,17.2545455 L1160.81881,18.9939394 C1167.07053,19.1636364 1173.32225,19.369697 1179.57397,19.6 L1179.57397,10.2060606 C1117.96826,14.230303 1055.58976,11.5575758 993.855248,9.46060606 Z M464.787238,8.29090909 L466.194123,8.21212121 C506.280437,5.88484848 546.386566,4.12121212 586.64131,4.20606061 C627.33199,4.2969697 667.992947,5.64848485 708.643997,6.75151515 L726.071537,7.21818182 C638.98998,7.52121212 551.905122,7.87878788 464.816961,8.29090909 L464.787238,8.29090909 Z" id="Shape" fill="#3E78BD" fill-rule="nonzero" transform="translate(589.786986, 9.877247) scale(1, -1) translate(-589.786986, -9.877247) "></path>
    </g>
</svg>