<?xml version="1.0" encoding="utf-8"?>
<!-- Generator: Adobe Illustrator 23.0.2, SVG Export Plug-In . SVG Version: 6.00 Build 0)  -->
<svg version="1.1" xmlns="http://www.w3.org/2000/svg" xmlns:xlink="http://www.w3.org/1999/xlink" x="0px" y="0px"
	 viewBox="0 0 200 200" style="enable-background:new 0 0 200 200;" xml:space="preserve">
<style type="text/css">
	.st0{fill-rule:evenodd;clip-rule:evenodd;fill:#3E78BD;}
</style>
<g id="Layer_2">
</g>
<g id="Layer_3">
	<g>
		<polygon class="st0" points="136.9,0 135.9,0 0,135.9 0,136.9 		"/>
		<polygon class="st0" points="130.6,0 129.6,0 0,129.6 0,130.6 		"/>
		<polygon class="st0" points="143.1,0 142.1,0 0,142.1 0,143.1 		"/>
		<polygon class="st0" points="149.4,0 148.4,0 0,148.4 0,149.4 		"/>
		<polygon class="st0" points="124.4,0 123.4,0 0,123.4 0,124.4 		"/>
		<polygon class="st0" points="111.9,0 110.9,0 0,110.9 0,111.9 		"/>
		<polygon class="st0" points="118.1,0 117.1,0 0,117.1 0,118.1 		"/>
		<polygon class="st0" points="105.6,0 104.6,0 0,104.6 0,105.6 		"/>
		<polygon class="st0" points="180.6,0 179.6,0 0,179.6 0,180.6 		"/>
		<polygon class="st0" points="186.9,0 185.9,0 0,185.9 0,186.9 		"/>
		<polygon class="st0" points="174.4,0 173.4,0 0,173.4 0,174.4 		"/>
		<polygon class="st0" points="199.4,0 198.4,0 0,198.4 0,199.4 		"/>
		<polygon class="st0" points="155.6,0 154.6,0 0,154.6 0,155.6 		"/>
		<polygon class="st0" points="193.1,0 192.1,0 0,192.1 0,193.1 		"/>
		<polygon class="st0" points="168.1,0 167.1,0 0,167.1 0,168.1 		"/>
		<polygon class="st0" points="161.9,0 160.9,0 0,160.9 0,161.9 		"/>
		<polygon class="st0" points="99.4,0 98.4,0 0,98.4 0,99.4 		"/>
		<polygon class="st0" points="36.9,0 35.9,0 0,35.9 0,36.9 		"/>
		<polygon class="st0" points="43.1,0 42.1,0 0,42.1 0,43.1 		"/>
		<polygon class="st0" points="11.9,0 10.9,0 0,10.9 0,11.9 		"/>
		<polygon class="st0" points="18.1,0 17.1,0 0,17.1 0,18.1 		"/>
		<polygon class="st0" points="5.6,0 4.6,0 0,4.6 0,5.6 		"/>
		<polygon class="st0" points="49.4,0 48.4,0 0,48.4 0,49.4 		"/>
		<polygon class="st0" points="24.4,0 23.4,0 0,23.4 0,24.4 		"/>
		<polygon class="st0" points="80.6,0 79.6,0 0,79.6 0,80.6 		"/>
		<polygon class="st0" points="86.9,0 85.9,0 0,85.9 0,86.9 		"/>
		<polygon class="st0" points="93.1,0 92.1,0 0,92.1 0,93.1 		"/>
		<polygon class="st0" points="55.6,0 54.6,0 0,54.6 0,55.6 		"/>
		<polygon class="st0" points="61.9,0 60.9,0 0,60.9 0,61.9 		"/>
		<polygon class="st0" points="74.4,0 73.4,0 0,73.4 0,74.4 		"/>
		<polygon class="st0" points="68.1,0 67.1,0 0,67.1 0,68.1 		"/>
		<polygon class="st0" points="30.6,0 29.6,0 0,29.6 0,30.6 		"/>
		<polygon class="st0" points="200,143.1 200,142.1 142.1,200 143.1,200 		"/>
		<polygon class="st0" points="200,136.9 200,135.9 135.9,200 136.9,200 		"/>
		<polygon class="st0" points="200,155.6 200,154.6 154.6,200 155.6,200 		"/>
		<polygon class="st0" points="200,130.6 200,129.6 129.6,200 130.6,200 		"/>
		<polygon class="st0" points="200,149.4 200,148.4 148.4,200 149.4,200 		"/>
		<polygon class="st0" points="200,124.4 200,123.4 123.4,200 124.4,200 		"/>
		<polygon class="st0" points="200,111.9 200,110.9 110.9,200 111.9,200 		"/>
		<polygon class="st0" points="200,105.6 200,104.6 104.6,200 105.6,200 		"/>
		<polygon class="st0" points="200,5.6 200,4.6 4.6,200 5.6,200 		"/>
		<polygon class="st0" points="200,193.1 200,192.1 192.1,200 193.1,200 		"/>
		<polygon class="st0" points="200,186.9 200,185.9 185.9,200 186.9,200 		"/>
		<polygon class="st0" points="200,199.4 200,198.4 198.4,200 199.4,200 		"/>
		<polygon class="st0" points="200,174.4 200,173.4 173.4,200 174.4,200 		"/>
		<polygon class="st0" points="200,168.1 200,167.1 167.1,200 168.1,200 		"/>
		<polygon class="st0" points="200,180.6 200,179.6 179.6,200 180.6,200 		"/>
		<polygon class="st0" points="200,161.9 200,160.9 160.9,200 161.9,200 		"/>
		<polygon class="st0" points="200,118.1 200,117.1 117.1,200 118.1,200 		"/>
		<polygon class="st0" points="200,36.9 200,35.9 35.9,200 36.9,200 		"/>
		<polygon class="st0" points="200,30.6 200,29.6 29.6,200 30.6,200 		"/>
		<polygon class="st0" points="200,43.1 200,42.1 42.1,200 43.1,200 		"/>
		<polygon class="st0" points="200,18.1 200,17.1 17.1,200 18.1,200 		"/>
		<polygon class="st0" points="200,11.9 200,10.9 10.9,200 11.9,200 		"/>
		<polygon class="st0" points="200,24.4 200,23.4 23.4,200 24.4,200 		"/>
		<polygon class="st0" points="200,49.4 200,48.4 48.4,200 49.4,200 		"/>
		<polygon class="st0" points="200,55.6 200,54.6 54.6,200 55.6,200 		"/>
		<polygon class="st0" points="200,86.9 200,85.9 85.9,200 86.9,200 		"/>
		<polygon class="st0" points="200,80.6 200,79.6 79.6,200 80.6,200 		"/>
		<polygon class="st0" points="200,93.1 200,92.1 92.1,200 93.1,200 		"/>
		<polygon class="st0" points="200,61.9 200,60.9 60.9,200 61.9,200 		"/>
		<polygon class="st0" points="200,99.4 200,98.4 98.4,200 99.4,200 		"/>
		<polygon class="st0" points="200,74.4 200,73.4 73.4,200 74.4,200 		"/>
		<polygon class="st0" points="200,68.1 200,67.1 67.1,200 68.1,200 		"/>
	</g>
</g>
</svg>
