<?xml version="1.0" encoding="UTF-8"?>
<svg width="30px" height="30px" viewBox="0 0 30 30" version="1.1" xmlns="http://www.w3.org/2000/svg" xmlns:xlink="http://www.w3.org/1999/xlink">
    <!-- Generator: Sketch 55.2 (78181) - https://sketchapp.com -->
    <title>icon/40x40/close</title>
    <desc>Created with Sketch.</desc>
    <g id="icon/40x40/close" stroke="none" stroke-width="1" fill="none" fill-rule="evenodd">
        <path d="M13.5653346,15.0046024 L0.286065862,28.3766433 C-0.082854799,28.7481413 -0.082854799,29.3499965 0.286065862,29.7214945 C0.470291808,29.9074795 0.712176257,30 0.953591937,30 C1.19547639,30 1.43689207,29.9074795 1.62111801,29.7214945 L15.0002344,16.2489084 L28.3793508,29.7214945 C28.5640455,29.9074795 28.8054612,30 29.0468768,30 C29.2882925,30 29.530177,29.9074795 29.7144029,29.7214945 C30.0833236,29.3499965 30.0833236,28.7481413 29.7144029,28.3766433 L16.435603,15.0046024 L29.7233095,1.62312068 C30.0922302,1.25162265 30.0922302,0.649767519 29.7233095,0.278269489 C29.3543888,-0.0927564965 28.7567092,-0.0927564965 28.3882574,0.278269489 L15.0007032,13.7602964 L1.61174265,0.278741533 C1.24282199,-0.0922844533 0.645611157,-0.0922844533 0.276690496,0.278741533 C-0.0922301652,0.650239562 -0.0922301652,1.25209469 0.276690496,1.62359272 L13.5653346,15.0046024 Z" id="Path" fill="#3B3B3B" fill-rule="nonzero"></path>
    </g>
</svg>