<?xml version="1.0" encoding="UTF-8"?>
<svg width="40px" height="40px" viewBox="0 0 40 40" version="1.1" xmlns="http://www.w3.org/2000/svg" xmlns:xlink="http://www.w3.org/1999/xlink">
    <!-- Generator: Sketch 55.2 (78181) - https://sketchapp.com -->
    <title>icon/40x40/mobile</title>
    <desc>Created with Sketch.</desc>
    <g id="icon/40x40/mobile" stroke="none" stroke-width="1" fill="none" fill-rule="evenodd">
        <path d="M28.45,0 L10.95,0 C8.8796875,0 7.2,1.6796875 7.2,3.75 L7.2,36.25 C7.2,38.3203125 8.8796875,40 10.95,40 L28.45,40 C30.5203125,40 32.2,38.3203125 32.2,36.25 L32.2,3.75 C32.2,1.6796875 30.5203125,0 28.45,0 Z M19.7,37.5 C18.3171875,37.5 17.2,36.3828125 17.2,35 C17.2,33.6171875 18.3171875,32.5 19.7,32.5 C21.0828125,32.5 22.2,33.6171875 22.2,35 C22.2,36.3828125 21.0828125,37.5 19.7,37.5 Z" id="Shape" fill="#8DC63F" fill-rule="nonzero"></path>
    </g>
</svg>