<?xml version="1.0" encoding="UTF-8"?>
<svg width="40px" height="40px" viewBox="0 0 40 40" version="1.1" xmlns="http://www.w3.org/2000/svg" xmlns:xlink="http://www.w3.org/1999/xlink">
    <!-- Generator: Sketch 55.2 (78181) - https://sketchapp.com -->
    <title>icon/40x40/pdf</title>
    <desc>Created with Sketch.</desc>
    <g id="icon/40x40/pdf" stroke="none" stroke-width="1" fill="none" fill-rule="evenodd">
        <path d="M37.6541667,4.07291667 C33.8486111,4.28888889 26.2847222,5.075 21.6152778,7.93333333 C21.2930556,8.13055556 21.1104167,8.48125 21.1104167,8.84791667 L21.1104167,34.1166667 C21.1104167,34.91875 21.9875,35.4256944 22.7270833,35.0534722 C27.53125,32.6354167 34.4791667,31.9756944 37.9145833,31.7951389 C39.0875,31.7333333 39.9993059,30.7930556 39.9993059,29.6659722 L39.9993059,6.20486111 C40,4.975 38.9333333,4.00069444 37.6541667,4.07291667 Z M18.3840278,7.93333333 C13.7152778,5.075 6.15138889,4.28958333 2.34583333,4.07291667 C1.06666667,4.00069444 0,4.975 0,6.20486111 L0,29.6666667 C0,30.7944444 0.911805556,31.7347222 2.08472222,31.7958333 C5.52152778,31.9763889 12.4729167,32.6368056 17.2770833,35.05625 C18.0145833,35.4277778 18.8888889,34.9215278 18.8888889,34.1215278 L18.8888889,8.83541667 C18.8888889,8.46805556 18.7069444,8.13125 18.3840278,7.93333333 Z" id="Shape" fill="#8DC63F" fill-rule="nonzero"></path>
    </g>
</svg>