<?xml version="1.0" encoding="UTF-8"?>
<svg width="40px" height="40px" viewBox="0 0 40 40" version="1.1" xmlns="http://www.w3.org/2000/svg" xmlns:xlink="http://www.w3.org/1999/xlink">
    <!-- Generator: Sketch 55.2 (78181) - https://sketchapp.com -->
    <title>icon/40x40/quote</title>
    <desc>Created with Sketch.</desc>
    <g id="icon/40x40/quote" stroke="none" stroke-width="1" fill="none" fill-rule="evenodd">
        <path d="M13.1859649,17.5122807 C15.320003,20.7038874 17.065671,24.1386834 18.3859649,27.7438596 C19.757882,30.018744 19.6347316,32.8938864 18.0733168,35.0431279 C16.511902,37.1923694 13.8155963,38.1981254 11.2280702,37.5964912 C7.62457623,37.3612113 4.41762694,35.22859 2.80701754,31.9964912 C-0.105162907,26.4688772 -0.105162907,19.8609474 2.80701754,14.3333333 C4.55304768,9.98367867 7.37881803,6.15077478 11.0175439,3.19649123 C12.4334612,1.84368973 14.4549972,1.33231304 16.3438596,1.84912281 C14.9122807,5.5122807 13.3333333,9.07017544 12.1754386,12.7964912 C11.8378833,14.4405698 12.2043774,16.1508756 13.1859649,17.5122807 Z M37.1438596,22.3333333 C40.7017544,25.9754386 40.7438596,29.322807 36.954386,32.354386 C33.1649123,35.3859649 28.4070175,35.0912281 25.9649123,31.1754386 C22.4491228,25.4491228 21.0385965,19.3859649 23.8596491,12.9438596 C25.1349576,9.64729222 27.1688227,6.6974667 29.7964912,4.33333333 C31.0835598,2.98202816 32.9899581,2.41331271 34.8070175,2.83859649 C33.5649123,5.53333333 32.554386,7.9122807 31.4596491,10.2701754 C30.6858284,11.9201095 30.8130138,13.8517378 31.7964912,15.3859649 C33.2199708,17.9571351 35.0226526,20.299202 37.1438596,22.3333333 Z" id="Combined-Shape" fill="#3E78BD" fill-rule="nonzero"></path>
    </g>
</svg>