<?xml version="1.0" encoding="UTF-8"?>
<svg width="30px" height="30px" viewBox="0 0 30 30" version="1.1" xmlns="http://www.w3.org/2000/svg" xmlns:xlink="http://www.w3.org/1999/xlink">
    <!-- Generator: Sketch 55.2 (78181) - https://sketchapp.com -->
    <title>icon/40x40/view</title>
    <desc>Created with Sketch.</desc>
    <g id="icon/40x40/view" stroke="none" stroke-width="1" fill="none" fill-rule="evenodd">
        <path d="M13.5329746,15.0047062 L4.2925183,24.3400272 C3.91527635,24.7199047 3.91527635,25.3353351 4.2925183,25.7152126 C4.48089961,25.9053927 4.72823995,26 4.97510095,26 C5.22244129,26 5.4693023,25.9053927 5.6576836,25.7152126 L15.0002397,16.2770785 L24.3427957,25.7152126 C24.5316564,25.9053927 24.7785174,26 25.0253784,26 C25.2722394,26 25.5195797,25.9053927 25.707961,25.7152126 C26.085203,25.3353351 26.085203,24.7199047 25.707961,24.3400272 L16.4679841,15.0047062 L25.7170685,5.65973144 C26.0943105,5.27985398 26.0943105,4.66442354 25.7170685,4.28454608 C25.3398266,3.90515131 24.7286658,3.90515131 24.3519032,4.28454608 L15.000719,13.732334 L5.64809677,4.28502877 C5.27085481,3.905634 4.66017342,3.905634 4.28293147,4.28502877 C3.90568951,4.66490623 3.90568951,5.28033667 4.28293147,5.66021413 L13.5329746,15.0047062 Z" id="Path" fill="#FFFFFF" fill-rule="nonzero" transform="translate(15.000000, 15.000000) rotate(-315.000000) translate(-15.000000, -15.000000) "></path>
    </g>
</svg>